<svg width="87" height="25" viewBox="0 0 87 25" fill="none" xmlns="http://www.w3.org/2000/svg">
<path fill-rule="evenodd" clip-rule="evenodd" d="M5.10219 16.0642H9.09148L13.6483 24.9608H19.0229V24.7271L13.7651 14.7956C15.2228 14.1392 16.3078 13.2601 17.02 12.1584C17.7432 11.0456 18.1049 9.66021 18.1049 8.0022C18.1049 5.66542 17.326 3.85713 15.7681 2.57746C14.2102 1.29779 11.9958 0.657959 9.12487 0.657959H0.0947266V24.9608H5.10219V16.0642ZM9.14153 12.0082H5.10219V4.71403H9.12487C10.4713 4.71403 11.4672 5.04219 12.1127 5.69875C12.7692 6.35531 13.0974 7.25664 13.0974 8.40276C13.0974 9.52665 12.7525 10.4114 12.0625 11.0567C11.3727 11.691 10.399 12.0082 9.14153 12.0082ZM26.868 19.9534H35.6477L37.3335 24.9608H42.6581L33.5613 0.657959H28.921L19.8742 24.9608H25.1988L26.868 19.9534ZM34.2957 15.8973H28.22L31.2411 6.80042L34.2957 15.8973ZM49.8689 19.9534H58.6486L60.3345 24.9608H65.6591L56.5622 0.657959H51.922L42.8751 24.9608H48.1997L49.8689 19.9534ZM57.2966 15.8973H51.2209L54.2421 6.80042L57.2966 15.8973ZM67.9291 0.657959V24.9608H75.457C77.5824 24.9497 79.4908 24.46 81.1822 23.4919C82.8736 22.5238 84.1811 21.1607 85.1047 19.4025C86.0395 17.6444 86.5068 15.6358 86.5068 13.3769V12.2586C86.5068 9.9996 86.0339 7.98548 85.088 6.21626C84.1422 4.4358 82.8236 3.06714 81.1321 2.11013C79.4519 1.14202 77.5435 0.657959 75.407 0.657959H67.9291ZM72.9366 20.9382V4.71403H75.407C77.3765 4.71403 78.8732 5.35386 79.897 6.63353C80.9207 7.90209 81.4326 9.77154 81.4326 12.2419V13.5272C81.4103 15.9084 80.8818 17.7389 79.8469 19.0186C78.812 20.2984 77.3153 20.9382 75.3569 20.9382H72.9366Z" fill="#F36523"/>
</svg>
