<svg width="25" height="25" viewBox="0 0 25 25" fill="none" xmlns="http://www.w3.org/2000/svg">
<path fill-rule="evenodd" clip-rule="evenodd" d="M16.8752 2.52926H7.64438C4.58557 2.52926 2.10592 5.00891 2.10592 8.06772V17.2985C2.10592 20.3573 4.58557 22.837 7.64438 22.837H16.8752C19.934 22.837 22.4136 20.3573 22.4136 17.2985V8.06772C22.4136 5.00891 19.934 2.52926 16.8752 2.52926ZM7.64438 0.683105C3.56597 0.683105 0.259766 3.98931 0.259766 8.06772V17.2985C0.259766 21.3769 3.56597 24.6831 7.64438 24.6831H16.8752C20.9536 24.6831 24.2598 21.3769 24.2598 17.2985V8.06772C24.2598 3.98931 20.9536 0.683105 16.8752 0.683105H7.64438ZM6.36467 12.8803C6.36467 12.3705 6.77795 11.9572 7.28775 11.9572H11.3117V7.93329C11.3117 7.42349 11.7249 7.01022 12.2348 7.01022C12.7446 7.01022 13.1578 7.42349 13.1578 7.93329V11.9572H17.1818C17.6916 11.9572 18.1048 12.3705 18.1048 12.8803C18.1048 13.3901 17.6916 13.8034 17.1818 13.8034H13.1578V17.8273C13.1578 18.3371 12.7446 18.7504 12.2347 18.7504C11.7249 18.7504 11.3117 18.3371 11.3117 17.8273V13.8034H7.28775C6.77795 13.8034 6.36467 13.3901 6.36467 12.8803Z" fill="white"/>
</svg>
