<svg width="25" height="25" viewBox="0 0 25 25" fill="none" xmlns="http://www.w3.org/2000/svg">
<path fill-rule="evenodd" clip-rule="evenodd" d="M0.695312 12.2208C0.695312 5.5924 6.06873 0.218994 12.6972 0.218994C19.3256 0.218994 24.699 5.5924 24.699 12.2208V16.679L24.6991 16.6791C24.699 20.8443 21.3224 24.2209 17.1571 24.2209H14.4083V24.2199H12.557C11.8169 24.2199 11.217 23.62 11.217 22.88C11.217 22.1399 11.8169 21.54 12.557 21.54H15.0628C15.8028 21.54 16.4028 22.1399 16.4028 22.88C16.4028 22.8937 16.4026 22.9073 16.4022 22.9209H17.1571C19.6684 22.9209 21.8333 21.4378 22.8239 19.2998C22.763 19.3054 22.7014 19.3082 22.6392 19.3082H20.3371C19.2325 19.3082 18.3371 18.4128 18.3371 17.3082V11.8841C18.3371 10.7795 19.2325 9.8841 20.3371 9.8841H22.6392C22.8186 9.8841 22.9926 9.90775 23.1581 9.95208C22.1175 5.13135 17.8292 1.51899 12.6972 1.51899C7.56956 1.51899 3.28422 5.12515 2.23896 9.93967C2.38973 9.90335 2.54716 9.8841 2.70908 9.8841H5.01116C6.11573 9.8841 7.01117 10.7795 7.01117 11.8841V17.3082C7.01117 18.4128 6.11574 19.3082 5.01117 19.3082H2.70908C1.60451 19.3082 0.709082 18.4128 0.709082 17.3082V16.679H0.695312V12.2208ZM20.3371 11.1841H22.6392C23.0258 11.1841 23.3392 11.4975 23.3392 11.8841V17.3082C23.3392 17.6948 23.0258 18.0082 22.6392 18.0082H20.3371C19.9505 18.0082 19.6371 17.6948 19.6371 17.3082V11.8841C19.6371 11.4975 19.9505 11.1841 20.3371 11.1841ZM5.01116 11.1841H2.70908C2.32248 11.1841 2.00908 11.4975 2.00908 11.8841V17.3082C2.00908 17.6948 2.32248 18.0082 2.70908 18.0082H5.01117C5.39777 18.0082 5.71117 17.6948 5.71117 17.3082V11.8841C5.71117 11.4975 5.39777 11.1841 5.01116 11.1841Z" fill="#454545"/>
</svg>
