<svg width="37" height="37" viewBox="0 0 37 37" fill="none" xmlns="http://www.w3.org/2000/svg">
<circle cx="18.1438" cy="18.7749" r="18" fill="#D9D9D9"/>
<path fill-rule="evenodd" clip-rule="evenodd" d="M12.2466 11.9641C11.9943 11.7118 11.5853 11.7118 11.333 11.9641C11.0807 12.2164 11.0807 12.6254 11.333 12.8777L17.2304 18.7751L11.3334 24.6721C11.0811 24.9244 11.0811 25.3334 11.3334 25.5857C11.5857 25.838 11.9947 25.838 12.247 25.5857L18.144 19.6887L24.041 25.5857C24.2933 25.838 24.7023 25.838 24.9546 25.5857C25.2069 25.3334 25.2069 24.9244 24.9546 24.6721L19.0576 18.7751L24.955 12.8777C25.2073 12.6254 25.2073 12.2164 24.955 11.9641C24.7027 11.7118 24.2937 11.7118 24.0414 11.9641L18.144 17.8615L12.2466 11.9641Z" fill="#454545"/>
</svg>
