<svg width="34" height="29" viewBox="0 0 34 29" fill="none" xmlns="http://www.w3.org/2000/svg">
<path fill-rule="evenodd" clip-rule="evenodd" d="M17.1613 1.12007C17.0394 0.998171 16.8741 0.929688 16.7017 0.929688C16.5293 0.929688 16.364 0.998172 16.2421 1.12007L6.74825 10.614C6.49441 10.8678 6.49441 11.2794 6.74825 11.5332C7.00209 11.787 7.41365 11.787 7.66749 11.5332L16.0969 3.10371V16.8297C16.0969 17.1887 16.388 17.4797 16.7469 17.4797C17.1059 17.4797 17.3969 17.1887 17.3969 16.8297V3.19416L25.736 11.5332C25.9899 11.787 26.4014 11.787 26.6553 11.5332C26.9091 11.2794 26.9091 10.8678 26.6553 10.614L17.1613 1.12007ZM1.02207 17.5024C1.38106 17.5024 1.67207 17.7935 1.67207 18.1524V23.1524C1.67207 25.5549 3.61964 27.5024 6.02208 27.5024H27.3814C29.7839 27.5024 31.7314 25.5549 31.7314 23.1524V18.1524C31.7314 17.7935 32.0224 17.5024 32.3814 17.5024C32.7404 17.5024 33.0314 17.7935 33.0314 18.1524V23.1524C33.0314 26.2729 30.5018 28.8024 27.3814 28.8024H6.02208C2.90166 28.8024 0.37207 26.2729 0.37207 23.1524V18.1524C0.37207 17.7935 0.663086 17.5024 1.02207 17.5024Z" fill="#F36523"/>
</svg>
