<svg width="25" height="29" viewBox="0 0 25 29" fill="none" xmlns="http://www.w3.org/2000/svg">
<path fill-rule="evenodd" clip-rule="evenodd" d="M1.92756 18.1849C1.42452 17.4043 0.64724 16.086 2.1689 15.005C2.96143 14.4419 3.85412 14.6874 4.35642 15.3351L6.51459 17.794C6.63382 17.9298 6.85774 17.8455 6.85774 17.6647V6.8299C6.85774 5.95166 7.56668 5.24272 8.44492 5.24272C9.03111 5.24272 9.54188 5.55856 9.81675 6.02977C9.9537 6.26453 10.0321 6.53785 10.0321 6.8299V13.168C10.0321 13.4643 10.2649 13.6971 10.5612 13.6971C10.8574 13.6971 11.0902 13.4643 11.0902 13.168V3.65555C11.0902 2.77731 11.7991 2.06838 12.6774 2.06838C13.5445 2.06838 14.2466 2.75954 14.2642 3.6224C14.2644 3.63342 14.2646 3.64447 14.2646 3.65555V13.1786C14.2646 13.4749 14.4973 13.7076 14.7936 13.7076C15.0899 13.7076 15.3227 13.4749 15.3227 13.1786V4.71366C15.3227 4.42162 15.4011 4.1483 15.538 3.91354C15.8129 3.44233 16.3237 3.12649 16.9098 3.12649C17.7881 3.12649 18.497 3.83543 18.497 4.71366V13.1786C18.497 13.4749 18.7298 13.7076 19.0261 13.7076C19.3223 13.7076 19.5551 13.4749 19.5551 13.1786V7.88801C19.5551 7.59597 19.6335 7.32264 19.7705 7.08788C20.0453 6.61667 20.5561 6.30084 21.1423 6.30084C22.0205 6.30084 22.7295 7.00978 22.7295 7.88801V20.717C22.7295 23.0554 21.6736 27.4632 16.3007 27.4632H12.6774C9.07158 27.4632 7.44471 25.4722 6.5513 24.3788C6.39603 24.1888 6.26291 24.0259 6.14541 23.9053L1.92756 18.1849ZM19.7705 5.37642C20.1776 5.15385 20.645 5.02738 21.1423 5.02738C22.7238 5.02738 24.0029 6.30647 24.0029 7.88801V20.717C24.0029 22.035 23.7122 24.0002 22.5874 25.6765C21.4095 27.4318 19.4011 28.7366 16.3007 28.7366H12.6774C10.2525 28.7366 8.54558 27.94 7.33617 26.992C6.74391 26.5277 6.28811 26.0409 5.93911 25.6341C5.7981 25.4697 5.66907 25.3118 5.56192 25.1806C5.5387 25.1522 5.51651 25.125 5.49545 25.0993C5.36628 24.9417 5.28873 24.8508 5.23318 24.7938L5.17227 24.7313L0.878831 18.9084L0.855455 18.8722C0.614644 18.4985 0.13034 17.747 0.0244581 16.8583C-0.0326549 16.3789 0.0163264 15.8457 0.262896 15.3131C0.507194 14.7854 0.908327 14.3384 1.43136 13.9668C2.83699 12.9682 4.4638 13.4299 5.33547 14.5201L5.58429 14.8036V6.8299C5.58429 5.24835 6.86337 3.96927 8.44492 3.96927C8.94222 3.96927 9.40962 4.09574 9.81675 4.31831V3.65555C9.81675 2.074 11.0958 0.794922 12.6774 0.794922C13.8034 0.794922 14.7761 1.4433 15.243 2.38758C15.7121 2.05105 16.2876 1.85304 16.9098 1.85304C18.4914 1.85304 19.7705 3.13212 19.7705 4.71366V5.37642Z" fill="#F36523"/>
</svg>
