<svg width="10" height="22" viewBox="0 0 10 22" fill="none" xmlns="http://www.w3.org/2000/svg">
<path fill-rule="evenodd" clip-rule="evenodd" d="M9.27111 16.8046C9.55131 17.1096 9.53115 17.5841 9.22608 17.8643L5.38087 21.396L4.87356 21.8619L4.36623 21.396L0.520529 17.8643C0.215448 17.5841 0.195256 17.1097 0.475431 16.8046C0.755605 16.4995 1.23005 16.4793 1.53513 16.7595L4.12353 19.1366L4.12353 3.4902L1.57516 6.21038C1.29197 6.51267 0.817351 6.52814 0.515067 6.24495C0.212784 5.96176 0.197306 5.48714 0.480498 5.18485L4.3262 1.07988L4.87357 0.495605L5.4209 1.07991L9.26611 5.18489C9.54928 5.48719 9.53378 5.96181 9.23147 6.24499C8.92917 6.52816 8.45455 6.51265 8.17138 6.21035L5.62353 3.49038L5.62353 19.1364L8.21141 16.7595C8.51647 16.4793 8.99092 16.4995 9.27111 16.8046Z" fill="#CBCBCB"/>
</svg>
