<svg width="30" height="27" viewBox="0 0 30 27" fill="none" xmlns="http://www.w3.org/2000/svg">
<path fill-rule="evenodd" clip-rule="evenodd" d="M24.6299 23.7952C22.1546 25.6607 19.091 26.5741 15.9983 26.3685C12.9055 26.1629 9.98979 24.852 7.78323 22.6752C7.39007 22.2874 7.38577 21.6542 7.77364 21.261C8.16151 20.8679 8.79466 20.8636 9.18782 21.2515C11.0527 23.0912 13.517 24.1991 16.1309 24.3729C18.7448 24.5466 21.3341 23.7747 23.4261 22.198C25.5182 20.6212 26.9735 18.3448 27.5265 15.7842C28.0795 13.2235 27.6934 10.5494 26.4385 8.24985C25.1837 5.95028 23.1438 4.17859 20.6911 3.25813C18.2385 2.33766 15.5366 2.3298 13.0787 3.23596C10.6207 4.14213 8.57052 5.90191 7.30229 8.19414C6.16978 10.2411 5.72824 12.5907 6.02988 14.8958L7.4541 12.7178C7.75636 12.2556 8.3761 12.1259 8.83833 12.4281C9.30056 12.7304 9.43024 13.3501 9.12798 13.8124L6.17513 18.328C6.0094 18.5814 5.73776 18.7461 5.4364 18.7759C5.13505 18.8056 4.83645 18.6972 4.62437 18.481L0.972705 14.759C0.585923 14.3648 0.591962 13.7317 0.986193 13.3449C1.38042 12.9581 2.01356 12.9641 2.40034 13.3584L4.0297 15.0191C3.70748 12.3355 4.23459 9.60752 5.55228 7.2259C7.05284 4.51376 9.4786 2.4316 12.3868 1.35943C15.2951 0.287255 18.4919 0.296563 21.3938 1.38565C24.2958 2.47474 26.7094 4.57099 28.1941 7.29183C29.6789 10.0127 30.1358 13.1767 29.4814 16.2064C28.8271 19.2361 27.1052 21.9296 24.6299 23.7952ZM15.8089 5.82515C16.3612 5.82515 16.8089 6.27287 16.8089 6.82515V14.098H21.3472C21.8995 14.098 22.3472 14.5457 22.3472 15.098C22.3472 15.6503 21.8995 16.098 21.3472 16.098H15.8089C15.2566 16.098 14.8089 15.6503 14.8089 15.098V6.82515C14.8089 6.27287 15.2566 5.82515 15.8089 5.82515Z" fill="white"/>
</svg>
