<svg width="25" height="25" viewBox="0 0 25 25" fill="none" xmlns="http://www.w3.org/2000/svg">
<path fill-rule="evenodd" clip-rule="evenodd" d="M23.1849 12.6165C23.1849 18.5259 18.3943 23.3165 12.4849 23.3165C6.57542 23.3165 1.78486 18.5259 1.78486 12.6165C1.78486 6.70701 6.57542 1.91646 12.4849 1.91646C18.3943 1.91646 23.1849 6.70701 23.1849 12.6165ZM24.4849 12.6165C24.4849 19.2439 19.1123 24.6165 12.4849 24.6165C5.85745 24.6165 0.484863 19.2439 0.484863 12.6165C0.484863 5.98904 5.85745 0.616455 12.4849 0.616455C19.1123 0.616455 24.4849 5.98904 24.4849 12.6165ZM13.0496 18.8421C12.8237 19.068 12.5413 19.1809 12.2025 19.1809C11.8637 19.1809 11.5814 19.068 11.3555 18.8421C11.1296 18.61 11.0167 18.3276 11.0167 17.9951C11.0167 17.6625 11.1296 17.3865 11.3555 17.1669C11.5814 16.9473 11.8637 16.8375 12.2025 16.8375C12.5413 16.8375 12.8237 16.9473 13.0496 17.1669C13.2754 17.3865 13.3884 17.6625 13.3884 17.9951C13.3884 18.3276 13.2754 18.61 13.0496 18.8421ZM10.2854 9.76611C10.2968 10.2167 9.96185 10.6476 9.51175 10.6711C9.17538 10.6887 8.86676 10.4712 8.82279 10.1373C8.79208 9.90409 8.77673 9.65285 8.77673 9.38355C8.77673 8.39221 9.09986 7.58909 9.74612 6.97421C10.3924 6.35932 11.2676 6.05188 12.3719 6.05188C12.968 6.05188 13.5139 6.14913 14.0095 6.34364C14.4989 6.53814 14.9005 6.79853 15.2142 7.12479C15.5279 7.45106 15.7695 7.8181 15.9389 8.22594C16.1083 8.62749 16.193 9.04474 16.193 9.47766C16.193 9.79138 16.1585 10.0863 16.0895 10.3623C16.0204 10.6384 15.9389 10.8737 15.8448 11.0682C15.7444 11.2627 15.6095 11.4635 15.4401 11.6705C15.2707 11.8776 15.1201 12.0439 14.9883 12.1694C14.8503 12.2886 14.6715 12.4391 14.4519 12.6211C14.1946 12.8282 13.997 13.0007 13.8589 13.1387C13.7146 13.2705 13.5609 13.4399 13.3978 13.647C13.2346 13.854 13.1186 14.0736 13.0496 14.3058C12.9144 14.7113 12.5901 15.0681 12.1626 15.0681H12.1131C11.6583 15.0681 11.2731 14.6917 11.3983 14.2545L11.4025 14.2399C11.4716 13.9764 11.5563 13.7536 11.6567 13.5717C11.757 13.3897 11.9045 13.1952 12.099 12.9882C12.2872 12.7811 12.4535 12.618 12.5978 12.4988C12.7358 12.3733 12.9335 12.207 13.1907 11.9999C13.6613 11.6298 14.0033 11.269 14.2166 10.9176C14.4299 10.5663 14.5366 10.149 14.5366 9.66589C14.5366 9.01336 14.3389 8.48318 13.9436 8.07535C13.5484 7.66752 13.0119 7.4636 12.3343 7.4636C11.6943 7.4636 11.1924 7.65497 10.8284 8.03771C10.4645 8.42044 10.2826 8.91925 10.2826 9.53413C10.2826 9.61446 10.2835 9.69179 10.2854 9.76611Z" fill="#454545"/>
</svg>
