<svg width="25" height="25" viewBox="0 0 25 25" fill="none" xmlns="http://www.w3.org/2000/svg">
<path fill-rule="evenodd" clip-rule="evenodd" d="M2.10592 1.94918H9.45169L9.45169 5.0818L2.10591 5.0818L2.10592 1.94918ZM0.259766 1.94918C0.259766 0.929578 1.08631 0.103027 2.10592 0.103027H9.45169C10.4713 0.103027 11.2978 0.929579 11.2978 1.94918V5.0818C11.2978 6.10141 10.4713 6.92796 9.45169 6.92796H2.10591C1.08631 6.92796 0.259766 6.10141 0.259766 5.0818V1.94918ZM2.10592 10.5368H9.45169L9.45169 13.6694H2.10591L2.10592 10.5368ZM0.259766 10.5368C0.259766 9.51717 1.08631 8.69062 2.10592 8.69062H9.45169C10.4713 8.69062 11.2978 9.51717 11.2978 10.5368V13.6694C11.2978 14.689 10.4713 15.5155 9.45169 15.5155H2.10591C1.08631 15.5155 0.259766 14.689 0.259766 13.6694V10.5368ZM9.45169 19.1243H2.10592L2.10591 22.2569H9.45169L9.45169 19.1243ZM2.10592 17.2781C1.08631 17.2781 0.259766 18.1046 0.259766 19.1243V22.2569C0.259766 23.2765 1.08631 24.103 2.10591 24.103H9.45169C10.4713 24.103 11.2978 23.2765 11.2978 22.2569V19.1243C11.2978 18.1046 10.4713 17.2781 9.45169 17.2781H2.10592ZM15.0678 1.94918H22.4136L22.4136 5.0818L15.0678 5.0818V1.94918ZM13.2217 1.94918C13.2217 0.929578 14.0482 0.103027 15.0678 0.103027H22.4136C23.4332 0.103027 24.2598 0.929579 24.2598 1.94918V5.0818C24.2598 6.10141 23.4332 6.92796 22.4136 6.92796H15.0678C14.0482 6.92796 13.2217 6.10141 13.2217 5.0818V1.94918ZM22.4136 10.5368H15.0678V13.6694H22.4136L22.4136 10.5368ZM15.0678 8.69062C14.0482 8.69062 13.2217 9.51717 13.2217 10.5368V13.6694C13.2217 14.689 14.0482 15.5155 15.0678 15.5155H22.4136C23.4332 15.5155 24.2598 14.689 24.2598 13.6694V10.5368C24.2598 9.51717 23.4332 8.69062 22.4136 8.69062H15.0678ZM15.0678 19.1243H22.4136L22.4136 22.2569H15.0678V19.1243ZM13.2217 19.1243C13.2217 18.1046 14.0482 17.2781 15.0678 17.2781H22.4136C23.4332 17.2781 24.2598 18.1046 24.2598 19.1243V22.2569C24.2598 23.2765 23.4332 24.103 22.4136 24.103H15.0678C14.0482 24.103 13.2217 23.2765 13.2217 22.2569V19.1243Z" fill="white"/>
</svg>
