<svg width="25" height="25" viewBox="0 0 25 25" fill="none" xmlns="http://www.w3.org/2000/svg">
<path fill-rule="evenodd" clip-rule="evenodd" d="M2.4056 2.23483H22.6496L22.6496 5.36745L2.4056 5.36745V2.23483ZM0.527588 2.23483C0.527588 1.21522 1.3684 0.388672 2.4056 0.388672H22.6496C23.6868 0.388672 24.5276 1.21522 24.5276 2.23483V5.36745C24.5276 6.38705 23.6868 7.2136 22.6496 7.2136H2.4056C1.3684 7.2136 0.527588 6.38705 0.527588 5.36745V2.23483ZM22.6496 10.8224H2.4056V13.955H22.6496L22.6496 10.8224ZM2.4056 8.97626C1.3684 8.97626 0.527588 9.80281 0.527588 10.8224V13.955C0.527588 14.9746 1.3684 15.8012 2.4056 15.8012H22.6496C23.6868 15.8012 24.5276 14.9746 24.5276 13.955V10.8224C24.5276 9.80281 23.6868 8.97626 22.6496 8.97626H2.4056ZM2.4056 19.4099H22.6496L22.6496 22.5425H2.4056V19.4099ZM0.527588 19.4099C0.527588 18.3903 1.3684 17.5637 2.4056 17.5637H22.6496C23.6868 17.5637 24.5276 18.3903 24.5276 19.4099V22.5425C24.5276 23.5621 23.6868 24.3887 22.6496 24.3887H2.4056C1.3684 24.3887 0.527588 23.5621 0.527588 22.5425V19.4099Z" fill="white"/>
</svg>
