<svg width="25" height="25" viewBox="0 0 25 25" fill="none" xmlns="http://www.w3.org/2000/svg">
<path fill-rule="evenodd" clip-rule="evenodd" d="M22.6493 2.54647H2.40536V5.67909L22.6493 5.67909L22.6493 2.54647ZM2.40536 0.700317C1.36816 0.700317 0.527344 1.52687 0.527344 2.54647V5.67909C0.527344 6.6987 1.36816 7.52525 2.40536 7.52525H22.6493C23.6865 7.52525 24.5273 6.6987 24.5273 5.67909V2.54647C24.5273 1.52687 23.6865 0.700317 22.6493 0.700317H2.40536ZM18.3235 11.1341H22.6493L22.6493 14.2667H18.3235V11.1341ZM16.4455 11.1341C16.4455 10.1145 17.2863 9.28791 18.3235 9.28791H22.6493C23.6865 9.28791 24.5273 10.1145 24.5273 11.1341V14.2667C24.5273 15.2863 23.6865 16.1128 22.6493 16.1128H18.3235C17.2863 16.1128 16.4455 15.2863 16.4455 14.2667V11.1341ZM22.6493 19.7215H2.40536V22.8542H22.6493L22.6493 19.7215ZM2.40536 17.8754C1.36816 17.8754 0.527344 18.7019 0.527344 19.7215V22.8542C0.527344 23.8738 1.36816 24.7003 2.40536 24.7003H22.6493C23.6865 24.7003 24.5273 23.8738 24.5273 22.8542V19.7215C24.5273 18.7019 23.6865 17.8754 22.6493 17.8754H2.40536ZM2.65194 11.1339H13.5035L13.5035 14.2665H2.65194V11.1339ZM0.773926 11.1339C0.773926 10.1143 1.61474 9.28772 2.65194 9.28772H13.5035C14.5407 9.28772 15.3815 10.1143 15.3815 11.1339V14.2665C15.3815 15.2861 14.5407 16.1126 13.5035 16.1126H2.65194C1.61474 16.1126 0.773926 15.2861 0.773926 14.2665V11.1339Z" fill="white"/>
</svg>
