<svg width="19" height="26" viewBox="0 0 19 26" fill="none" xmlns="http://www.w3.org/2000/svg">
<path fill-rule="evenodd" clip-rule="evenodd" d="M0.824463 13.4935C0.824463 12.6789 1.38587 11.9954 2.14289 11.8088V8.20402C2.14289 4.03351 5.52376 0.652649 9.69427 0.652649C13.8648 0.652649 17.2456 4.03352 17.2456 8.20402V11.8087C18.0028 11.9952 18.5643 12.6788 18.5643 13.4935V20.4475C18.5643 23.3222 16.2339 25.6526 13.3592 25.6526H6.02957C3.15487 25.6526 0.824463 23.3222 0.824463 20.4475V13.4935ZM4.74545 8.20402V11.7585H14.6431V8.20402C14.6431 5.47087 12.4274 3.2552 9.69427 3.2552C6.96111 3.2552 4.74545 5.47086 4.74545 8.20402ZM11.6826 16.9602C11.6826 17.6764 11.3039 18.3042 10.7358 18.6542V20.6211C10.7358 21.1412 10.3142 21.5627 9.79412 21.5627H9.59443C9.07437 21.5627 8.65279 21.1412 8.65279 20.6211V18.6542C8.08466 18.3042 7.70593 17.6764 7.70593 16.9602C7.70593 15.862 8.59614 14.9718 9.69428 14.9718C10.7924 14.9718 11.6826 15.862 11.6826 16.9602Z" fill="#CBCBCB"/>
</svg>
