<svg width="23" height="25" viewBox="0 0 23 25" fill="none" xmlns="http://www.w3.org/2000/svg">
<path fill-rule="evenodd" clip-rule="evenodd" d="M1.80455 2.09795C1.54948 2.00651 1.29637 2.2384 1.36517 2.50047L6.83138 23.3225C6.91406 23.6374 7.3511 23.6633 7.47044 23.3604L11.1944 13.9074C11.3614 13.4834 11.7026 13.1516 12.1311 12.9965L21.2395 9.69862C21.5361 9.59121 21.5354 9.17143 21.2385 9.06495L1.80455 2.09795ZM0.155312 2.81808C-0.169031 1.58259 1.02425 0.489413 2.22667 0.920477L21.6606 7.88748C23.0607 8.38942 23.0638 10.3684 21.6653 10.8747L12.5569 14.1726C12.466 14.2055 12.3937 14.2759 12.3582 14.3658L8.63424 23.8189C8.07162 25.247 6.01128 25.1248 5.62153 23.6401L0.155312 2.81808Z" fill="#F36523"/>
</svg>
