<svg width="32" height="33" viewBox="0 0 32 33" fill="none" xmlns="http://www.w3.org/2000/svg">
<path fill-rule="evenodd" clip-rule="evenodd" d="M7.52398 9.43349H23.8056V5.0063L20.5293 1.61619H7.52398V9.43349ZM7.23868 0.379883C6.71345 0.379883 6.28768 0.805661 6.28768 1.33088V9.43349V9.51392H2.88328C1.30761 9.51392 0.0302734 10.7913 0.0302734 12.3669V24.0272C0.0302734 25.6029 1.30761 26.8803 2.88328 26.8803H4.91461V26.9092V30.0482C4.91461 31.6239 6.19194 32.9012 7.76761 32.9012H23.5621C25.1377 32.9012 26.4151 31.6239 26.4151 30.0482V26.9092V26.8803H28.4462C30.0219 26.8803 31.2992 25.6029 31.2992 24.0272V12.3669C31.2992 10.7913 30.0219 9.51392 28.4462 9.51392H25.0419V9.43349V4.89097C25.0419 4.64437 24.9461 4.40741 24.7748 4.23009L21.3342 0.670001C21.155 0.484587 20.9082 0.379883 20.6503 0.379883H7.23868ZM28.4462 10.7502H2.88328C1.9904 10.7502 1.26658 11.474 1.26658 12.3669V24.0272C1.26658 24.9201 1.9904 25.6439 2.88328 25.6439H28.4462C29.3391 25.6439 30.0629 24.9201 30.0629 24.0272V12.3669C30.0629 11.474 29.3391 10.7502 28.4462 10.7502ZM4.29645 21.2136C4.29645 20.8722 4.57321 20.5954 4.91461 20.5954H10.027C10.3684 20.5954 10.6452 20.8722 10.6452 21.2136C10.6452 21.555 10.3684 21.8317 10.027 21.8317H4.91461C4.57321 21.8317 4.29645 21.555 4.29645 21.2136ZM4.91461 17.579C4.57321 17.579 4.29645 17.8558 4.29645 18.1972C4.29645 18.5386 4.57321 18.8153 4.91461 18.8153H10.027C10.3684 18.8153 10.6452 18.5386 10.6452 18.1972C10.6452 17.8558 10.3684 17.579 10.027 17.579H4.91461ZM10.7858 5.49429C10.4444 5.49429 10.1677 5.77104 10.1677 6.11244C10.1677 6.45383 10.4444 6.73059 10.7858 6.73059H20.5435C20.8849 6.73059 21.1616 6.45383 21.1616 6.11244C21.1616 5.77104 20.8849 5.49429 20.5435 5.49429H10.7858ZM25.1788 26.9092H6.15091V30.0482C6.15091 30.9411 6.87473 31.6649 7.76761 31.6649H23.5621C24.455 31.6649 25.1788 30.9411 25.1788 30.0482V26.9092ZM25.974 16.2214C26.4888 16.2214 26.9061 15.804 26.9061 15.2892C26.9061 14.7744 26.4888 14.357 25.974 14.357C25.4592 14.357 25.0418 14.7744 25.0418 15.2892C25.0418 15.804 25.4592 16.2214 25.974 16.2214Z" fill="white"/>
</svg>
