<svg width="25" height="25" viewBox="0 0 25 25" fill="none" xmlns="http://www.w3.org/2000/svg">
<path d="M6.62543 10.1389C6.38809 10.1389 6.15608 10.2093 5.95874 10.3412C5.7614 10.473 5.6076 10.6604 5.51677 10.8797C5.42595 11.099 5.40218 11.3403 5.44848 11.573C5.49479 11.8058 5.60908 12.0196 5.7769 12.1875C5.94472 12.3553 6.15854 12.4696 6.39132 12.5159C6.6241 12.5622 6.86538 12.5384 7.08465 12.4476C7.30392 12.3568 7.49133 12.203 7.62319 12.0056C7.75505 11.8083 7.82543 11.5763 7.82543 11.3389C7.82543 11.0207 7.699 10.7155 7.47395 10.4904C7.24891 10.2654 6.94369 10.1389 6.62543 10.1389ZM21.0254 5.33894H19.8254V1.73894C19.8254 1.42068 19.699 1.11546 19.474 0.890412C19.2489 0.665369 18.9437 0.53894 18.6254 0.53894H6.62543C6.30717 0.53894 6.00194 0.665369 5.7769 0.890412C5.55186 1.11546 5.42543 1.42068 5.42543 1.73894V5.33894H4.22543C3.27065 5.33894 2.35497 5.71823 1.67984 6.39336C1.00471 7.06849 0.625427 7.98416 0.625427 8.93894V16.1389C0.625427 17.0937 1.00471 18.0094 1.67984 18.6845C2.35497 19.3597 3.27065 19.7389 4.22543 19.7389H5.42543V23.3389C5.42543 23.6572 5.55186 23.9624 5.7769 24.1875C6.00194 24.4125 6.30717 24.5389 6.62543 24.5389H18.6254C18.9437 24.5389 19.2489 24.4125 19.474 24.1875C19.699 23.9624 19.8254 23.6572 19.8254 23.3389V19.7389H21.0254C21.9802 19.7389 22.8959 19.3597 23.571 18.6845C24.2461 18.0094 24.6254 17.0937 24.6254 16.1389V8.93894C24.6254 7.98416 24.2461 7.06849 23.571 6.39336C22.8959 5.71823 21.9802 5.33894 21.0254 5.33894ZM7.82543 2.93894H17.4254V5.33894H7.82543V2.93894ZM17.4254 22.1389H7.82543V17.3389H17.4254V22.1389ZM22.2254 16.1389C22.2254 16.4572 22.099 16.7624 21.874 16.9875C21.6489 17.2125 21.3437 17.3389 21.0254 17.3389H19.8254V16.1389C19.8254 15.8207 19.699 15.5155 19.474 15.2904C19.2489 15.0654 18.9437 14.9389 18.6254 14.9389H6.62543C6.30717 14.9389 6.00194 15.0654 5.7769 15.2904C5.55186 15.5155 5.42543 15.8207 5.42543 16.1389V17.3389H4.22543C3.90717 17.3389 3.60194 17.2125 3.3769 16.9875C3.15186 16.7624 3.02543 16.4572 3.02543 16.1389V8.93894C3.02543 8.62068 3.15186 8.31546 3.3769 8.09041C3.60194 7.86537 3.90717 7.73894 4.22543 7.73894H21.0254C21.3437 7.73894 21.6489 7.86537 21.874 8.09041C22.099 8.31546 22.2254 8.62068 22.2254 8.93894V16.1389Z" fill="white"/>
</svg>
