<svg width="19" height="14" viewBox="0 0 19 14" fill="none" xmlns="http://www.w3.org/2000/svg">
<path fill-rule="evenodd" clip-rule="evenodd" d="M5.1959 0.631836C5.55488 0.631836 5.8459 0.922852 5.8459 1.28184V11.0915L8.61909 8.31834C8.87294 8.0645 9.28449 8.0645 9.53833 8.31834C9.79217 8.57218 9.79217 8.98374 9.53833 9.23758L5.65552 13.1204C5.53115 13.2448 5.36893 13.3082 5.20595 13.3107L5.1959 13.3108L5.18585 13.3107C5.10169 13.3094 5.0214 13.2922 4.9479 13.2618C4.87093 13.2301 4.79882 13.183 4.73628 13.1204L0.853467 9.23758C0.599626 8.98374 0.599626 8.57218 0.853467 8.31834C1.10731 8.0645 1.51886 8.0645 1.77271 8.31834L4.5459 11.0915V1.28184C4.5459 0.922852 4.83691 0.631836 5.1959 0.631836ZM9.65571 5.62429C9.90956 5.87813 10.3211 5.87813 10.575 5.62429L13.3481 2.85108V12.6608C13.3481 13.0198 13.6392 13.3108 13.9981 13.3108C14.3571 13.3108 14.6481 13.0198 14.6481 12.6608V2.85108L17.4213 5.62429C17.6752 5.87813 18.0867 5.87813 18.3406 5.62429C18.5944 5.37045 18.5944 4.95889 18.3406 4.70504L14.4578 0.822217C14.3953 0.759723 14.3232 0.712615 14.2463 0.680892C14.1716 0.649999 14.0899 0.632638 14.0041 0.631863L13.9981 0.631836L13.9921 0.631863C13.8278 0.633371 13.6639 0.696822 13.5385 0.822217L9.65571 4.70504C9.40187 4.95889 9.40187 5.37045 9.65571 5.62429Z" fill="white"/>
</svg>
