<svg width="27" height="27" viewBox="0 0 27 27" fill="none" xmlns="http://www.w3.org/2000/svg">
<path fill-rule="evenodd" clip-rule="evenodd" d="M24.4179 13.0265C24.4179 18.9376 19.5946 23.7296 13.6448 23.7296C7.69505 23.7296 2.8718 18.9376 2.8718 13.0265C2.8718 7.11529 7.69505 2.32333 13.6448 2.32333C19.5946 2.32333 24.4179 7.11529 24.4179 13.0265ZM21.9395 22.684C19.7073 24.5782 16.8105 25.7219 13.6448 25.7219C6.58756 25.7219 0.866516 20.0379 0.866516 13.0265C0.866516 6.01498 6.58756 0.331055 13.6448 0.331055C20.7021 0.331055 26.4231 6.01498 26.4231 13.0265C26.4231 16.1755 25.2692 19.0567 23.3584 21.2754L26.5901 24.6481C26.9719 25.0465 26.9563 25.6771 26.5552 26.0564C26.1541 26.4357 25.5195 26.4202 25.1377 26.0218L21.9395 22.684Z" fill="#454545"/>
</svg>
