<svg width="23" height="25" viewBox="0 0 23 25" fill="none" xmlns="http://www.w3.org/2000/svg">
<path fill-rule="evenodd" clip-rule="evenodd" d="M13.9614 1.87176C13.8186 1.29896 13.3042 0.896973 12.7138 0.896973H10.0541C9.46177 0.896973 8.94611 1.3016 8.80524 1.8769L8.30096 3.93636C8.23347 4.21198 8.03279 4.43375 7.7722 4.54607C7.09855 4.83642 6.46693 5.20506 5.88876 5.64037C5.66087 5.81194 5.36695 5.87591 5.09308 5.79613L3.21158 5.24803C2.64292 5.08238 2.03467 5.32664 1.73853 5.83958L0.40864 8.14302C0.11348 8.65425 0.204377 9.30079 0.629057 9.71082L2.03961 11.0727C2.24408 11.2701 2.33459 11.5558 2.29988 11.8379C2.25429 12.2084 2.23084 12.5855 2.23084 12.9678C2.23084 13.3428 2.25341 13.7129 2.29731 14.0766C2.33143 14.3594 2.23982 14.6454 2.03412 14.8423L0.619178 16.1973C0.191388 16.6069 0.098799 17.2558 0.394946 17.7687L1.72483 20.0722C2.01999 20.5834 2.62537 20.828 3.1928 20.6652L5.07804 20.1244C5.35168 20.0459 5.64474 20.1107 5.87176 20.2824C6.46457 20.7309 7.11389 21.1092 7.80734 21.4046C8.06965 21.5164 8.27189 21.7388 8.3397 22.0158L8.80524 23.917C8.94611 24.4923 9.46177 24.897 10.0541 24.897H12.7138C13.3042 24.897 13.8186 24.495 13.9614 23.9222L14.4352 22.0212C14.504 21.7451 14.7065 21.5238 14.9685 21.4129C15.6693 21.1162 16.3252 20.7351 16.9236 20.2824C17.1506 20.1107 17.4436 20.0459 17.7173 20.1244L19.6026 20.6652C20.17 20.828 20.7754 20.5834 21.0706 20.0722L22.4004 17.7687C22.6966 17.2558 22.604 16.6069 22.1762 16.1973L20.7612 14.8423C20.5555 14.6453 20.4639 14.3593 20.498 14.0766C20.5419 13.7128 20.5644 13.3428 20.5644 12.9678C20.5644 12.5855 20.541 12.2084 20.4954 11.8379C20.4607 11.5558 20.5512 11.2702 20.7557 11.0728L22.1663 9.71082C22.591 9.30079 22.6819 8.65425 22.3867 8.14302L21.0569 5.83958C20.7607 5.32664 20.1525 5.08238 19.5838 5.24803L17.7022 5.79615C17.4284 5.87593 17.1344 5.81196 16.9066 5.64039C16.323 5.20103 15.685 4.82958 15.0043 4.538C14.744 4.42651 14.5431 4.20588 14.4746 3.93112L13.9614 1.87176ZM9.17013 5.85363C9.45666 5.76402 9.67542 5.53103 9.74682 5.23942L10.2304 3.26454C10.3243 2.88101 10.6681 2.61126 11.0629 2.61126H11.7092C12.1028 2.61126 12.4458 2.87925 12.5409 3.26112L13.0336 5.23796C13.1061 5.52863 13.325 5.7604 13.6111 5.84925C14.6878 6.18365 15.661 6.75623 16.4685 7.50637C16.6894 7.71163 17.002 7.78567 17.2916 7.70132L19.0946 7.17607C19.4738 7.06563 19.8793 7.22847 20.0767 7.57043L20.3998 8.13014C20.5966 8.47096 20.536 8.90199 20.2529 9.17535L18.9006 10.481C18.6843 10.6898 18.5933 10.9967 18.6607 11.2897C18.7845 11.8283 18.8502 12.3898 18.8502 12.9678C18.8502 13.5404 18.7857 14.0969 18.6641 14.6308C18.5972 14.9246 18.6894 15.2319 18.907 15.4403L20.2619 16.7377C20.5471 17.0108 20.6088 17.4433 20.4114 17.7853L20.0882 18.345C19.8915 18.6858 19.4879 18.8489 19.1096 18.7404L17.3009 18.2215C17.0116 18.1385 16.6999 18.2134 16.4798 18.4187C15.6616 19.182 14.6723 19.7625 13.5768 20.0969C13.2889 20.1848 13.0682 20.4173 12.9954 20.7094L12.5409 22.5328C12.4458 22.9147 12.1028 23.1827 11.7092 23.1827H11.0629C10.6681 23.1827 10.3243 22.9129 10.2304 22.5294L9.78436 20.7078C9.71261 20.4148 9.49211 20.1811 9.20376 20.0924C8.11418 19.7573 7.13007 19.1786 6.31546 18.4187C6.09538 18.2134 5.78376 18.1386 5.49446 18.2215L3.68579 18.7404C3.3075 18.8489 2.90392 18.6858 2.70714 18.345L2.384 17.7853C2.18657 17.4433 2.24829 17.0108 2.53348 16.7377L3.88827 15.4403C4.10588 15.232 4.1981 14.9246 4.13118 14.6309C4.00954 14.0969 3.94512 13.5404 3.94512 12.9678C3.94512 12.3898 4.01076 11.8282 4.13464 11.2896C4.20203 10.9966 4.11097 10.6897 3.89467 10.4809L2.5425 9.17535C2.25938 8.90199 2.19878 8.47096 2.39556 8.13014L2.7187 7.57043C2.91613 7.22847 3.32163 7.06563 3.70074 7.17607L5.50373 7.7013C5.79329 7.78565 6.10587 7.71161 6.32683 7.50635C7.13081 6.75949 8.09898 6.18863 9.17013 5.85363ZM14.9306 12.8969C14.9306 14.8481 13.3489 16.4298 11.3977 16.4298C9.4466 16.4298 7.8649 14.8481 7.8649 12.8969C7.8649 10.9458 9.4466 9.36408 11.3977 9.36408C13.3489 9.36408 14.9306 10.9458 14.9306 12.8969ZM16.6448 12.8969C16.6448 15.7948 14.2956 18.144 11.3977 18.144C8.49983 18.144 6.15061 15.7948 6.15061 12.8969C6.15061 9.99901 8.49983 7.6498 11.3977 7.6498C14.2956 7.6498 16.6448 9.99901 16.6448 12.8969Z" fill="white"/>
</svg>
