<svg width="25" height="25" viewBox="0 0 25 25" fill="none" xmlns="http://www.w3.org/2000/svg">
<path fill-rule="evenodd" clip-rule="evenodd" d="M14.8993 1.58497C13.7012 1.57999 12.5234 1.8941 11.4869 2.49502C10.4504 3.09593 9.59259 3.96199 9.00162 5.00418C8.55922 5.78436 8.2783 6.64218 8.17191 7.52676H12.3151H13.6151V8.82676V14.2658V15.3415L15.7548 11.6353L16.5054 10.3353L17.256 11.6353L18.5971 13.9582C19.4124 13.4182 20.1029 12.7058 20.6181 11.8685C21.246 10.8481 21.5908 9.67896 21.6172 8.48116C21.6436 7.28336 21.3506 6.10013 20.7683 5.05306C20.186 4.00599 19.3354 3.13284 18.304 2.52334C17.2725 1.91383 16.0973 1.58995 14.8993 1.58497ZM19.2481 15.0858C20.2497 14.4367 21.0969 13.5712 21.7253 12.5498C22.4741 11.3328 22.8854 9.93836 22.9169 8.5098C22.9484 7.08123 22.5989 5.67004 21.9044 4.42124C21.21 3.17244 20.1955 2.13107 18.9653 1.40414C17.7351 0.6772 16.3336 0.290918 14.9047 0.284982C13.4758 0.279046 12.071 0.65367 10.8349 1.37036C9.59867 2.08705 8.5756 3.11996 7.87077 4.36294C7.3173 5.339 6.97574 6.41697 6.86406 7.52676H1.78486H0.484863V8.82676V19.7048V21.0048H1.78486H7.04997H10.3325H10.3454L9.20216 22.9849L8.4516 24.2849H9.95271H23.0581H24.5592L23.8086 22.9849L19.2481 15.0858ZM12.3151 8.82676H1.78486V19.7048H7.04997H10.3325H10.942L12.3151 17.2914V14.2658V8.82676ZM10.7033 22.9849L16.5054 12.9353L22.3075 22.9849H10.7033Z" fill="#F36523"/>
</svg>
