<svg width="18" height="17" viewBox="0 0 18 17" fill="none" xmlns="http://www.w3.org/2000/svg">
<path fill-rule="evenodd" clip-rule="evenodd" d="M0.591074 2.27225C0.166634 2.40915 0.120203 2.99115 0.51757 3.19361L6.85297 6.42157C7.9413 6.97609 9.22335 7.00295 10.334 6.4945L16.9024 3.48738C17.3125 3.29962 17.2839 2.7076 16.8576 2.56021L10.4704 0.351836C9.24078 -0.0733181 7.90624 -0.0872451 6.66797 0.312155L0.591074 2.27225ZM2.89184 6.0724L0.610317 6.8083C0.185877 6.9452 0.139446 7.5272 0.536813 7.72966L6.87221 10.9576C7.96054 11.5121 9.24259 11.539 10.3532 11.0306L16.9216 8.02343C17.3318 7.83567 17.3032 7.24365 16.8769 7.09626L14.5006 6.27465L10.3532 8.17338C9.24259 8.68183 7.96055 8.65497 6.87221 8.10045L2.89184 6.0724ZM2.89182 10.7345L0.610317 11.4704C0.185877 11.6073 0.139446 12.1893 0.536813 12.3917L6.87221 15.6197C7.96054 16.1742 9.24259 16.2011 10.3532 15.6926L16.9216 12.6855C17.3318 12.4977 17.3032 11.9057 16.8769 11.7583L14.5006 10.9367L10.3532 12.8355C9.24259 13.3439 7.96055 13.3171 6.87221 12.7625L2.89182 10.7345Z" fill="#D9D9D9"/>
</svg>
