<svg width="18" height="18" viewBox="0 0 18 18" fill="none" xmlns="http://www.w3.org/2000/svg">
<path d="M7.89013 1.62555C8.28557 0.776071 9.49337 0.776073 9.8888 1.62556L11.6827 5.47935C11.8441 5.82604 12.1737 6.06432 12.5535 6.10894L16.7895 6.6066C17.7266 6.7167 18.1012 7.87662 17.4055 8.51407L14.2875 11.3713C14.003 11.6319 13.8756 12.0224 13.9514 12.4007L14.7812 16.5386C14.9659 17.4598 13.9873 18.175 13.1657 17.7193L9.42413 15.644C9.09155 15.4595 8.68738 15.4595 8.3548 15.644L4.61319 17.7193C3.79158 18.175 2.81302 17.4598 2.99774 16.5386L3.8275 12.4007C3.90337 12.0224 3.7759 11.6319 3.49143 11.3713L0.373382 8.51407C-0.322271 7.87662 0.0523711 6.7167 0.989472 6.6066L5.22547 6.10894C5.60527 6.06432 5.9348 5.82604 6.09619 5.47935L7.89013 1.62555Z" fill="#F36523"/>
</svg>
