<svg width="25" height="25" viewBox="0 0 25 25" fill="none" xmlns="http://www.w3.org/2000/svg">
<path fill-rule="evenodd" clip-rule="evenodd" d="M0.858398 12.299C0.858398 5.6706 6.23181 0.297195 12.8602 0.297195C19.4887 0.297195 24.8621 5.6706 24.8621 12.299V16.7572L24.8622 16.7573C24.8621 20.9225 21.4855 24.2991 17.3202 24.2991H14.5714V24.2981H12.7201C11.98 24.2981 11.3801 23.6982 11.3801 22.9582C11.3801 22.2181 11.98 21.6182 12.7201 21.6182H15.2259C15.9659 21.6182 16.5658 22.2181 16.5658 22.9582C16.5658 22.9719 16.5656 22.9855 16.5652 22.9991H17.3202C19.8315 22.9991 21.9964 21.516 22.9869 19.378C22.9261 19.3836 22.8645 19.3864 22.8022 19.3864H20.5002C19.3956 19.3864 18.5002 18.491 18.5002 17.3864V11.9623C18.5002 10.8577 19.3956 9.96231 20.5002 9.96231H22.8022C22.9817 9.96231 23.1557 9.98595 23.3211 10.0303C22.2805 5.20955 17.9923 1.5972 12.8602 1.5972C7.73265 1.5972 3.44731 5.20336 2.40205 10.0179C2.55282 9.98155 2.71025 9.96231 2.87217 9.96231H5.17425C6.27882 9.96231 7.17425 10.8577 7.17425 11.9623V17.3864C7.17425 18.491 6.27882 19.3864 5.17425 19.3864H2.87217C1.7676 19.3864 0.872168 18.491 0.872168 17.3864V16.7572H0.858398V12.299ZM20.5002 11.2623H22.8022C23.1888 11.2623 23.5022 11.5757 23.5022 11.9623V17.3864C23.5022 17.773 23.1888 18.0864 22.8022 18.0864H20.5002C20.1136 18.0864 19.8002 17.773 19.8002 17.3864V11.9623C19.8002 11.5757 20.1136 11.2623 20.5002 11.2623ZM5.17425 11.2623H2.87217C2.48557 11.2623 2.17217 11.5757 2.17217 11.9623V17.3864C2.17217 17.773 2.48557 18.0864 2.87217 18.0864H5.17425C5.56085 18.0864 5.87425 17.773 5.87425 17.3864V11.9623C5.87425 11.5757 5.56085 11.2623 5.17425 11.2623Z" fill="#F36523"/>
</svg>
