<svg width="25" height="24" viewBox="0 0 25 24" fill="none" xmlns="http://www.w3.org/2000/svg">
<path fill-rule="evenodd" clip-rule="evenodd" d="M12.3129 0.887888C12.5449 0.686411 12.8897 0.686411 13.1217 0.887888V0.887888L21.149 7.86111C21.4061 8.08443 21.4334 8.47388 21.2101 8.73097C20.9868 8.98805 20.5973 9.01542 20.3403 8.79209L13.3339 2.70577V14.7053C13.3339 15.0459 13.0578 15.3219 12.7173 15.3219C12.3767 15.3219 12.1007 15.0459 12.1007 14.7053V2.70577L5.09431 8.79209C4.83722 9.01542 4.44777 8.98805 4.22445 8.73097C4.00112 8.47388 4.02849 8.08443 4.28557 7.86111L12.3129 0.887888V0.887888ZM1.95049 13.8405C1.95049 13.5 1.67443 13.2239 1.33389 13.2239C0.993347 13.2239 0.717285 13.5 0.717285 13.8405V17.6731C0.717285 21.1571 3.54161 23.9814 7.02559 23.9814H18.409C21.893 23.9814 24.7173 21.1571 24.7173 17.6731V13.8405C24.7173 13.5 24.4412 13.2239 24.1007 13.2239C23.7601 13.2239 23.4841 13.5 23.4841 13.8405V17.6731C23.4841 20.476 21.2119 22.7482 18.409 22.7482H7.02559C4.22269 22.7482 1.95049 20.476 1.95049 17.6731V13.8405Z" fill="#F36523"/>
</svg>
