<svg width="22" height="26" viewBox="0 0 22 26" fill="none" xmlns="http://www.w3.org/2000/svg">
<path fill-rule="evenodd" clip-rule="evenodd" d="M10.9322 11.3296C13.8013 11.3296 16.1271 9.00373 16.1271 6.13469C16.1271 3.26564 13.8013 0.939819 10.9322 0.939819C8.06317 0.939819 5.73735 3.26564 5.73735 6.13469C5.73735 9.00373 8.06317 11.3296 10.9322 11.3296ZM21.5716 22.9765C22.0162 24.5726 20.6334 25.9398 18.9766 25.9398H10.9323L2.88796 25.9398C1.23111 25.9398 -0.151693 24.5726 0.292906 22.9765C0.798827 21.1603 1.76609 19.487 3.12277 18.1303C5.19398 16.0591 8.00314 14.8955 10.9323 14.8955C13.8614 14.8955 16.6706 16.0591 18.7418 18.1303C20.0985 19.487 21.0657 21.1603 21.5716 22.9765Z" fill="#CBCBCB"/>
</svg>
