<svg width="23" height="26" viewBox="0 0 23 26" fill="none" xmlns="http://www.w3.org/2000/svg">
<path fill-rule="evenodd" clip-rule="evenodd" d="M14.993 6.55542C14.993 8.58267 13.3496 10.2261 11.3224 10.2261C9.29513 10.2261 7.65172 8.58267 7.65172 6.55542C7.65172 4.52817 9.29513 2.88477 11.3224 2.88477C13.3496 2.88477 14.993 4.52817 14.993 6.55542ZM16.993 6.55542C16.993 9.68724 14.4542 12.2261 11.3224 12.2261C8.19056 12.2261 5.65172 9.68724 5.65172 6.55542C5.65172 3.4236 8.19056 0.884766 11.3224 0.884766C14.4542 0.884766 16.993 3.4236 16.993 6.55542ZM17.8816 18.6671C19.1418 19.9273 20.002 21.5129 20.3804 23.2263H11.3224L2.26438 23.2263C2.64275 21.5129 3.50295 19.9273 4.76316 18.6671C6.50278 16.9275 8.86219 15.9502 11.3224 15.9502C13.7826 15.9502 16.142 16.9275 17.8816 18.6671ZM21.5985 25.2263C22.1508 25.2263 22.6031 24.7777 22.5542 24.2275C22.3209 21.6031 21.1738 19.1309 19.2958 17.2529C17.1811 15.1382 14.313 13.9502 11.3224 13.9502C8.33176 13.9502 5.46363 15.1382 3.34895 17.2529C1.47098 19.1309 0.323825 21.6031 0.0905399 24.2275C0.0416413 24.7777 0.493965 25.2263 1.04625 25.2263L11.3224 25.2263H21.5985Z" fill="#454545"/>
</svg>
