<svg width="20" height="20" viewBox="0 0 20 20" fill="none" xmlns="http://www.w3.org/2000/svg">
<path d="M16.5923 2.12101H14.6652V1.15743C14.6652 0.901872 14.5636 0.656781 14.3829 0.476074C14.2022 0.295368 13.9571 0.193848 13.7016 0.193848C13.446 0.193848 13.2009 0.295368 13.0202 0.476074C12.8395 0.656781 12.738 0.901872 12.738 1.15743V2.12101H6.9565V1.15743C6.9565 0.901872 6.85498 0.656781 6.67427 0.476074C6.49357 0.295368 6.24847 0.193848 5.99292 0.193848C5.73736 0.193848 5.49227 0.295368 5.31156 0.476074C5.13086 0.656781 5.02934 0.901872 5.02934 1.15743V2.12101H3.10217C2.3355 2.12101 1.60023 2.42557 1.05811 2.96769C0.515986 3.50981 0.211426 4.24508 0.211426 5.01176V16.5747C0.211426 17.3414 0.515986 18.0767 1.05811 18.6188C1.60023 19.1609 2.3355 19.4655 3.10217 19.4655H16.5923C17.359 19.4655 18.0943 19.1609 18.6364 18.6188C19.1785 18.0767 19.4831 17.3414 19.4831 16.5747V5.01176C19.4831 4.24508 19.1785 3.50981 18.6364 2.96769C18.0943 2.42557 17.359 2.12101 16.5923 2.12101ZM17.5559 16.5747C17.5559 16.8303 17.4544 17.0754 17.2737 17.2561C17.093 17.4368 16.8479 17.5383 16.5923 17.5383H3.10217C2.84661 17.5383 2.60152 17.4368 2.42082 17.2561C2.24011 17.0754 2.13859 16.8303 2.13859 16.5747V9.82967H17.5559V16.5747ZM17.5559 7.9025H2.13859V5.01176C2.13859 4.7562 2.24011 4.51111 2.42082 4.3304C2.60152 4.1497 2.84661 4.04818 3.10217 4.04818H5.02934V5.01176C5.02934 5.26731 5.13086 5.51241 5.31156 5.69311C5.49227 5.87382 5.73736 5.97534 5.99292 5.97534C6.24847 5.97534 6.49357 5.87382 6.67427 5.69311C6.85498 5.51241 6.9565 5.26731 6.9565 5.01176V4.04818H12.738V5.01176C12.738 5.26731 12.8395 5.51241 13.0202 5.69311C13.2009 5.87382 13.446 5.97534 13.7016 5.97534C13.9571 5.97534 14.2022 5.87382 14.3829 5.69311C14.5636 5.51241 14.6652 5.26731 14.6652 5.01176V4.04818H16.5923C16.8479 4.04818 17.093 4.1497 17.2737 4.3304C17.4544 4.51111 17.5559 4.7562 17.5559 5.01176V7.9025Z" fill="#F36523"/>
</svg>
