<svg width="25" height="22" viewBox="0 0 25 22" fill="none" xmlns="http://www.w3.org/2000/svg">
<path fill-rule="evenodd" clip-rule="evenodd" d="M14.0533 1.82039C14.2359 1.53295 14.1509 1.1519 13.8635 0.969284C13.576 0.786665 13.195 0.871633 13.0124 1.15907L0.644499 20.6254C0.523857 20.8153 0.516205 21.0558 0.624533 21.253C0.732861 21.4502 0.939973 21.5727 1.16494 21.5727H23.9317C24.2723 21.5727 24.5483 21.2966 24.5483 20.9561C24.5483 20.6155 24.2723 20.3395 23.9317 20.3395H2.28722L14.0533 1.82039ZM11.9455 7.66442C11.6159 7.57909 11.2794 7.77716 11.1941 8.10684C11.1088 8.43651 11.3068 8.77294 11.6365 8.85828C11.9482 8.93896 12.3053 9.05653 12.6917 9.21472C13.0069 9.34374 13.367 9.19285 13.496 8.8777C13.625 8.56255 13.4741 8.20248 13.159 8.07346C12.7255 7.89601 12.3156 7.7602 11.9455 7.66442ZM15.3767 9.26776C15.0947 9.07674 14.7114 9.15044 14.5203 9.43237C14.3293 9.71429 14.403 10.0977 14.685 10.2887C15.2782 10.6906 15.8702 11.1739 16.4203 11.7445C16.6567 11.9896 17.047 11.9968 17.2922 11.7604C17.5373 11.524 17.5444 11.1337 17.3081 10.8885C16.693 10.2506 16.0339 9.71306 15.3767 9.26776ZM18.8496 12.8962C18.6746 12.604 18.2959 12.509 18.0038 12.684C17.7116 12.859 17.6166 13.2377 17.7916 13.5298C18.1602 14.1452 18.4745 14.8269 18.7107 15.5794C18.8127 15.9043 19.1588 16.0851 19.4837 15.9831C19.8086 15.8811 19.9893 15.535 19.8873 15.2101C19.621 14.3615 19.266 13.5915 18.8496 12.8962ZM20.371 17.6899C20.3419 17.3506 20.0432 17.0992 19.7039 17.1283C19.3646 17.1574 19.1132 17.4561 19.1423 17.7954C19.1737 18.1611 19.1881 18.5404 19.1837 18.9336C19.18 19.2741 19.4529 19.5532 19.7934 19.557C20.134 19.5608 20.4131 19.2878 20.4169 18.9473C20.4217 18.5151 20.4058 18.096 20.371 17.6899Z" fill="#CBCBCB"/>
</svg>
