<svg width="25" height="25" viewBox="0 0 25 25" fill="none" xmlns="http://www.w3.org/2000/svg">
<path fill-rule="evenodd" clip-rule="evenodd" d="M4.49174 0.457265C4.57466 0.562178 4.62422 0.694884 4.62422 0.839169V23.6061C4.62422 23.9466 4.34815 24.2227 4.0077 24.2227C3.66726 24.2227 3.39119 23.9466 3.39119 23.6061V0.839169C3.39119 0.498721 3.66726 0.222656 4.0077 0.222656C4.08019 0.222656 4.14967 0.235163 4.21429 0.258091C4.32453 0.297231 4.42041 0.367173 4.49174 0.457265ZM12.1386 0.839169C12.1386 0.498721 11.8626 0.222656 11.5221 0.222656C11.1817 0.222656 10.9056 0.498721 10.9056 0.839169V23.6061C10.9056 23.9466 11.1817 24.2227 11.5221 24.2227C11.8626 24.2227 12.1386 23.9466 12.1386 23.6061V0.839169ZM22.8532 1.97747C22.8532 1.68936 22.6195 1.45568 22.3314 1.45568H15.5013C15.2132 1.45568 14.9795 1.68936 14.9795 1.97747V8.80752C14.9795 9.09586 15.2132 9.32931 15.5013 9.32931H22.3314C22.6195 9.32931 22.8532 9.09586 22.8532 8.80752V1.97747ZM22.3314 0.222656C23.3006 0.222656 24.0864 1.00824 24.0864 1.97747V8.80752C24.0864 9.77675 23.3006 10.5626 22.3314 10.5626H15.5013C14.5321 10.5626 13.7465 9.77675 13.7465 8.80752V1.97747C13.7465 1.00824 14.5321 0.222656 15.5013 0.222656H22.3314ZM22.8532 14.4993C22.8532 14.1588 23.1292 13.8827 23.4697 13.8827C23.8104 13.8827 24.0864 14.1588 24.0864 14.4993V19.0527C24.0864 19.3934 23.8104 19.6694 23.4697 19.6694C23.2837 19.6694 23.117 19.587 23.0039 19.4566C22.9099 19.3485 22.8532 19.2072 22.8532 19.0527V14.4993ZM18.9165 13.8827C18.5758 13.8827 18.2997 14.1588 18.2997 14.4993V16.1594H14.363C14.1479 16.1594 13.9584 16.2696 13.8482 16.4368C13.8178 16.4827 13.7935 16.5329 13.7762 16.5864C13.7569 16.6462 13.7465 16.7099 13.7465 16.7761C13.7465 17.1165 14.0226 17.3926 14.363 17.3926H18.2997V23.6061C18.2997 23.8053 18.3942 23.9825 18.541 24.0953C18.645 24.1752 18.7752 24.2227 18.9165 24.2227H23.4697C23.8104 24.2227 24.0864 23.9466 24.0864 23.6061C24.0864 23.2657 23.8104 22.9896 23.4697 22.9896H19.533V16.7761V14.4993C19.533 14.3408 19.4732 14.1966 19.375 14.0872C19.2622 13.9617 19.0985 13.8827 18.9165 13.8827ZM14.363 20.7128C14.0226 20.7128 13.7465 20.9889 13.7465 21.3293V23.6061C13.7465 23.9466 14.0226 24.2227 14.363 24.2227C14.5418 24.2227 14.7028 24.1465 14.8153 24.0249C14.9172 23.9149 14.9795 23.7678 14.9795 23.6061V21.3293C14.9795 20.9889 14.7035 20.7128 14.363 20.7128ZM8.40667 0.29422C7.8828 0.29422 7.45805 0.71897 7.45805 1.24284V23.2481C7.45805 23.772 7.8828 24.1967 8.40667 24.1967H8.836C9.35988 24.1967 9.78463 23.772 9.78463 23.2481V1.24284C9.78463 0.71897 9.35988 0.29422 8.836 0.29422H8.40667ZM5.54875 0.6972C5.54875 0.474634 5.72917 0.29422 5.95173 0.29422C6.08421 0.29422 6.20163 0.357909 6.27504 0.45657C6.32507 0.523733 6.35471 0.607108 6.35471 0.6972V23.7937C6.35471 24.0163 6.1743 24.1967 5.95173 24.1967C5.72917 24.1967 5.54875 24.0163 5.54875 23.7937V0.6972ZM1.27138 0.29422C0.747504 0.29422 0.322754 0.71897 0.322754 1.24284V23.2481C0.322754 23.772 0.747504 24.1967 1.27138 24.1967H1.62202C2.14589 24.1967 2.57064 23.772 2.57064 23.2481V1.24284C2.57064 0.71897 2.14589 0.29422 1.62202 0.29422H1.27138Z" fill="#454545"/>
</svg>
