<svg width="47" height="48" viewBox="0 0 47 48" fill="none" xmlns="http://www.w3.org/2000/svg">
<path d="M37.0525 39.7315H9.76639C9.24948 39.7315 8.75374 39.9369 8.38823 40.3024C8.02272 40.6679 7.81738 41.1636 7.81738 41.6805C7.81738 42.1974 8.02272 42.6932 8.38823 43.0587C8.75374 43.4242 9.24948 43.6295 9.76639 43.6295H37.0525C37.5694 43.6295 38.0651 43.4242 38.4306 43.0587C38.7961 42.6932 39.0015 42.1974 39.0015 41.6805C39.0015 41.1636 38.7961 40.6679 38.4306 40.3024C38.0651 39.9369 37.5694 39.7315 37.0525 39.7315ZM22.0256 35.2683C22.211 35.4457 22.4296 35.5848 22.6688 35.6776C22.9021 35.7807 23.1544 35.834 23.4094 35.834C23.6645 35.834 23.9168 35.7807 24.1501 35.6776C24.3893 35.5848 24.6079 35.4457 24.7932 35.2683L32.5893 27.4723C32.9563 27.1053 33.1624 26.6075 33.1624 26.0885C33.1624 25.5695 32.9563 25.0717 32.5893 24.7047C32.2222 24.3377 31.7245 24.1315 31.2055 24.1315C30.6864 24.1315 30.1887 24.3377 29.8217 24.7047L25.3584 29.1874V6.59842C25.3584 6.08151 25.1531 5.58577 24.7876 5.22026C24.4221 4.85476 23.9263 4.64941 23.4094 4.64941C22.8925 4.64941 22.3968 4.85476 22.0313 5.22026C21.6658 5.58577 21.4604 6.08151 21.4604 6.59842V29.1874L16.9972 24.7047C16.8155 24.523 16.5997 24.3788 16.3623 24.2805C16.1249 24.1821 15.8704 24.1315 15.6134 24.1315C15.3564 24.1315 15.1019 24.1821 14.8645 24.2805C14.6271 24.3788 14.4113 24.523 14.2296 24.7047C14.0479 24.8864 13.9037 25.1021 13.8054 25.3396C13.707 25.577 13.6564 25.8315 13.6564 26.0885C13.6564 26.3455 13.707 26.6 13.8054 26.8374C13.9037 27.0748 14.0479 27.2906 14.2296 27.4723L22.0256 35.2683Z" fill="#CBCBCB"/>
</svg>
