<svg width="48" height="48" viewBox="0 0 48 48" fill="none" xmlns="http://www.w3.org/2000/svg">
<path d="M38.9254 22.4446L11.6393 6.69666C11.3431 6.5256 11.007 6.43555 10.6648 6.43555C10.3227 6.43555 9.98663 6.5256 9.69034 6.69666C9.39291 6.86838 9.14614 7.11564 8.97501 7.4134C8.80388 7.71117 8.71447 8.04887 8.71584 8.3923V39.8882C8.71447 40.2317 8.80388 40.5694 8.97501 40.8671C9.14614 41.1649 9.39291 41.4122 9.69034 41.5839C9.98663 41.7549 10.3227 41.845 10.6648 41.845C11.007 41.845 11.3431 41.7549 11.6393 41.5839L38.9254 25.8359C39.2254 25.6659 39.4749 25.4194 39.6485 25.1215C39.822 24.8236 39.9135 24.485 39.9135 24.1403C39.9135 23.7955 39.822 23.4569 39.6485 23.159C39.4749 22.8611 39.2254 22.6146 38.9254 22.4446ZM12.6138 36.5165V11.7641L34.0529 24.1403L12.6138 36.5165Z" fill="#CBCBCB"/>
</svg>
