<svg width="22" height="17" viewBox="0 0 22 17" fill="none" xmlns="http://www.w3.org/2000/svg">
<path fill-rule="evenodd" clip-rule="evenodd" d="M0.734863 1.4022C0.734863 1.04321 1.02588 0.752197 1.38486 0.752197H1.3917H1.39879H1.40613H1.41372H1.42156H1.42966H1.438H1.44659H1.45543H1.46452H1.47386H1.48344H1.49326H1.50334H1.51365H1.52421H1.53501H1.54605H1.55733H1.56885H1.58061H1.5926H1.60484H1.61731H1.63002H1.64296H1.65614H1.66955H1.68319H1.69706H1.71117H1.7255H1.74007H1.75486H1.76989H1.78514H1.80061H1.81631H1.83224H1.84839H1.86476H1.88136H1.89818H1.91522H1.93248H1.94996H1.96766H1.98557H2.0037H2.02205H2.04062H2.0594H2.07839H2.0976H2.11702H2.13665H2.15649H2.17654H2.1968H2.21727H2.23795H2.25884H2.27993H2.30123H2.32273H2.34443H2.36634H2.38845H2.41076H2.43328H2.45599H2.4789H2.50201H2.52532H2.54883H2.57253H2.59643H2.62052H2.6448H2.66928H2.69395H2.71881H2.74387H2.76911H2.79454H2.82016H2.84597H2.87197H2.89815H2.92451H2.95106H2.9778H3.00471H3.03181H3.05909H3.08656H3.1142H3.14202H3.17001H3.19819H3.22654H3.25507H3.28378H3.31265H3.34171H3.37093H3.40033H3.42989H3.45963H3.48954H3.51962H3.54986H3.58027H3.61085H3.6416H3.67251H3.70358H3.73482H3.76622H3.79778H3.82951H3.86139H3.89343H3.92564H3.958H3.99051H4.02319H4.05602H4.089H4.12214H4.15543H4.18888H4.22248H4.25622H4.29012H4.32417H4.35836H4.39271H4.4272H4.46184H4.49662H4.53155H4.56662H4.60184H4.6372H4.6727H4.70834H4.74412H4.78004H4.8161H4.85229H4.88863H4.9251H4.9617H4.99844H5.03532H5.07232H5.10946H5.14674H5.18414H5.22167H5.25933H5.29712H5.33504H5.37308H5.41126H5.44955H5.48797H5.52652H5.56519H5.60398H5.64289H5.68192H5.72107H5.76034H5.79973H5.83924H5.87887H5.91861H5.95846H5.99843H6.03852H6.07871H6.11902H6.15944H6.19997H6.24061H6.28136H6.32222H6.36319H6.40426H6.44544H6.48672H6.52811H6.5696H6.6112H6.6529H6.69469H6.73659H6.77859H6.82069H6.86288H6.90518H6.94757H6.99005H7.03263H7.07531H7.11807H7.16093H7.20389H7.24693H7.29007H7.33329H7.3766H7.42H7.46349H7.50707H7.55073H7.59447H7.6383H7.68222H7.72621H7.77029H7.81445H7.85869H7.90301H7.9474H7.99188H8.03643H8.08106H8.12577H8.17055H8.2154H8.26033H8.30533H8.3504H8.39554H8.44075H8.48603H8.53138H8.5768H8.62229H8.66784H8.71346H8.75914H8.80488H8.85069H8.89656H8.9425H8.98849H9.03455H9.08066H9.12683H9.17306H9.21935H9.26569H9.31209H9.35854H9.40505H9.45161H9.49822H9.54489H9.5916H9.63836H9.68518H9.73204H9.77895H9.82591H9.87291H9.91996H9.96705H10.0142H10.0614H10.1086H10.1559H10.2032H10.2505H10.2979H10.3453H10.3928H10.4403H10.4878H10.5354H10.583H10.6306H10.6783H10.726H10.7737H10.8215H10.8692H10.9171H10.9649H11.0128H11.0607H11.1086H11.1566H11.2045H11.2526H11.3006H11.3486H11.3967H11.4448H11.4929H11.541H11.5892H11.6373H11.6855H11.7337H11.7819H11.8301H11.8784H11.9266H11.9749H12.0231H12.0714H12.1197H12.168H12.2163H12.2646H12.313H12.3613H12.4096H12.458H12.5063H12.5547H12.603H12.6513H12.6997H12.748H12.7964H12.8447H12.8931H12.9414H12.9897H13.0381H13.0864H13.1347H13.183H13.2313H13.2796H13.3279H13.3761H13.4244H13.4726H13.5209H13.5691H13.6173H13.6655H13.7136H13.7618H13.8099H13.8581H13.9062H13.9542H14.0023H14.0503H14.0983H14.1463H14.1943H14.2422H14.2902H14.3381H14.3859H14.4338H14.4816H14.5293H14.5771H14.6248H14.6725H14.7202H14.7678H14.8154H14.8629H14.9104H14.9579H15.0054H15.0528H15.1001H15.1475H15.1947H15.242H15.2892H15.3364H15.3835H15.4305H15.4776H15.5246H15.5715H15.6184H15.6652H15.712H15.7588H15.8055H15.8521H15.8987H15.9452H15.9917H16.0381H16.0845H16.1308H16.1771H16.2233H16.2695H16.3156H16.3616H16.4076H16.4535H16.4993H16.5451H16.5908H16.6365H16.6821H16.7276H16.773H16.8184H16.8637H16.909H16.9542H16.9993H17.0443H17.0893H17.1342H17.179H17.2238H17.2685H17.313H17.3576H17.402H17.4464H17.4907H17.5349H17.579H17.623H17.667H17.7109H17.7547H17.7984H17.842H17.8855H17.929H17.9724H18.0156H18.0588H18.1019H18.1449H18.1879H18.2307H18.2734H18.316H18.3586H18.401H18.4434H18.4856H18.5278H18.5698H18.6118H18.6537H18.6954H18.7371H18.7786H18.8201H18.8614H18.9027H18.9438H18.9848H19.0257H19.0666H19.1073H19.1479H19.1883H19.2287H19.269H19.3091H19.3492H19.3891H19.4289H19.4686H19.5082H19.5476H19.587H19.6262H19.6653H19.7043H19.7431H19.7819H19.8205H19.859H19.8974H19.9356H19.9737H20.0117H20.0496H20.0873H20.1249H20.1624H20.1997H20.237H20.274H20.311H20.3478H20.3845H20.4211H20.4575H20.4937H20.5299H20.5659H20.6018H20.6375H20.6731H20.7085H20.7438H20.779C21.1379 0.752197 21.429 1.04321 21.429 1.4022C21.429 1.76118 21.1379 2.0522 20.779 2.0522H20.7438H20.7085H20.6731H20.6375H20.6018H20.5659H20.5299H20.4937H20.4575H20.4211H20.3845H20.3478H20.311H20.274H20.237H20.1997H20.1624H20.1249H20.0873H20.0496H20.0117H19.9737H19.9356H19.8974H19.859H19.8205H19.7819H19.7431H19.7043H19.6653H19.6262H19.587H19.5476H19.5082H19.4686H19.4289H19.3891H19.3492H19.3091H19.269H19.2287H19.1883H19.1479H19.1073H19.0666H19.0257H18.9848H18.9438H18.9027H18.8614H18.8201H18.7786H18.7371H18.6954H18.6537H18.6118H18.5698H18.5278H18.4856H18.4434H18.401H18.3586H18.316H18.2734H18.2307H18.1879H18.1449H18.1019H18.0588H18.0156H17.9724H17.929H17.8855H17.842H17.7984H17.7547H17.7109H17.667H17.623H17.579H17.5349H17.4907H17.4464H17.402H17.3576H17.313H17.2685H17.2238H17.179H17.1342H17.0893H17.0443H16.9993H16.9542H16.909H16.8637H16.8184H16.773H16.7276H16.6821H16.6365H16.5908H16.5451H16.4993H16.4535H16.4076H16.3616H16.3156H16.2695H16.2233H16.1771H16.1308H16.0845H16.0381H15.9917H15.9452H15.8987H15.8521H15.8055H15.7588H15.712H15.6652H15.6184H15.5715H15.5246H15.4776H15.4305H15.3835H15.3364H15.2892H15.242H15.1947H15.1475H15.1001H15.0528H15.0054H14.9579H14.9104H14.8629H14.8154H14.7678H14.7202H14.6725H14.6248H14.5771H14.5293H14.4816H14.4338H14.3859H14.3381H14.2902H14.2422H14.1943H14.1463H14.0983H14.0503H14.0023H13.9542H13.9062H13.8581H13.8099H13.7618H13.7136H13.6655H13.6173H13.5691H13.5209H13.4726H13.4244H13.3761H13.3279H13.2796H13.2313H13.183H13.1347H13.0864H13.0381H12.9897H12.9414H12.8931H12.8447H12.7964H12.748H12.6997H12.6513H12.603H12.5547H12.5063H12.458H12.4096H12.3613H12.313H12.2646H12.2163H12.168H12.1197H12.0714H12.0231H11.9749H11.9266H11.8784H11.8301H11.7819H11.7337H11.6855H11.6373H11.5892H11.541H11.4929H11.4448H11.3967H11.3486H11.3006H11.2526H11.2045H11.1566H11.1086H11.0607H11.0128H10.9649H10.9171H10.8692H10.8215H10.7737H10.726H10.6783H10.6306H10.583H10.5354H10.4878H10.4403H10.3928H10.3453H10.2979H10.2505H10.2032H10.1559H10.1086H10.0614H10.0142H9.96705H9.91996H9.87291H9.82591H9.77895H9.73204H9.68518H9.63836H9.5916H9.54489H9.49822H9.45161H9.40505H9.35854H9.31209H9.26569H9.21935H9.17306H9.12683H9.08066H9.03455H8.98849H8.9425H8.89656H8.85069H8.80488H8.75914H8.71346H8.66784H8.62229H8.5768H8.53138H8.48603H8.44075H8.39554H8.3504H8.30533H8.26033H8.2154H8.17055H8.12577H8.08106H8.03643H7.99188H7.9474H7.90301H7.85869H7.81445H7.77029H7.72621H7.68222H7.6383H7.59447H7.55073H7.50707H7.46349H7.42H7.3766H7.33329H7.29007H7.24693H7.20389H7.16093H7.11807H7.07531H7.03263H6.99005H6.94757H6.90518H6.86288H6.82069H6.77859H6.73659H6.69469H6.6529H6.6112H6.5696H6.52811H6.48672H6.44544H6.40426H6.36319H6.32222H6.28136H6.24061H6.19997H6.15944H6.11902H6.07871H6.03852H5.99843H5.95846H5.91861H5.87887H5.83924H5.79973H5.76034H5.72107H5.68192H5.64289H5.60398H5.56519H5.52652H5.48797H5.44955H5.41126H5.37308H5.33504H5.29712H5.25933H5.22167H5.18414H5.14674H5.10946H5.07232H5.03532H4.99844H4.9617H4.9251H4.88863H4.85229H4.8161H4.78004H4.74412H4.70834H4.6727H4.6372H4.60184H4.56662H4.53155H4.49662H4.46184H4.4272H4.39271H4.35836H4.32417H4.29012H4.25622H4.22248H4.18888H4.15543H4.12214H4.089H4.05602H4.02319H3.99051H3.958H3.92564H3.89343H3.86139H3.82951H3.79778H3.76622H3.73482H3.70358H3.67251H3.6416H3.61085H3.58027H3.54986H3.51962H3.48954H3.45963H3.42989H3.40033H3.37093H3.34171H3.31265H3.28378H3.25507H3.22654H3.19819H3.17001H3.14202H3.1142H3.08656H3.05909H3.03181H3.00471H2.9778H2.95106H2.92451H2.89815H2.87197H2.84597H2.82016H2.79454H2.76911H2.74387H2.71881H2.69395H2.66928H2.6448H2.62052H2.59643H2.57253H2.54883H2.52532H2.50201H2.4789H2.45599H2.43328H2.41076H2.38845H2.36634H2.34443H2.32273H2.30123H2.27993H2.25884H2.23795H2.21727H2.1968H2.17654H2.15649H2.13665H2.11702H2.0976H2.07839H2.0594H2.04062H2.02205H2.0037H1.98557H1.96766H1.94996H1.93248H1.91522H1.89818H1.88136H1.86476H1.84839H1.83224H1.81631H1.80061H1.78514H1.76989H1.75486H1.74007H1.7255H1.71117H1.69706H1.68319H1.66955H1.65614H1.64296H1.63002H1.61731H1.60484H1.5926H1.58061H1.56885H1.55733H1.54605H1.53501H1.52421H1.51365H1.50334H1.49326H1.48344H1.47386H1.46452H1.45543H1.44659H1.438H1.42966H1.42156H1.41372H1.40613H1.39879H1.3917H1.38486C1.02588 2.0522 0.734863 1.76118 0.734863 1.4022ZM2.80176 8.84409C2.80176 8.4851 3.09278 8.19409 3.45176 8.19409H3.45714H3.46272H3.46849H3.47447H3.48064H3.48701H3.49357H3.50034H3.50729H3.51444H3.52179H3.52933H3.53706H3.54499H3.5531H3.56141H3.56991H3.57859H3.58747H3.59654H3.60579H3.61523H3.62486H3.63467H3.64467H3.65485H3.66522H3.67577H3.68651H3.69743H3.70852H3.71981H3.73127H3.74291H3.75473H3.76673H3.77891H3.79126H3.80379H3.8165H3.82939H3.84245H3.85568H3.86909H3.88267H3.89642H3.91035H3.92445H3.93872H3.95315H3.96776H3.98254H3.99749H4.0126H4.02788H4.04333H4.05894H4.07472H4.09066H4.10677H4.12304H4.13947H4.15607H4.17283H4.18975H4.20683H4.22407H4.24146H4.25902H4.27674H4.29461H4.31264H4.33082H4.34916H4.36766H4.38631H4.40511H4.42407H4.44318H4.46244H4.48186H4.50142H4.52113H4.541H4.56101H4.58117H4.60148H4.62193H4.64253H4.66328H4.68417H4.70521H4.72639L4.74771 8.19409H4.76918H4.79079H4.81254H4.83443H4.85646H4.87863H4.90094H4.92339H4.94597H4.9687H4.99156H5.01455H5.03769H5.06095H5.08435H5.10789H5.13155H5.15535H5.17928H5.20335H5.22754H5.25186H5.27631H5.30089H5.3256H5.35044H5.3754H5.40049H5.4257H5.45104H5.4765H5.50209H5.5278H5.55364H5.57959H5.60567H5.63186H5.65818H5.68462H5.71117H5.73785H5.76464H5.79155H5.81857H5.84571H5.87297H5.90034H5.92782H5.95542H5.98313H6.01095H6.03889H6.06693H6.09509H6.12335H6.15172H6.18021H6.2088H6.23749H6.2663H6.29521H6.32422H6.35334H6.38257H6.4119H6.44133H6.47086H6.5005H6.53023H6.56007H6.59001H6.62004H6.65018H6.68041H6.71074H6.74117H6.77169H6.80231H6.83302H6.86383H6.89473H6.92573H6.95681H6.98799H7.01926H7.05063H7.08208H7.11362H7.14525H7.17697H7.20877H7.24067H7.27265H7.30471H7.33686H7.3691H7.40142H7.43382H7.4663H7.49887H7.53152H7.56425H7.59706H7.62995H7.66292H7.69597H7.72909H7.7623H7.79557H7.82893H7.86236H7.89587H7.92945H7.9631H7.99683H8.03062H8.0645H8.09844H8.13245H8.16653H8.20068H8.2349H8.26919H8.30355H8.33797H8.37246H8.40701H8.44163H8.47631H8.51106H8.54587H8.58075H8.61568H8.65068H8.68574H8.72085H8.75603H8.79127H8.82656H8.86191H8.89732H8.93279H8.96831H9.00389H9.03952H9.0752H9.11094H9.14673H9.18258H9.21847H9.25442H9.29041H9.32646H9.36255H9.3987H9.43489H9.47113H9.50741H9.54375H9.58012H9.61654H9.65301H9.68952H9.72607H9.76267H9.79931H9.83599L9.8727 8.19409H9.90946H9.94626H9.9831H10.02H10.0569H10.0938H10.1308H10.1678H10.2049H10.242H10.2791H10.3163H10.3535H10.3907H10.4279H10.4652H10.5025H10.5399H10.5773H10.6147H10.6521H10.6895H10.727H10.7645H10.8021H10.8396H10.8772H10.9148H10.9524H10.9901H11.0278H11.0655H11.1032H11.1409H11.1787H11.2164H11.2542H11.292H11.3298H11.3677H11.4055H11.4434H11.4813H11.5192H11.5571H11.595H11.633H11.6709H11.7089H11.7468H11.7848H11.8228H11.8608H11.8988H11.9368H11.9748H12.0128H12.0508H12.0889H12.1269H12.1649H12.203H12.241H12.2791H12.3171H12.3552H12.3932H12.4312H12.4693H12.5073H12.5453H12.5834H12.6214H12.6594H12.6974H12.7355H12.7735H12.8115H12.8494H12.8874H12.9254H12.9634H13.0013H13.0393H13.0772H13.1151H13.153H13.1909H13.2288H13.2666H13.3045H13.3423H13.3801H13.4179H13.4557H13.4935H13.5312H13.569H13.6067H13.6443H13.682H13.7197H13.7573H13.7949H13.8324H13.87H13.9075H13.945H13.9825H14.0199H14.0573H14.0947H14.1321H14.1694H14.2067H14.244H14.2812H14.3185H14.3556H14.3928H14.4299H14.467H14.504H14.541H14.578H14.6149H14.6518H14.6887H14.7255H14.7623H14.799H14.8357H14.8724H14.909H14.9456H14.9821L15.0186 8.19409H15.055H15.0915H15.1278H15.1641H15.2004H15.2366H15.2728H15.3089H15.345H15.381H15.417H15.4529H15.4888H15.5246H15.5604H15.5961H15.6318H15.6674H15.7029H15.7384H15.7739H15.8092H15.8446H15.8798H15.9151H15.9502H15.9853H16.0203H16.0553H16.0902H16.1251H16.1598H16.1946H16.2292H16.2638H16.2983H16.3328H16.3672H16.4015H16.4358H16.47H16.5041H16.5382H16.5721H16.6061H16.6399H16.6737H16.7074H16.741H16.7745H16.808H16.8414H16.8747H16.908H16.9411H16.9742H17.0073H17.0402H17.073H17.1058H17.1385H17.1711H17.2037H17.2361H17.2685H17.3008H17.333H17.3651H17.3971H17.4291H17.4609H17.4927H17.5244H17.556H17.5875H17.6189H17.6502H17.6814H17.7126H17.7436H17.7746H17.8055H17.8362H17.8669H17.8975H17.928H17.9583H17.9886H18.0188H18.0489H18.0789H18.1088H18.1386H18.1683H18.1979H18.2274H18.2568H18.2861H18.3152H18.3443H18.3733H18.4022H18.4309H18.4596H18.4881H18.5166H18.5449H18.5731H18.6012H18.6292H18.6571H18.6849H18.7125C19.0715 8.19409 19.3625 8.4851 19.3625 8.84409C19.3625 9.20307 19.0715 9.49409 18.7125 9.49409H18.6849H18.6571H18.6292H18.6012H18.5731H18.5449H18.5166H18.4881H18.4596H18.4309H18.4022H18.3733H18.3443H18.3152H18.2861H18.2568H18.2274H18.1979H18.1683H18.1386H18.1088H18.0789H18.0489H18.0188H17.9886H17.9583H17.928H17.8975H17.8669H17.8362H17.8055H17.7746H17.7436H17.7126H17.6814H17.6502H17.6189H17.5875H17.556H17.5244H17.4927H17.4609H17.4291H17.3971H17.3651H17.333H17.3008H17.2685H17.2361H17.2037H17.1711H17.1385H17.1058H17.073H17.0402H17.0073H16.9742H16.9411H16.908H16.8747H16.8414H16.808H16.7745H16.741H16.7074H16.6737H16.6399H16.6061H16.5721H16.5382H16.5041H16.47H16.4358H16.4015H16.3672H16.3328H16.2983H16.2638H16.2292H16.1946H16.1598H16.1251H16.0902H16.0553H16.0203H15.9853H15.9502H15.9151H15.8798H15.8446H15.8092H15.7739H15.7384H15.7029H15.6674H15.6318H15.5961H15.5604H15.5246H15.4888H15.4529H15.417H15.381H15.345H15.3089H15.2728H15.2366H15.2004H15.1641H15.1278H15.0915H15.055H15.0186L14.9821 9.49409H14.9456H14.909H14.8724H14.8357H14.799H14.7623H14.7255H14.6887H14.6518H14.6149H14.578H14.541H14.504H14.467H14.4299H14.3928H14.3556H14.3185H14.2812H14.244H14.2067H14.1694H14.1321H14.0947H14.0573H14.0199H13.9825H13.945H13.9075H13.87H13.8324H13.7949H13.7573H13.7197H13.682H13.6443H13.6067H13.569H13.5312H13.4935H13.4557H13.4179H13.3801H13.3423H13.3045H13.2666H13.2288H13.1909H13.153H13.1151H13.0772H13.0393H13.0013H12.9634H12.9254H12.8874H12.8494H12.8115H12.7735H12.7355H12.6974H12.6594H12.6214H12.5834H12.5453H12.5073H12.4693H12.4312H12.3932H12.3552H12.3171H12.2791H12.241H12.203H12.1649H12.1269H12.0889H12.0508H12.0128H11.9748H11.9368H11.8988H11.8608H11.8228H11.7848H11.7468H11.7089H11.6709H11.633H11.595H11.5571H11.5192H11.4813H11.4434H11.4055H11.3677H11.3298H11.292H11.2542H11.2164H11.1787H11.1409H11.1032H11.0655H11.0278H10.9901H10.9524H10.9148H10.8772H10.8396H10.8021H10.7645H10.727H10.6895H10.6521H10.6147H10.5773H10.5399H10.5025H10.4652H10.4279H10.3907H10.3535H10.3163H10.2791H10.242H10.2049H10.1678H10.1308H10.0938H10.0569H10.02H9.9831H9.94626H9.90946H9.8727H9.83598H9.79931H9.76267H9.72607H9.68952H9.65301H9.61654H9.58012H9.54375H9.50741H9.47113H9.43489H9.3987H9.36255H9.32646H9.29041H9.25442H9.21847H9.18257H9.14673H9.11094H9.0752H9.03952H9.00388H8.96831H8.93279H8.89732H8.86191H8.82656H8.79127H8.75603H8.72085H8.68574H8.65068H8.61568H8.58075H8.54587H8.51106H8.47631H8.44163H8.40701H8.37246H8.33797H8.30355H8.26919H8.2349H8.20068H8.16653H8.13245H8.09844H8.0645H8.03062H7.99683H7.9631H7.92945H7.89587H7.86236H7.82893H7.79557H7.7623H7.72909H7.69597H7.66292H7.62995H7.59706H7.56425H7.53152H7.49887H7.4663H7.43382H7.40142H7.3691H7.33686H7.30471H7.27265H7.24067H7.20877H7.17697H7.14525H7.11362H7.08208H7.05063H7.01926H6.98799H6.95681H6.92573H6.89473H6.86383H6.83302H6.80231H6.77169H6.74117H6.71074H6.68041H6.65018H6.62004H6.59001H6.56007H6.53023H6.5005H6.47086H6.44133H6.4119H6.38257H6.35334H6.32422H6.29521H6.2663H6.23749H6.2088H6.18021H6.15172H6.12335H6.09509H6.06693H6.03889H6.01095H5.98313H5.95542H5.92782H5.90034H5.87297H5.84571H5.81857H5.79155H5.76464H5.73785H5.71117H5.68462H5.65818H5.63186H5.60567H5.57959H5.55364H5.5278H5.50209H5.4765H5.45104H5.4257H5.40049H5.3754H5.35044H5.3256H5.30089H5.27631H5.25186H5.22754H5.20335H5.17928H5.15535H5.13155H5.10789H5.08435H5.06095H5.03769H5.01455H4.99156H4.9687H4.94597H4.92339H4.90094H4.87863H4.85646H4.83443H4.81254H4.79079H4.76918H4.74771L4.72639 9.49408H4.70521H4.68417H4.66328H4.64253H4.62193H4.60148H4.58117H4.56101H4.541H4.52113H4.50142H4.48186H4.46244H4.44318H4.42407H4.40511H4.38631H4.36766H4.34916H4.33082H4.31264H4.29461H4.27674H4.25902H4.24146H4.22407H4.20683H4.18975H4.17283H4.15607H4.13947H4.12304H4.10677H4.09066H4.07472H4.05894H4.04333H4.02788H4.0126H3.99749H3.98254H3.96776H3.95315H3.93871H3.92445H3.91035H3.89642H3.88267H3.86909H3.85568H3.84245H3.82939H3.8165H3.80379H3.79126H3.77891H3.76673H3.75473H3.74291H3.73127H3.71981H3.70852H3.69743H3.68651H3.67577H3.66522H3.65485H3.64467H3.63467H3.62486H3.61523H3.60579H3.59654H3.58747H3.57859H3.56991H3.56141H3.5531H3.54499H3.53706H3.52933H3.52179H3.51444H3.50729H3.50034H3.49357H3.48701H3.48064H3.47447H3.46849H3.46272H3.45714H3.45176C3.09278 9.49408 2.80176 9.20307 2.80176 8.84409ZM6.63097 15.6365C6.27199 15.6365 5.98097 15.9275 5.98097 16.2865C5.98097 16.6454 6.27199 16.9365 6.63097 16.9365H6.63411H6.63736H6.64073H6.64422H6.64782H6.65153H6.65536H6.65931H6.66336H6.66753H6.67182H6.67622H6.68073H6.68535H6.69008H6.69493H6.69989H6.70496H6.71013H6.71542H6.72082H6.72633H6.73194H6.73767H6.7435H6.74944H6.75549H6.76164H6.7679H6.77427H6.78075H6.78733H6.79401H6.8008H6.8077H6.8147H6.8218H6.82901H6.83632H6.84374H6.85125H6.85887H6.86659H6.87441H6.88233H6.89036H6.89848H6.9067H6.91503H6.92345H6.93197H6.94059H6.94931H6.95812H6.96704H6.97605H6.98516H6.99436H7.00366H7.01306H7.02255H7.03214H7.04182H7.05159H7.06146H7.07142H7.08148H7.09163H7.10187H7.11221H7.12263H7.13315H7.14376H7.15445H7.16524H7.17612H7.18709H7.19815H7.2093H7.22053H7.23186H7.24327H7.25477H7.26636H7.27803H7.28979H7.30164H7.31357H7.32559H7.33769H7.34987H7.36215H7.3745H7.38694H7.39946H7.41207H7.42476H7.43753H7.45038H7.46331H7.47632H7.48942H7.50259H7.51585H7.52918H7.5426H7.55609H7.56966H7.58331H7.59704H7.61085H7.62473H7.63869H7.65273H7.66684H7.68103H7.69529H7.70963H7.72404H7.73853H7.75309H7.76773H7.78243H7.79722H7.81207H7.827H7.84199H7.85706H7.8722H7.88741H7.9027H7.91805H7.93347H7.94896H7.96452H7.98015H7.99584H8.01161H8.02744H8.04334H8.05931H8.07534H8.09144H8.1076H8.12383H8.14013H8.15648H8.17291H8.1894H8.20595H8.22256H8.23924H8.25598H8.27278H8.28965H8.30657H8.32356H8.34061H8.35772H8.37488H8.39211H8.4094H8.42674H8.44415H8.46161H8.47913H8.49671H8.51435H8.53204H8.54979H8.56759H8.58545H8.60337H8.62134H8.63937H8.65745H8.67558H8.69377H8.71201H8.73031H8.74865H8.76705H8.7855H8.80401H8.82256H8.84116H8.85982H8.87852H8.89728H8.91608H8.93493H8.95384H8.97279H8.99178H9.01083H9.02992H9.04906H9.06825H9.08748H9.10676H9.12608H9.14545H9.16486H9.18432H9.20382H9.22336H9.24295H9.26258H9.28226H9.30197H9.32173H9.34153H9.36137H9.38125H9.40117H9.42113H9.44114H9.46118H9.48126H9.50138H9.52153H9.54173H9.56196H9.58223H9.60253H9.62288H9.64326H9.66367H9.68412H9.70461H9.72513H9.74568H9.76627H9.78689H9.80755H9.82823H9.84896H9.86971H9.89049H9.91131H9.93216H9.95304H9.97394H9.99488H10.0159H10.0368H10.0579H10.0789H10.1H10.1211H10.1423H10.1634H10.1846H10.2058H10.2271H10.2484H10.2697H10.291H10.3123H10.3337H10.3551H10.3765H10.398H10.4194H10.4409H10.4624H10.484H10.5055H10.5271H10.5487H10.5703H10.5919H10.6136H10.6353H10.657H10.6787H10.7004H10.7222H10.7439H10.7657H10.7875H10.8093H10.8312H10.853H10.8749H10.8968H10.9186H10.9406H10.9625H10.9844H11.0064H11.0283H11.0503H11.0723H11.0943H11.1163H11.1383H11.1604H11.1824H11.2045H11.2265H11.2486H11.2707H11.2928H11.3149H11.337H11.3591H11.3812H11.4033H11.4255H11.4476H11.4698H11.4919H11.5141H11.5362H11.5584H11.5806H11.6027H11.6249H11.6471H11.6693H11.6915H11.7137H11.7358H11.758H11.7802H11.8024H11.8246H11.8468H11.869H11.8912H11.9134H11.9356H11.9577H11.9799H12.0021H12.0243H12.0465H12.0686H12.0908H12.113H12.1351H12.1573H12.1794H12.2015H12.2237H12.2458H12.2679H12.29H12.3121H12.3342H12.3563H12.3784H12.4005H12.4225H12.4446H12.4666H12.4886H12.5107H12.5327H12.5547H12.5766H12.5986H12.6206H12.6425H12.6644H12.6864H12.7083H12.7302H12.752H12.7739H12.7957H12.8176H12.8394H12.8612H12.8829H12.9047H12.9264H12.9482H12.9699H12.9916H13.0132H13.0349H13.0565H13.0781H13.0997H13.1213H13.1428H13.1643H13.1858H13.2073H13.2288H13.2502H13.2716H13.293H13.3144H13.3357H13.357H13.3783H13.3996H13.4208H13.442H13.4632H13.4843H13.5055H13.5266H13.5476H13.5687H13.5897H13.6107H13.6316H13.6526H13.6735H13.6943H13.7152H13.736H13.7567H13.7775H13.7982H13.8189H13.8395H13.8601H13.8807H13.9012H13.9217H13.9422H13.9626H13.983H14.0034H14.0237H14.044H14.0643H14.0845H14.1047H14.1248H14.1449H14.165H14.185H14.205H14.2249H14.2448H14.2647H14.2845H14.3043H14.324H14.3437H14.3634H14.383H14.4026H14.4221H14.4416H14.461H14.4804H14.4998H14.5191H14.5383H14.5576H14.5767H14.5958H14.6149H14.6339H14.6529H14.6718H14.6907H14.7096H14.7283H14.7471H14.7658H14.7844H14.803H14.8215H14.84H14.8584H14.8768H14.8951H14.9134H14.9316H14.9498H14.9679H14.986H15.004H15.0219H15.0398H15.0576H15.0754H15.0931H15.1108H15.1284H15.146H15.1635H15.1809H15.1983H15.2156H15.2329H15.2501H15.2672H15.2843H15.3013H15.3183H15.3352H15.352H15.3688H15.3855H15.4022H15.4188H15.4353H15.4518H15.4682H15.4845H15.5008H15.517H15.5331C15.8921 16.9365 16.1831 16.6454 16.1831 16.2865C16.1831 15.9275 15.8921 15.6365 15.5331 15.6365H15.517H15.5008H15.4845H15.4682H15.4518H15.4353H15.4188H15.4022H15.3855H15.3688H15.352H15.3352H15.3183H15.3013H15.2843H15.2672H15.2501H15.2329H15.2156H15.1983H15.1809H15.1635H15.146H15.1284H15.1108H15.0931H15.0754H15.0576H15.0398H15.0219H15.004H14.986H14.9679H14.9498L14.9316 15.6365H14.9134H14.8951H14.8768H14.8584H14.84H14.8215H14.803H14.7844H14.7658H14.7471H14.7283H14.7096H14.6907H14.6718H14.6529H14.6339H14.6149H14.5958H14.5767H14.5576H14.5383H14.5191H14.4998H14.4804H14.461H14.4416H14.4221H14.4026H14.383H14.3634H14.3437H14.324H14.3043H14.2845H14.2647H14.2448H14.2249H14.205H14.185H14.165H14.1449H14.1248H14.1047H14.0845H14.0643H14.044H14.0237H14.0034H13.983H13.9626H13.9422H13.9217H13.9012H13.8807H13.8601H13.8395H13.8189H13.7982H13.7775H13.7567H13.736H13.7152H13.6943H13.6735H13.6526H13.6316H13.6107H13.5897H13.5687H13.5476H13.5266H13.5055H13.4843H13.4632H13.442H13.4208H13.3996H13.3783H13.357H13.3357H13.3144H13.293H13.2716H13.2502H13.2288H13.2073H13.1858H13.1643H13.1428H13.1213H13.0997H13.0781H13.0565H13.0349H13.0132H12.9916H12.9699H12.9482H12.9264H12.9047H12.8829H12.8612H12.8394H12.8176H12.7957H12.7739H12.752H12.7302H12.7083H12.6864H12.6644H12.6425H12.6206H12.5986H12.5766H12.5547H12.5327H12.5107H12.4886H12.4666H12.4446H12.4225H12.4005H12.3784H12.3563H12.3342H12.3121H12.29H12.2679H12.2458H12.2237H12.2015H12.1794H12.1573H12.1351H12.113H12.0908H12.0686H12.0465H12.0243H12.0021H11.9799H11.9577H11.9356H11.9134H11.8912H11.869H11.8468H11.8246H11.8024H11.7802H11.758H11.7358H11.7137H11.6915H11.6693H11.6471H11.6249H11.6027H11.5806H11.5584H11.5362H11.5141H11.4919H11.4698H11.4476H11.4255H11.4033H11.3812H11.3591H11.337H11.3149H11.2928H11.2707H11.2486H11.2265H11.2045H11.1824H11.1604H11.1383H11.1163H11.0943H11.0723H11.0503H11.0283H11.0064H10.9844H10.9625H10.9406H10.9186H10.8968H10.8749H10.853H10.8312H10.8093H10.7875H10.7657H10.7439H10.7222H10.7004H10.6787H10.657H10.6353H10.6136H10.5919H10.5703H10.5487H10.5271H10.5055H10.484H10.4624H10.4409H10.4194H10.398H10.3765H10.3551H10.3337H10.3123H10.291H10.2697H10.2484H10.2271H10.2058H10.1846H10.1634H10.1423H10.1211H10.1H10.0789H10.0579H10.0368H10.0159H9.99488H9.97394H9.95303H9.93216H9.91131H9.89049H9.86971H9.84896H9.82823H9.80755H9.78689H9.76627H9.74568H9.72513H9.70461H9.68412H9.66367H9.64326H9.62288H9.60253H9.58223H9.56196H9.54173H9.52153H9.50137H9.48126H9.46118H9.44114H9.42113H9.40117H9.38125H9.36137H9.34153H9.32173H9.30197H9.28226H9.26258H9.24295H9.22336H9.20382H9.18432H9.16486H9.14545H9.12608H9.10676H9.08748H9.06825H9.04906H9.02992H9.01083H8.99178H8.97279H8.95384H8.93493H8.91608H8.89728H8.87852H8.85982H8.84116H8.82256H8.80401H8.7855H8.76705H8.74865H8.73031H8.71201H8.69377H8.67558H8.65745H8.63937H8.62134H8.60337H8.58545H8.56759H8.54979H8.53204H8.51435H8.49671H8.47913H8.46161H8.44415H8.42674H8.4094H8.39211H8.37488H8.35772H8.34061H8.32356H8.30657H8.28965H8.27278H8.25598H8.23924H8.22256H8.20595H8.1894H8.17291H8.15648H8.14012H8.12383H8.1076H8.09144H8.07534H8.05931H8.04334H8.02744H8.01161H7.99584H7.98015H7.96452H7.94896H7.93347H7.91805H7.9027H7.88741H7.8722H7.85706H7.84199H7.827H7.81207H7.79722H7.78243H7.76773H7.75309H7.73853H7.72404H7.70963H7.69529H7.68103H7.66684H7.65273H7.63869H7.62473H7.61085H7.59704H7.58331H7.56966H7.55609L7.5426 15.6365H7.52918H7.51585H7.50259H7.48942H7.47632H7.46331H7.45038H7.43753H7.42476H7.41207H7.39946H7.38694H7.3745H7.36215H7.34987H7.33769H7.32559H7.31357H7.30164H7.28979H7.27803H7.26636H7.25477H7.24327H7.23186H7.22053H7.2093H7.19815H7.18709H7.17612H7.16524H7.15445H7.14376H7.13315H7.12263H7.11221H7.10187H7.09163H7.08148H7.07142H7.06146H7.05159H7.04182H7.03214H7.02255H7.01306H7.00366H6.99436H6.98516H6.97605H6.96704H6.95812H6.94931H6.94059H6.93197H6.92345H6.91503H6.9067H6.89848H6.89036H6.88233H6.87441H6.86659H6.85887H6.85125H6.84374H6.83632H6.82901H6.8218H6.8147H6.8077H6.8008H6.79401H6.78733H6.78075H6.77427H6.7679H6.76164H6.75549H6.74944H6.7435H6.73767H6.73194H6.72633H6.72082H6.71542H6.71013H6.70496H6.69989H6.69493H6.69008H6.68535H6.68073H6.67622H6.67182H6.66753H6.66336H6.65931H6.65536H6.65153H6.64782H6.64422H6.64073H6.63736H6.63411H6.63097Z" fill="#454545"/>
</svg>
