<svg width="25" height="25" viewBox="0 0 25 25" fill="none" xmlns="http://www.w3.org/2000/svg">
<path fill-rule="evenodd" clip-rule="evenodd" d="M20.4937 1.45532H4.49365C2.8368 1.45532 1.49365 2.79847 1.49365 4.45532V5.65063H2.2523C2.52844 5.65063 2.7523 5.87449 2.7523 6.15063C2.7523 6.42678 2.52844 6.65063 2.2523 6.65063H1.49365V18.26H2.2523C2.52844 18.26 2.7523 18.4839 2.7523 18.76C2.7523 19.0362 2.52844 19.26 2.2523 19.26H1.49365V20.4553C1.49365 22.1122 2.8368 23.4553 4.49365 23.4553H20.4937C22.1505 23.4553 23.4937 22.1122 23.4937 20.4553V19.26H22.7345C22.4584 19.26 22.2345 19.0362 22.2345 18.76C22.2345 18.4839 22.4584 18.26 22.7345 18.26H23.4937V6.65063H22.7345C22.4584 6.65063 22.2345 6.42678 22.2345 6.15063C22.2345 5.87449 22.4584 5.65063 22.7345 5.65063H23.4937V4.45532C23.4937 2.79847 22.1505 1.45532 20.4937 1.45532ZM4.49365 0.455322C2.28451 0.455322 0.493652 2.24618 0.493652 4.45532V20.4553C0.493652 22.6645 2.28451 24.4553 4.49365 24.4553H20.4937C22.7028 24.4553 24.4937 22.6645 24.4937 20.4553V4.45532C24.4937 2.24618 22.7028 0.455322 20.4937 0.455322H4.49365ZM3.61432 6.15063C3.61432 5.87449 3.83818 5.65063 4.11432 5.65063H5.97634C6.25248 5.65063 6.47634 5.87449 6.47634 6.15063C6.47634 6.42678 6.25248 6.65063 5.97634 6.65063H4.11432C3.83818 6.65063 3.61432 6.42678 3.61432 6.15063ZM7.33836 6.15063C7.33836 5.87449 7.56222 5.65063 7.83836 5.65063H9.70038C9.97652 5.65063 10.2004 5.87449 10.2004 6.15063C10.2004 6.42678 9.97652 6.65063 9.70038 6.65063H7.83836C7.56222 6.65063 7.33836 6.42678 7.33836 6.15063ZM11.0624 6.15063C11.0624 5.87449 11.2863 5.65063 11.5624 5.65063H13.4244C13.7006 5.65063 13.9244 5.87449 13.9244 6.15063C13.9244 6.42678 13.7006 6.65063 13.4244 6.65063H11.5624C11.2863 6.65063 11.0624 6.42678 11.0624 6.15063ZM14.7864 6.15063C14.7864 5.87449 15.0103 5.65063 15.2864 5.65063H17.1485C17.4246 5.65063 17.6485 5.87449 17.6485 6.15063C17.6485 6.42678 17.4246 6.65063 17.1485 6.65063H15.2864C15.0103 6.65063 14.7864 6.42678 14.7864 6.15063ZM18.5105 6.15063C18.5105 5.87449 18.7343 5.65063 19.0105 5.65063H20.8725C21.1486 5.65063 21.3725 5.87449 21.3725 6.15063C21.3725 6.42678 21.1486 6.65063 20.8725 6.65063H19.0105C18.7343 6.65063 18.5105 6.42678 18.5105 6.15063ZM4.11432 18.26C3.83818 18.26 3.61432 18.4839 3.61432 18.76C3.61432 19.0362 3.83818 19.26 4.11432 19.26H5.97634C6.25248 19.26 6.47634 19.0362 6.47634 18.76C6.47634 18.4839 6.25248 18.26 5.97634 18.26H4.11432ZM7.83836 18.26C7.56222 18.26 7.33836 18.4839 7.33836 18.76C7.33836 19.0362 7.56222 19.26 7.83836 19.26H9.70038C9.97652 19.26 10.2004 19.0362 10.2004 18.76C10.2004 18.4839 9.97652 18.26 9.70038 18.26H7.83836ZM11.5624 18.26C11.2863 18.26 11.0624 18.4839 11.0624 18.76C11.0624 19.0362 11.2863 19.26 11.5624 19.26H13.4244C13.7006 19.26 13.9244 19.0362 13.9244 18.76C13.9244 18.4839 13.7006 18.26 13.4244 18.26H11.5624ZM15.2864 18.26C15.0103 18.26 14.7864 18.4839 14.7864 18.76C14.7864 19.0362 15.0103 19.26 15.2864 19.26H17.1485C17.4246 19.26 17.6485 19.0362 17.6485 18.76C17.6485 18.4839 17.4246 18.26 17.1485 18.26H15.2864ZM19.0105 18.26C18.7343 18.26 18.5105 18.4839 18.5105 18.76C18.5105 19.0362 18.7343 19.26 19.0105 19.26H20.8725C21.1486 19.26 21.3725 19.0362 21.3725 18.76C21.3725 18.4839 21.1486 18.26 20.8725 18.26H19.0105Z" fill="#CBCBCB"/>
</svg>
