<svg width="15" height="15" viewBox="0 0 15 15" fill="none" xmlns="http://www.w3.org/2000/svg">
<path opacity="0.4" fill-rule="evenodd" clip-rule="evenodd" d="M1.74785 0.634528C1.49556 0.382241 1.08652 0.382241 0.834235 0.634528C0.581948 0.886814 0.581948 1.29585 0.834235 1.54814L6.73161 7.4455L0.834617 13.3425C0.582329 13.5948 0.582329 14.0038 0.834617 14.2561C1.0869 14.5084 1.49594 14.5084 1.74823 14.2561L7.64522 8.35911L13.5422 14.2561C13.7945 14.5084 14.2035 14.5084 14.4558 14.2561C14.7081 14.0038 14.7081 13.5948 14.4558 13.3425L8.55883 7.4455L14.4562 1.54814C14.7085 1.29585 14.7085 0.886814 14.4562 0.634528C14.2039 0.382241 13.7949 0.382241 13.5426 0.634528L7.64522 6.53189L1.74785 0.634528Z" fill="#FA452D"/>
</svg>
