<svg width="27" height="26" viewBox="0 0 27 26" fill="none" xmlns="http://www.w3.org/2000/svg">
<path fill-rule="evenodd" clip-rule="evenodd" d="M10.0093 0.57251C9.65029 0.57251 9.35928 0.863525 9.35928 1.22251C9.35928 1.58149 9.65029 1.87251 10.0093 1.87251H10.861C11.22 1.87251 11.511 1.58149 11.511 1.22251C11.511 0.863525 11.22 0.57251 10.861 0.57251H10.0093ZM12.5644 0.57251C12.2054 0.57251 11.9144 0.863525 11.9144 1.22251C11.9144 1.58149 12.2054 1.87251 12.5644 1.87251H14.2679C14.6268 1.87251 14.9179 1.58149 14.9179 1.22251C14.9179 0.863525 14.6268 0.57251 14.2679 0.57251H12.5644ZM15.9713 0.57251C15.6123 0.57251 15.3213 0.863525 15.3213 1.22251C15.3213 1.58149 15.6123 1.87251 15.9713 1.87251H16.823C17.182 1.87251 17.473 1.58149 17.473 1.22251C17.473 0.863525 17.182 0.57251 16.823 0.57251H15.9713ZM6.41613 1.87261C4.01368 1.87261 2.06612 3.82017 2.06612 6.2226V20.2226C2.06612 22.625 4.01368 24.5726 6.41613 24.5726H9.10596V25.8726H6.41613C3.29571 25.8726 0.766113 23.343 0.766113 20.2226V6.2226C0.766113 3.1022 3.29571 0.572607 6.41613 0.572607H9.10596V1.87261H6.41613ZM20.4162 1.87261H17.8484V0.572607H20.4162C23.5366 0.572607 26.0662 3.1022 26.0662 6.2226V20.2226C26.0662 23.343 23.5366 25.8726 20.4162 25.8726H17.8484V24.5726H20.4162C22.8186 24.5726 24.7662 22.625 24.7662 20.2226V6.2226C24.7662 3.82017 22.8186 1.87261 20.4162 1.87261ZM5.14156 9.37407C5.3954 9.12022 5.80696 9.12022 6.0608 9.37407L9.44972 12.763C9.70357 13.0168 9.70357 13.4284 9.44972 13.6822L6.0608 17.0711C5.80696 17.325 5.3954 17.325 5.14156 17.0711C4.88772 16.8173 4.88772 16.4057 5.14156 16.1519L8.07086 13.2226L5.14156 10.2933C4.88772 10.0395 4.88772 9.6279 5.14156 9.37407ZM20.7876 9.37407C21.0414 9.12022 21.453 9.12022 21.7068 9.37407C21.9607 9.6279 21.9607 10.0395 21.7068 10.2933L18.7775 13.2226L21.7068 16.1519C21.9607 16.4057 21.9607 16.8173 21.7068 17.0711C21.453 17.325 21.0414 17.325 20.7876 17.0711L17.3987 13.6822C17.1448 13.4284 17.1448 13.0168 17.3987 12.763L20.7876 9.37407ZM9.35939 25.2226C9.35939 24.8636 9.65041 24.5726 10.0094 24.5726H10.8611C11.2201 24.5726 11.5111 24.8636 11.5111 25.2226C11.5111 25.5816 11.2201 25.8726 10.8611 25.8726H10.0094C9.65041 25.8726 9.35939 25.5816 9.35939 25.2226ZM11.9145 25.2226C11.9145 24.8636 12.2056 24.5726 12.5645 24.5726H14.268C14.627 24.5726 14.918 24.8636 14.918 25.2226C14.918 25.5816 14.627 25.8726 14.268 25.8726H12.5645C12.2056 25.8726 11.9145 25.5816 11.9145 25.2226ZM15.3214 25.2226C15.3214 24.8636 15.6124 24.5726 15.9714 24.5726H16.8231C17.1821 24.5726 17.4731 24.8636 17.4731 25.2226C17.4731 25.5816 17.1821 25.8726 16.8231 25.8726H15.9714C15.6124 25.8726 15.3214 25.5816 15.3214 25.2226Z" fill="#454545"/>
</svg>
