<svg width="27" height="27" viewBox="0 0 27 27" fill="none" xmlns="http://www.w3.org/2000/svg">
<path fill-rule="evenodd" clip-rule="evenodd" d="M24.7662 6.44565C24.7662 4.04322 22.8186 2.09565 20.4162 2.09565L6.41612 2.09565C4.01368 2.09565 2.06612 4.04322 2.06612 6.44565L2.06612 9.13548H0.766114L0.766114 6.44565C0.766114 3.32525 3.29571 0.795654 6.41612 0.795654L20.4162 0.795655C23.5366 0.795655 26.0662 3.32525 26.0662 6.44565V9.13548L24.7662 9.13548V6.44565ZM24.7662 20.4456V17.8779H26.0662V20.4456C26.0662 23.5661 23.5366 26.0956 20.4161 26.0956H6.41612C3.29571 26.0956 0.766113 23.5661 0.766113 20.4456L0.766113 17.8779H2.06612L2.06612 20.4456C2.06611 22.8481 4.01368 24.7956 6.41612 24.7956H20.4161C22.8186 24.7956 24.7662 22.8481 24.7662 20.4456ZM17.2647 5.17109C17.5185 5.42493 17.5185 5.83649 17.2647 6.09033L13.8758 9.47924C13.6219 9.73308 13.2104 9.73308 12.9565 9.47924L9.5676 6.09033C9.31375 5.83649 9.31375 5.42493 9.5676 5.17109C9.82144 4.91725 10.233 4.91725 10.4868 5.17109L13.4161 8.10039L16.3454 5.17109C16.5993 4.91725 17.0108 4.91725 17.2647 5.17109ZM17.2647 20.8171C17.5185 21.0709 17.5185 21.4825 17.2647 21.7363C17.0108 21.9902 16.5993 21.9902 16.3454 21.7363L13.4161 18.807L10.4868 21.7363C10.233 21.9902 9.82144 21.9902 9.5676 21.7363C9.31375 21.4825 9.31375 21.0709 9.5676 20.8171L12.9565 17.4282C13.2104 17.1743 13.6219 17.1743 13.8758 17.4282L17.2647 20.8171ZM25.4162 9.38891C25.7751 9.38891 26.0662 9.67993 26.0662 10.0389V10.8906C26.0662 11.2496 25.7751 11.5406 25.4162 11.5406C25.0572 11.5406 24.7662 11.2496 24.7662 10.8906V10.0389C24.7662 9.67993 25.0572 9.38891 25.4162 9.38891ZM25.4162 11.9441C25.7751 11.9441 26.0662 12.2351 26.0662 12.5941V14.2975C26.0662 14.6565 25.7751 14.9475 25.4162 14.9475C25.0572 14.9475 24.7662 14.6565 24.7662 14.2975V12.5941C24.7662 12.2351 25.0572 11.9441 25.4162 11.9441ZM25.4162 15.3509C25.7751 15.3509 26.0662 15.6419 26.0662 16.0009V16.8526C26.0662 17.2116 25.7751 17.5026 25.4162 17.5026C25.0572 17.5026 24.7662 17.2116 24.7662 16.8526V16.0009C24.7662 15.6419 25.0572 15.3509 25.4162 15.3509ZM2.06612 10.0389C2.06612 9.67993 1.7751 9.38891 1.41611 9.38891C1.05713 9.38891 0.766114 9.67993 0.766114 10.0389L0.766114 10.8906C0.766114 11.2496 1.05713 11.5406 1.41611 11.5406C1.7751 11.5406 2.06612 11.2496 2.06612 10.8906V10.0389ZM2.06612 12.5941C2.06612 12.2351 1.7751 11.9441 1.41611 11.9441C1.05713 11.9441 0.766114 12.2351 0.766114 12.5941L0.766114 14.2975C0.766114 14.6565 1.05713 14.9475 1.41611 14.9475C1.7751 14.9475 2.06612 14.6565 2.06612 14.2975L2.06612 12.5941ZM2.06612 16.0009C2.06612 15.6419 1.7751 15.3509 1.41611 15.3509C1.05713 15.3509 0.766114 15.6419 0.766113 16.0009L0.766113 16.8526C0.766113 17.2116 1.05713 17.5026 1.41611 17.5026C1.7751 17.5026 2.06612 17.2116 2.06612 16.8526V16.0009Z" fill="#454545"/>
</svg>
