<svg width="22" height="17" viewBox="0 0 22 17" fill="none" xmlns="http://www.w3.org/2000/svg">
<path fill-rule="evenodd" clip-rule="evenodd" d="M0.876465 1.4022C0.876465 1.04321 1.16748 0.752197 1.52647 0.752197H1.5333H1.54039H1.54773H1.55532H1.56316H1.57126H1.5796H1.58819H1.59703H1.60612H1.61546H1.62504H1.63487H1.64494H1.65525H1.66581H1.67661H1.68765H1.69893H1.71045H1.72221H1.73421H1.74644H1.75891H1.77162H1.78456H1.79774H1.81115H1.82479H1.83866H1.85277H1.86711H1.88167H1.89646H1.91149H1.92674H1.94221H1.95791H1.97384H1.98999H2.00637H2.02296H2.03978H2.05682H2.07408H2.09156H2.10926H2.12717H2.14531H2.16366H2.18222H2.201H2.21999H2.2392H2.25862H2.27825H2.29809H2.31814H2.33841H2.35888H2.37955H2.40044H2.42153H2.44283H2.46433H2.48603H2.50794H2.53005H2.55237H2.57488H2.59759H2.6205H2.64361H2.66692H2.69043H2.71413H2.73803H2.76212H2.7864H2.81088H2.83555H2.86042H2.88547H2.91071H2.93614H2.96176H2.98757H3.01357H3.03975H3.06611H3.09266H3.1194H3.14632H3.17341H3.2007H3.22816H3.2558H3.28362H3.31162H3.33979H3.36814H3.39667H3.42538H3.45426H3.48331H3.51253H3.54193H3.5715H3.60123H3.63114H3.66122H3.69146H3.72188H3.75246H3.7832H3.81411H3.84518H3.87642H3.90782H3.93938H3.97111H4.00299H4.03504H4.06724H4.0996H4.13212H4.16479H4.19762H4.2306H4.26374H4.29704H4.33048H4.36408H4.39782H4.43172H4.46577H4.49997H4.53431H4.5688H4.60344H4.63822H4.67315H4.70822H4.74344H4.7788H4.8143H4.84994H4.88572H4.92164H4.9577H4.99389H5.03023H5.0667H5.1033H5.14004H5.17692H5.21393H5.25107H5.28834H5.32574H5.36327H5.40093H5.43872H5.47664H5.51469H5.55286H5.59115H5.62957H5.66812H5.70679H5.74558H5.78449H5.82352H5.86267H5.90195H5.94133H5.98084H6.02047H6.06021H6.10006H6.14003H6.18012H6.22031H6.26062H6.30104H6.34158H6.38222H6.42297H6.46382H6.50479H6.54586H6.58704H6.62833H6.66971H6.71121H6.7528H6.7945H6.8363H6.87819H6.92019H6.96229H7.00448H7.04678H7.08917H7.13165H7.17423H7.21691H7.25968H7.30254H7.34549H7.38853H7.43167H7.47489H7.5182H7.56161H7.60509H7.64867H7.69233H7.73608H7.77991H7.82382H7.86781H7.91189H7.95605H8.00029H8.04461H8.08901H8.13348H8.17803H8.22266H8.26737H8.31215H8.357H8.40193H8.44693H8.492H8.53714H8.58235H8.62764H8.67299H8.7184H8.76389H8.80944H8.85506H8.90074H8.94649H8.99229H9.03817H9.0841H9.13009H9.17615H9.22226H9.26843H9.31466H9.36095H9.40729H9.45369H9.50014H9.54665H9.59321H9.63982H9.68649H9.7332H9.77997H9.82678H9.87364H9.92055H9.96751H10.0145H10.0616H10.1087H10.1558H10.203H10.2502H10.2975H10.3448H10.3921H10.4395H10.4869H10.5344H10.5819H10.6294H10.677H10.7246H10.7722H10.8199H10.8676H10.9153H10.9631H11.0108H11.0587H11.1065H11.1544H11.2023H11.2502H11.2982H11.3462H11.3942H11.4422H11.4902H11.5383H11.5864H11.6345H11.6826H11.7308H11.7789H11.8271H11.8753H11.9235H11.9717H12.02H12.0682H12.1165H12.1647H12.213H12.2613H12.3096H12.3579H12.4062H12.4546H12.5029H12.5512H12.5996H12.6479H12.6963H12.7446H12.7929H12.8413H12.8896H12.938H12.9863H13.0347H13.083H13.1313H13.1797H13.228H13.2763H13.3246H13.3729H13.4212H13.4695H13.5177H13.566H13.6142H13.6625H13.7107H13.7589H13.8071H13.8552H13.9034H13.9515H13.9997H14.0478H14.0958H14.1439H14.1919H14.2399H14.2879H14.3359H14.3839H14.4318H14.4797H14.5275H14.5754H14.6232H14.6709H14.7187H14.7664H14.8141H14.8618H14.9094H14.957H15.0045H15.052H15.0995H15.147H15.1944H15.2417H15.2891H15.3363H15.3836H15.4308H15.478H15.5251H15.5722H15.6192H15.6662H15.7131H15.76H15.8068H15.8536H15.9004H15.9471H15.9937H16.0403H16.0868H16.1333H16.1798H16.2261H16.2724H16.3187H16.3649H16.4111H16.4572H16.5032H16.5492H16.5951H16.6409H16.6867H16.7324H16.7781H16.8237H16.8692H16.9146H16.96H17.0053H17.0506H17.0958H17.1409H17.1859H17.2309H17.2758H17.3206H17.3654H17.4101H17.4547H17.4992H17.5436H17.588H17.6323H17.6765H17.7206H17.7646H17.8086H17.8525H17.8963H17.94H17.9836H18.0272H18.0706H18.114H18.1572H18.2004H18.2435H18.2865H18.3295H18.3723H18.415H18.4576H18.5002H18.5426H18.585H18.6272H18.6694H18.7114H18.7534H18.7953H18.837H18.8787H18.9202H18.9617H19.003H19.0443H19.0854H19.1264H19.1673H19.2082H19.2489H19.2895H19.3299H19.3703H19.4106H19.4507H19.4908H19.5307H19.5705H19.6102H19.6498H19.6892H19.7286H19.7678H19.8069H19.8459H19.8847H19.9235H19.9621H20.0006H20.039H20.0772H20.1153H20.1533H20.1912H20.2289H20.2665H20.304H20.3413H20.3786H20.4156H20.4526H20.4894H20.5261H20.5627H20.5991H20.6353H20.6715H20.7075H20.7434H20.7791H20.8147H20.8501H20.8854H20.9206C21.2795 0.752197 21.5706 1.04321 21.5706 1.4022C21.5706 1.76118 21.2795 2.0522 20.9206 2.0522H20.8854H20.8501H20.8147H20.7791H20.7434H20.7075H20.6715H20.6353H20.5991H20.5627H20.5261H20.4894H20.4526H20.4156H20.3786H20.3413H20.304H20.2665H20.2289H20.1912H20.1533H20.1153H20.0772H20.039H20.0006H19.9621H19.9235H19.8847H19.8459H19.8069H19.7678H19.7286H19.6892H19.6498H19.6102H19.5705H19.5307H19.4908H19.4507H19.4106H19.3703H19.3299H19.2895H19.2489H19.2082H19.1673H19.1264H19.0854H19.0443H19.003H18.9617H18.9202H18.8787H18.837H18.7953H18.7534H18.7114H18.6694H18.6272H18.585H18.5426H18.5002H18.4576H18.415H18.3723H18.3295H18.2865H18.2435H18.2004H18.1572H18.114H18.0706H18.0272H17.9836H17.94H17.8963H17.8525H17.8086H17.7646H17.7206H17.6765H17.6323H17.588H17.5436H17.4992H17.4547H17.4101H17.3654H17.3206H17.2758H17.2309H17.1859H17.1409H17.0958H17.0506H17.0053H16.96H16.9146H16.8692H16.8237H16.7781H16.7324H16.6867H16.6409H16.5951H16.5492H16.5032H16.4572H16.4111H16.3649H16.3187H16.2724H16.2261H16.1798H16.1333H16.0868H16.0403H15.9937H15.9471H15.9004H15.8536H15.8068H15.76H15.7131H15.6662H15.6192H15.5722H15.5251H15.478H15.4308H15.3836H15.3363H15.2891H15.2417H15.1944H15.147H15.0995H15.052H15.0045H14.957H14.9094H14.8618H14.8141H14.7664H14.7187H14.6709H14.6232H14.5754H14.5275H14.4797H14.4318H14.3839H14.3359H14.2879H14.2399H14.1919H14.1439H14.0958H14.0478H13.9997H13.9515H13.9034H13.8552H13.8071H13.7589H13.7107H13.6625H13.6142H13.566H13.5177H13.4695H13.4212H13.3729H13.3246H13.2763H13.228H13.1797H13.1313H13.083H13.0347H12.9863H12.938H12.8896H12.8413H12.7929H12.7446H12.6963H12.6479H12.5996H12.5512H12.5029H12.4546H12.4062H12.3579H12.3096H12.2613H12.213H12.1647H12.1165H12.0682H12.02H11.9717H11.9235H11.8753H11.8271H11.7789H11.7308H11.6826H11.6345H11.5864H11.5383H11.4902H11.4422H11.3942H11.3462H11.2982H11.2502H11.2023H11.1544H11.1065H11.0587H11.0108H10.9631H10.9153H10.8676H10.8199H10.7722H10.7246H10.677H10.6294H10.5819H10.5344H10.4869H10.4395H10.3921H10.3448H10.2975H10.2502H10.203H10.1558H10.1087H10.0616H10.0145H9.96751H9.92055H9.87364H9.82678H9.77997H9.7332H9.68649H9.63982H9.59321H9.54665H9.50014H9.45369H9.40729H9.36095H9.31466H9.26843H9.22226H9.17615H9.13009H9.0841H9.03817H8.99229H8.94649H8.90074H8.85506H8.80944H8.76389H8.7184H8.67299H8.62764H8.58235H8.53714H8.492H8.44693H8.40193H8.357H8.31215H8.26737H8.22266H8.17803H8.13348H8.08901H8.04461H8.00029H7.95605H7.91189H7.86781H7.82382H7.77991H7.73608H7.69233H7.64867H7.60509H7.56161H7.5182H7.47489H7.43167H7.38853H7.34549H7.30254H7.25968H7.21691H7.17423H7.13165H7.08917H7.04678H7.00448H6.96229H6.92019H6.87819H6.8363H6.7945H6.7528H6.71121H6.66971H6.62833H6.58704H6.54586H6.50479H6.46382H6.42297H6.38222H6.34158H6.30104H6.26062H6.22031H6.18012H6.14003H6.10006H6.06021H6.02047H5.98084H5.94133H5.90195H5.86267H5.82352H5.78449H5.74558H5.70679H5.66812H5.62957H5.59115H5.55286H5.51469H5.47664H5.43872H5.40093H5.36327H5.32574H5.28834H5.25107H5.21393H5.17692H5.14004H5.1033H5.0667H5.03023H4.99389H4.9577H4.92164H4.88572H4.84994H4.8143H4.7788H4.74344H4.70822H4.67315H4.63822H4.60344H4.5688H4.53431H4.49997H4.46577H4.43172H4.39782H4.36408H4.33048H4.29704H4.26374H4.2306H4.19762H4.16479H4.13212H4.0996H4.06724H4.03504H4.00299H3.97111H3.93938H3.90782H3.87642H3.84518H3.81411H3.7832H3.75246H3.72188H3.69146H3.66122H3.63114H3.60123H3.5715H3.54193H3.51253H3.48331H3.45426H3.42538H3.39667H3.36814H3.33979H3.31162H3.28362H3.2558H3.22816H3.2007H3.17341H3.14632H3.1194H3.09266H3.06611H3.03975H3.01357H2.98757H2.96176H2.93614H2.91071H2.88547H2.86042H2.83555H2.81088H2.7864H2.76212H2.73803H2.71413H2.69043H2.66692H2.64361H2.6205H2.59759H2.57488H2.55237H2.53005H2.50794H2.48603H2.46433H2.44283H2.42153H2.40044H2.37955H2.35888H2.33841H2.31814H2.29809H2.27825H2.25862H2.2392H2.21999H2.201H2.18222H2.16366H2.14531H2.12717H2.10926H2.09156H2.07408H2.05682H2.03978H2.02296H2.00637H1.98999H1.97384H1.95791H1.94221H1.92674H1.91149H1.89646H1.88167H1.86711H1.85277H1.83866H1.82479H1.81115H1.79774H1.78456H1.77162H1.75891H1.74644H1.73421H1.72221H1.71045H1.69893H1.68765H1.67661H1.66581H1.65525H1.64494H1.63487H1.62504H1.61546H1.60612H1.59703H1.58819H1.5796H1.57126H1.56316H1.55532H1.54773H1.54039H1.5333H1.52647C1.16748 2.0522 0.876465 1.76118 0.876465 1.4022ZM0.876465 8.84409C0.876465 8.4851 1.16748 8.19409 1.52647 8.19409H1.53184H1.53742H1.5432H1.54917H1.55534H1.56171H1.56828H1.57504H1.582H1.58915H1.59649H1.60403H1.61176H1.61969H1.6278H1.63611H1.64461H1.6533H1.66217H1.67124H1.68049H1.68993H1.69956H1.70937H1.71937H1.72955H1.73992H1.75048H1.76121H1.77213H1.78323H1.79451H1.80597H1.81761H1.82943H1.84143H1.85361H1.86596H1.8785H1.8912H1.90409H1.91715H1.93038H1.94379H1.95737H1.97113H1.98505H1.99915H2.01342H2.02786H2.04246H2.05724H2.07219H2.0873H2.10258H2.11803H2.13364H2.14942H2.16536H2.18147H2.19774H2.21418H2.23077H2.24753H2.26445H2.28153H2.29877H2.31617H2.33372H2.35144H2.36931H2.38734H2.40553H2.42387H2.44236H2.46101H2.47982H2.49877H2.51788H2.53715H2.55656H2.57612H2.59584H2.6157H2.63571H2.65587H2.67618H2.69663H2.71723H2.73798H2.75887H2.77991H2.80109L2.82241 8.19409H2.84388H2.86549H2.88724H2.90913H2.93116H2.95333H2.97564H2.99809H3.02068H3.0434H3.06626H3.08926H3.11239H3.13565H3.15905H3.18259H3.20626H3.23005H3.25399H3.27805H3.30224H3.32656H3.35101H3.37559H3.4003H3.42514H3.4501H3.47519H3.5004H3.52574H3.55121H3.57679H3.6025H3.62834H3.65429H3.68037H3.70657H3.73288H3.75932H3.78587H3.81255H3.83934H3.86625H3.89327H3.92041H3.94767H3.97504H4.00252H4.03012H4.05783H4.08565H4.11359H4.14163H4.16979H4.19805H4.22643H4.25491H4.2835H4.3122H4.341H4.36991H4.39893H4.42805H4.45727H4.4866H4.51603H4.54556H4.5752H4.60493H4.63477H4.66471H4.69474H4.72488H4.75511H4.78544H4.81587H4.84639H4.87701H4.90772H4.93853H4.96943H5.00043H5.03152H5.0627H5.09397H5.12533H5.15678H5.18832H5.21995H5.25167H5.28348H5.31537H5.34735H5.37941H5.41156H5.4438H5.47612H5.50852H5.54101H5.57357H5.60622H5.63895H5.67176H5.70465H5.73762H5.77067H5.80379H5.837H5.87028H5.90363H5.93706H5.97057H6.00415H6.0378H6.07153H6.10533H6.1392H6.17314H6.20715H6.24123H6.27538H6.3096H6.34389H6.37825H6.41267H6.44716H6.48171H6.51633H6.55102H6.58576H6.62057H6.65545H6.69038H6.72538H6.76044H6.79556H6.83073H6.86597H6.90126H6.93661H6.97202H7.00749H7.04301H7.07859H7.11422H7.1499H7.18564H7.22143H7.25728H7.29317H7.32912H7.36511H7.40116H7.43726H7.4734H7.50959H7.54583H7.58212H7.61845H7.65483H7.69125H7.72771H7.76422H7.80078H7.83737H7.87401H7.91069L7.94741 8.19409H7.98416H8.02096H8.0578H8.09467H8.13159H8.16854H8.20552H8.24254H8.2796H8.31669H8.35381H8.39097H8.42816H8.46538H8.50264H8.53992H8.57724H8.61458H8.65195H8.68936H8.72678H8.76424H8.80172H8.83923H8.87677H8.91432H8.95191H8.98951H9.02714H9.06479H9.10247H9.14016H9.17787H9.21561H9.25336H9.29113H9.32892H9.36673H9.40455H9.44239H9.48024H9.51811H9.556H9.59389H9.6318H9.66973H9.70766H9.74561H9.78356H9.82153H9.85951H9.89749H9.93548H9.97348H10.0115H10.0495H10.0875H10.1255H10.1636H10.2016H10.2396H10.2777H10.3157H10.3538H10.3918H10.4299H10.4679H10.5059H10.544H10.582H10.62H10.6581H10.6961H10.7341H10.7721H10.8102H10.8482H10.8862H10.9241H10.9621H11.0001H11.0381H11.076H11.114H11.1519H11.1898H11.2277H11.2656H11.3035H11.3413H11.3792H11.417H11.4548H11.4926H11.5304H11.5682H11.6059H11.6437H11.6814H11.719H11.7567H11.7944H11.832H11.8696H11.9071H11.9447H11.9822H12.0197H12.0572H12.0946H12.132H12.1694H12.2068H12.2441H12.2814H12.3187H12.3559H12.3932H12.4303H12.4675H12.5046H12.5417H12.5787H12.6157H12.6527H12.6896H12.7265H12.7634H12.8002H12.837H12.8737H12.9104H12.9471H12.9837H13.0203H13.0568L13.0933 8.19409H13.1298H13.1662H13.2025H13.2388H13.2751H13.3113H13.3475H13.3836H13.4197H13.4557H13.4917H13.5276H13.5635H13.5993H13.6351H13.6708H13.7065H13.7421H13.7776H13.8131H13.8486H13.8839H13.9193H13.9545H13.9898H14.0249H14.06H14.095H14.13H14.1649H14.1998H14.2345H14.2693H14.3039H14.3385H14.373H14.4075H14.4419H14.4762H14.5105H14.5447H14.5788H14.6129H14.6468H14.6808H14.7146H14.7484H14.7821H14.8157H14.8492H14.8827H14.9161H14.9494H14.9827H15.0158H15.0489H15.082H15.1149H15.1477H15.1805H15.2132H15.2458H15.2784H15.3108H15.3432H15.3755H15.4077H15.4398H15.4718H15.5038H15.5356H15.5674H15.5991H15.6307H15.6622H15.6936H15.7249H15.7561H15.7873H15.8183H15.8493H15.8802H15.9109H15.9416H15.9722H16.0027H16.0331H16.0633H16.0935H16.1236H16.1536H16.1835H16.2133H16.243H16.2726H16.3021H16.3315H16.3608H16.3899H16.419H16.448H16.4769H16.5056H16.5343H16.5628H16.5913H16.6196H16.6478H16.6759H16.7039H16.7318H16.7596H16.7872C17.1462 8.19409 17.4372 8.4851 17.4372 8.84409C17.4372 9.20307 17.1462 9.49409 16.7872 9.49409H16.7596H16.7318H16.7039H16.6759H16.6478H16.6196H16.5913H16.5628H16.5343H16.5056H16.4769H16.448H16.419H16.3899H16.3608H16.3315H16.3021H16.2726H16.243H16.2133H16.1835H16.1536H16.1236H16.0935H16.0633H16.0331H16.0027H15.9722H15.9416H15.9109H15.8802H15.8493H15.8183H15.7873H15.7561H15.7249H15.6936H15.6622H15.6307H15.5991H15.5674H15.5356H15.5038H15.4718H15.4398H15.4077H15.3755H15.3432H15.3108H15.2784H15.2458H15.2132H15.1805H15.1477H15.1149H15.082H15.0489H15.0158H14.9827H14.9494H14.9161H14.8827H14.8492H14.8157H14.7821H14.7484H14.7146H14.6808H14.6468H14.6129H14.5788H14.5447H14.5105H14.4762H14.4419H14.4075H14.373H14.3385H14.3039H14.2693H14.2345H14.1998H14.1649H14.13H14.095H14.06H14.0249H13.9898H13.9545H13.9193H13.8839H13.8486H13.8131H13.7776H13.7421H13.7065H13.6708H13.6351H13.5993H13.5635H13.5276H13.4917H13.4557H13.4197H13.3836H13.3475H13.3113H13.2751H13.2388H13.2025H13.1662H13.1298H13.0933L13.0568 9.49409H13.0203H12.9837H12.9471H12.9104H12.8737H12.837H12.8002H12.7634H12.7265H12.6896H12.6527H12.6157H12.5787H12.5417H12.5046H12.4675H12.4303H12.3932H12.3559H12.3187H12.2814H12.2441H12.2068H12.1694H12.132H12.0946H12.0572H12.0197H11.9822H11.9447H11.9071H11.8696H11.832H11.7944H11.7567H11.719H11.6814H11.6437H11.6059H11.5682H11.5304H11.4926H11.4548H11.417H11.3792H11.3413H11.3035H11.2656H11.2277H11.1898H11.1519H11.114H11.076H11.0381H11.0001H10.9621H10.9241H10.8862H10.8482H10.8102H10.7721H10.7341H10.6961H10.6581H10.62H10.582H10.544H10.5059H10.4679H10.4299H10.3918H10.3538H10.3157H10.2777H10.2396H10.2016H10.1636H10.1255H10.0875H10.0495H10.0115H9.97348H9.93548H9.89749H9.85951H9.82153H9.78356H9.74561H9.70766H9.66973H9.6318H9.59389H9.556H9.51811H9.48024H9.44239H9.40455H9.36672H9.32892H9.29113H9.25336H9.21561H9.17787H9.14016H9.10246H9.06479H9.02714H8.98951H8.95191H8.91432H8.87677H8.83923H8.80172H8.76424H8.72678H8.68936H8.65195H8.61458H8.57724H8.53992H8.50264H8.46538H8.42816H8.39097H8.35381H8.31669H8.2796H8.24254H8.20552H8.16854H8.13159H8.09467H8.0578H8.02096H7.98416H7.94741H7.91069H7.87401H7.83737H7.80078H7.76422H7.72771H7.69125H7.65483H7.61845H7.58212H7.54583H7.50959H7.4734H7.43726H7.40116H7.36511H7.32912H7.29317H7.25728H7.22143H7.18564H7.1499H7.11422H7.07859H7.04301H7.00749H6.97202H6.93661H6.90126H6.86597H6.83073H6.79556H6.76044H6.72538H6.69038H6.65545H6.62057H6.58576H6.55102H6.51633H6.48171H6.44716H6.41267H6.37825H6.34389H6.3096H6.27538H6.24123H6.20715H6.17314H6.1392H6.10533H6.07153H6.0378H6.00415H5.97057H5.93706H5.90363H5.87028H5.837H5.80379H5.77067H5.73762H5.70465H5.67176H5.63895H5.60622H5.57357H5.54101H5.50852H5.47612H5.4438H5.41156H5.37941H5.34735H5.31537H5.28348H5.25167H5.21995H5.18832H5.15678H5.12533H5.09397H5.0627H5.03152H5.00043H4.96943H4.93853H4.90772H4.87701H4.84639H4.81587H4.78544H4.75511H4.72488H4.69474H4.66471H4.63477H4.60493H4.5752H4.54556H4.51603H4.4866H4.45727H4.42805H4.39893H4.36991H4.341H4.3122H4.2835H4.25491H4.22643H4.19805H4.16979H4.14163H4.11359H4.08565H4.05783H4.03012H4.00252H3.97504H3.94767H3.92041H3.89327H3.86625H3.83934H3.81255H3.78587H3.75932H3.73288H3.70657H3.68037H3.65429H3.62834H3.6025H3.57679H3.55121H3.52574H3.5004H3.47519H3.4501H3.42514H3.4003H3.37559H3.35101H3.32656H3.30224H3.27805H3.25399H3.23005H3.20626H3.18259H3.15905H3.13565H3.11239H3.08926H3.06626H3.0434H3.02068H2.99809H2.97564H2.95333H2.93116H2.90913H2.88724H2.86549H2.84388H2.82241L2.80109 9.49408H2.77991H2.75887H2.73798H2.71723H2.69663H2.67618H2.65587H2.63571H2.6157H2.59584H2.57612H2.55656H2.53715H2.51788H2.49877H2.47982H2.46101H2.44236H2.42387H2.40553H2.38734H2.36931H2.35144H2.33372H2.31617H2.29877H2.28153H2.26445H2.24753H2.23077H2.21418H2.19774H2.18147H2.16536H2.14942H2.13364H2.11803H2.10258H2.0873H2.07219H2.05724H2.04246H2.02786H2.01342H1.99915H1.98505H1.97113H1.95737H1.94379H1.93038H1.91715H1.90409H1.8912H1.8785H1.86596H1.85361H1.84143H1.82943H1.81761H1.80597H1.79451H1.78323H1.77213H1.76121H1.75047H1.73992H1.72955H1.71937H1.70937H1.69956H1.68993H1.68049H1.67124H1.66217H1.6533H1.64461H1.63611H1.6278H1.61969H1.61176H1.60403H1.59649H1.58915H1.582H1.57504H1.56828H1.56171H1.55534H1.54917H1.5432H1.53742H1.53184H1.52647C1.16748 9.49408 0.876465 9.20307 0.876465 8.84409ZM1.52647 15.6365C1.16748 15.6365 0.876465 15.9275 0.876465 16.2865C0.876465 16.6454 1.16748 16.9365 1.52647 16.9365H1.5296H1.53286H1.53623H1.53971H1.54331H1.54703H1.55086H1.5548H1.55886H1.56303H1.56732H1.57171H1.57622H1.58085H1.58558H1.59043H1.59538H1.60045H1.60563H1.61092H1.61631H1.62182H1.62744H1.63316H1.63899H1.64493H1.65098H1.65714H1.6634H1.66977H1.67624H1.68282H1.68951H1.6963H1.7032H1.7102H1.7173H1.72451H1.73182H1.73923H1.74675H1.75436H1.76208H1.76991H1.77783H1.78585H1.79397H1.8022H1.81052H1.81894H1.82747H1.83609H1.8448H1.85362H1.86253H1.87154H1.88065H1.88986H1.89916H1.90855H1.91804H1.92763H1.93731H1.94709H1.95696H1.96692H1.97698H1.98712H1.99737H2.0077H2.01813H2.02864H2.03925H2.04995H2.06074H2.07162H2.08259H2.09365H2.10479H2.11603H2.12735H2.13877H2.15026H2.16185H2.17353H2.18529H2.19713H2.20906H2.22108H2.23318H2.24537H2.25764H2.27H2.28244H2.29496H2.30756H2.32025H2.33302H2.34587H2.3588H2.37182H2.38491H2.39809H2.41134H2.42468H2.43809H2.45159H2.46516H2.47881H2.49254H2.50634H2.52023H2.53419H2.54822H2.56233H2.57652H2.59079H2.60512H2.61954H2.63402H2.64859H2.66322H2.67793H2.69271H2.70756H2.72249H2.73749H2.75256H2.7677H2.78291H2.79819H2.81354H2.82896H2.84445H2.86001H2.87564H2.89134H2.9071H2.92294H2.93883H2.9548H2.97083H2.98693H3.0031H3.01933H3.03562H3.05198H3.0684H3.08489H3.10144H3.11806H3.13474H3.15148H3.16828H3.18514H3.20207H3.21905H3.2361H3.25321H3.27038H3.28761H3.30489H3.32224H3.33964H3.35711H3.37463H3.39221H3.40984H3.42754H3.44528H3.46309H3.48095H3.49887H3.51684H3.53486H3.55294H3.57108H3.58927H3.60751H3.6258H3.64415H3.66255H3.681H3.6995H3.71806H3.73666H3.75531H3.77402H3.79277H3.81158H3.83043H3.84933H3.86828H3.88728H3.90632H3.92542H3.94456H3.96374H3.98297H4.00225H4.02157H4.04094H4.06036H4.07981H4.09931H4.11886H4.13845H4.15808H4.17775H4.19747H4.21723H4.23703H4.25687H4.27675H4.29667H4.31663H4.33663H4.35667H4.37675H4.39687H4.41703H4.43722H4.45745H4.47772H4.49803H4.51837H4.53875H4.55917H4.57962H4.6001H4.62062H4.64118H4.66176H4.68239H4.70304H4.72373H4.74445H4.7652H4.78599H4.8068H4.82765H4.84853H4.86944H4.89038H4.91135H4.93234H4.95337H4.97443H4.99551H5.01662H5.03776H5.05893H5.08012H5.10134H5.12259H5.14386H5.16516H5.18648H5.20783H5.2292H5.2506H5.27201H5.29346H5.31492H5.33641H5.35792H5.37945H5.40101H5.42258H5.44418H5.46579H5.48743H5.50909H5.53076H5.55246H5.57417H5.5959H5.61765H5.63942H5.6612H5.683H5.70482H5.72665H5.7485H5.77037H5.79225H5.81414H5.83605H5.85797H5.87991H5.90186H5.92382H5.9458H5.96779H5.98979H6.0118H6.03382H6.05585H6.0779H6.09995H6.12201H6.14409H6.16617H6.18826H6.21036H6.23247H6.25458H6.2767H6.29883H6.32097H6.34311H6.36525H6.38741H6.40957H6.43173H6.45389H6.47607H6.49824H6.52042H6.5426H6.56478H6.58697H6.60916H6.63134H6.65353H6.67573H6.69792H6.72011H6.7423H6.76449H6.78668H6.80887H6.83106H6.85324H6.87542H6.8976H6.91978H6.94195H6.96412H6.98629H7.00845H7.0306H7.05275H7.0749H7.09704H7.11917H7.14129H7.16341H7.18553H7.20763H7.22972H7.25181H7.27389H7.29596H7.31802H7.34007H7.36211H7.38414H7.40615H7.42816H7.45016H7.47214H7.49411H7.51607H7.53801H7.55994H7.58186H7.60376H7.62565H7.64753H7.66938H7.69123H7.71305H7.73487H7.75666H7.77844H7.8002H7.82194H7.84366H7.86537H7.88705H7.90872H7.93037H7.952H7.9736H7.99519H8.01676H8.0383H8.05983H8.08133H8.10281H8.12426H8.1457H8.1671H8.18849H8.20985H8.23119H8.2525H8.27379H8.29505H8.31629H8.33749H8.35868H8.37983H8.40096H8.42206H8.44313H8.46418H8.48519H8.50618H8.52713H8.54806H8.56896H8.58982H8.61066H8.63146H8.65223H8.67297H8.69368H8.71435H8.735H8.7556H8.77618H8.79672H8.81722H8.83769H8.85813H8.87853H8.89889H8.91922H8.93951H8.95977H8.97998H9.00016H9.0203H9.04041H9.06047H9.08049H9.10048H9.12043H9.14033H9.16019H9.18002H9.1998H9.21954H9.23924H9.25889H9.27851H9.29808H9.31761H9.33709H9.35653H9.37592H9.39527H9.41458H9.43384H9.45305H9.47221H9.49134H9.51041H9.52943H9.54841H9.56734H9.58622H9.60506H9.62384H9.64257H9.66126H9.67989H9.69847H9.71701H9.73549H9.75392H9.77229H9.79062H9.80889H9.82711H9.84528H9.86339H9.88145H9.89945H9.9174H9.9353H9.95313H9.97091H9.98864H10.0063H10.0239H10.0415H10.059H10.0764H10.0938H10.1111H10.1284H10.1456H10.1627H10.1798H10.1968H10.2138H10.2307H10.2475H10.2643H10.281H10.2977H10.3143H10.3308H10.3472H10.3636H10.38H10.3962H10.4124H10.4286C10.7876 16.9365 11.0786 16.6454 11.0786 16.2865C11.0786 15.9275 10.7876 15.6365 10.4286 15.6365H10.4124H10.3962H10.38H10.3636H10.3472H10.3308H10.3143H10.2977H10.281H10.2643H10.2475H10.2307H10.2138H10.1968H10.1798H10.1627H10.1456H10.1284H10.1111H10.0938H10.0764H10.059H10.0415H10.0239H10.0063H9.98864H9.97091H9.95313H9.9353H9.9174H9.89945H9.88145H9.86339H9.84528L9.82711 15.6365H9.80889H9.79062H9.77229H9.75392H9.73549H9.71701H9.69847H9.67989H9.66126H9.64257H9.62384H9.60506H9.58622H9.56734H9.54841H9.52943H9.51041H9.49133H9.47221H9.45305H9.43384H9.41458H9.39527H9.37592H9.35653H9.33709H9.31761H9.29808H9.27851H9.25889H9.23924H9.21954H9.1998H9.18002H9.16019H9.14033H9.12043H9.10048H9.08049H9.06047H9.04041H9.0203H9.00016H8.97998H8.95977H8.93951H8.91922H8.89889H8.87853H8.85813H8.83769H8.81722H8.79672H8.77618H8.7556H8.735H8.71435H8.69368H8.67297H8.65223H8.63146H8.61066H8.58982H8.56896H8.54806H8.52713H8.50618H8.48519H8.46418H8.44313H8.42206H8.40096H8.37983H8.35868H8.33749H8.31629H8.29505H8.27379H8.2525H8.23119H8.20985H8.18849H8.1671H8.1457H8.12426H8.10281H8.08133H8.05983H8.0383H8.01676H7.99519H7.9736H7.952H7.93037H7.90872H7.88705H7.86537H7.84366H7.82194H7.8002H7.77844H7.75666H7.73487H7.71305H7.69123H7.66938H7.64753H7.62565H7.60376H7.58186H7.55994H7.53801H7.51607H7.49411H7.47214H7.45016H7.42816H7.40615H7.38414H7.36211H7.34007H7.31802H7.29596H7.27389H7.25181H7.22972H7.20763H7.18553H7.16341H7.14129H7.11917H7.09704H7.0749H7.05275H7.0306H7.00845H6.98629H6.96412H6.94195H6.91978H6.8976H6.87542H6.85324H6.83106H6.80887H6.78668H6.76449H6.7423H6.72011H6.69792H6.67573H6.65353H6.63134H6.60916H6.58697H6.56478H6.5426H6.52042H6.49824H6.47607H6.45389H6.43173H6.40957H6.38741H6.36525H6.34311H6.32097H6.29883H6.2767H6.25458H6.23247H6.21036H6.18826H6.16617H6.14409H6.12201H6.09995H6.0779H6.05585H6.03382H6.0118H5.98979H5.96779H5.9458H5.92382H5.90186H5.87991H5.85797H5.83605H5.81414H5.79225H5.77037H5.7485H5.72665H5.70482H5.683H5.6612H5.63942H5.61765H5.5959H5.57417H5.55246H5.53076H5.50909H5.48743H5.46579H5.44418H5.42258H5.40101H5.37945H5.35792H5.33641H5.31492H5.29346H5.27201H5.2506H5.2292H5.20783H5.18648H5.16516H5.14386H5.12259H5.10134H5.08012H5.05893H5.03776H5.01662H4.99551H4.97443H4.95337H4.93234H4.91135H4.89038H4.86944H4.84853H4.82765H4.8068H4.78599H4.7652H4.74445H4.72373H4.70304H4.68239H4.66176H4.64118H4.62062H4.6001H4.57962H4.55917H4.53875H4.51837H4.49803H4.47772H4.45745H4.43722H4.41703H4.39687H4.37675H4.35667H4.33663H4.31663H4.29667H4.27675H4.25687H4.23703H4.21723H4.19747H4.17775H4.15808H4.13845H4.11886H4.09931H4.07981H4.06036H4.04094H4.02157H4.00225H3.98297H3.96374H3.94456H3.92542H3.90632H3.88728H3.86828H3.84933H3.83043H3.81158H3.79277H3.77402H3.75531H3.73666H3.71806H3.6995H3.681H3.66255H3.64415H3.6258H3.60751H3.58927H3.57108H3.55294H3.53486H3.51684H3.49887H3.48095H3.46309H3.44528H3.42754H3.40984H3.39221H3.37463H3.35711H3.33964H3.32224H3.30489H3.28761H3.27038H3.25321H3.2361H3.21905H3.20207H3.18514H3.16828H3.15148H3.13474H3.11806H3.10144H3.08489H3.0684H3.05198H3.03562H3.01933H3.0031H2.98693H2.97083H2.9548H2.93883H2.92294H2.9071H2.89134H2.87564H2.86001H2.84445H2.82896H2.81354H2.79819H2.78291H2.7677H2.75256H2.73749H2.72249H2.70756H2.69271H2.67793H2.66322H2.64859H2.63402H2.61954H2.60512H2.59079H2.57652H2.56233H2.54822H2.53419H2.52023H2.50634H2.49254H2.47881H2.46516H2.45159L2.43809 15.6365H2.42468H2.41134H2.39809H2.38491H2.37182H2.3588H2.34587H2.33302H2.32025H2.30756H2.29496H2.28244H2.27H2.25764H2.24537H2.23318H2.22108H2.20906H2.19713H2.18529H2.17353H2.16185H2.15026H2.13877H2.12735H2.11603H2.10479H2.09365H2.08259H2.07162H2.06074H2.04995H2.03925H2.02864H2.01813H2.0077H1.99737H1.98712H1.97698H1.96692H1.95696H1.94709H1.93731H1.92763H1.91804H1.90855H1.89916H1.88986H1.88065H1.87154H1.86253H1.85362H1.8448H1.83609H1.82747H1.81894H1.81052H1.8022H1.79397H1.78585H1.77783H1.76991H1.76208H1.75436H1.74675H1.73923H1.73182H1.72451H1.7173H1.7102H1.7032H1.6963H1.68951H1.68282H1.67624H1.66977H1.6634H1.65714H1.65098H1.64493H1.63899H1.63316H1.62744H1.62182H1.61631H1.61092H1.60563H1.60045H1.59538H1.59043H1.58558H1.58085H1.57622H1.57171H1.56731H1.56303H1.55886H1.5548H1.55086H1.54703H1.54331H1.53971H1.53623H1.53286H1.5296H1.52647Z" fill="#454545"/>
</svg>
