<svg width="23" height="25" viewBox="0 0 23 25" fill="none" xmlns="http://www.w3.org/2000/svg">
<path opacity="0.4" fill-rule="evenodd" clip-rule="evenodd" d="M9.94034 7.18667V0.981915C9.94034 0.306861 10.7565 -0.0312266 11.2339 0.446083L22.4758 11.6868C22.7717 11.9827 22.7717 12.4626 22.4758 12.7585L11.2338 23.9992C10.7565 24.4765 9.94034 24.1385 9.94034 23.4634V17.4104H6.79838V7.18667H9.94034ZM8.13835 8.52664H11.2803V2.38744L21.1166 12.2227L11.2803 22.0579V16.0704H8.13835V8.52664ZM4.45511 6.18885C4.08508 6.18885 3.78512 6.48882 3.78512 6.85884V18.2041C3.78512 18.5741 4.08508 18.8741 4.45511 18.8741C4.82513 18.8741 5.12509 18.5741 5.12509 18.2041V6.85884C5.12509 6.48882 4.82513 6.18885 4.45511 6.18885ZM0.59424 4.75205C0.59424 4.38203 0.894201 4.08207 1.26423 4.08207C1.63425 4.08207 1.93421 4.38203 1.93421 4.75205V19.6933C1.93421 20.0634 1.63424 20.3633 1.26423 20.3633C0.894201 20.3633 0.594238 20.0634 0.594238 19.6933L0.59424 4.75205Z" fill="#454545"/>
</svg>
