<svg width="25" height="22" viewBox="0 0 25 22" fill="none" xmlns="http://www.w3.org/2000/svg">
<path fill-rule="evenodd" clip-rule="evenodd" d="M9.14997 2.47796C10.9523 2.0663 12.8369 2.20729 14.5579 2.88254C16.2789 3.55779 17.7565 4.73597 18.7981 6.26343C19.5747 7.40245 20.082 8.69628 20.2898 10.0473L17.3185 7.72263C17.0357 7.50143 16.6272 7.55132 16.406 7.83406C16.1848 8.11679 16.2347 8.52532 16.5174 8.74652L20.7807 12.0819C20.9242 12.1942 21.1084 12.2411 21.2882 12.2111C21.468 12.1811 21.6269 12.077 21.7262 11.9242L24.6759 7.38552C24.8716 7.08452 24.7861 6.68192 24.4851 6.4863C24.1841 6.29068 23.7815 6.3761 23.5859 6.6771L21.5648 9.7869C21.3218 8.26768 20.7465 6.81341 19.8721 5.53106C18.6834 3.78772 16.997 2.44304 15.0327 1.67235C13.0685 0.901672 10.9176 0.740759 8.8605 1.2106C6.80343 1.68044 4.93568 2.75923 3.50081 4.30629C2.06594 5.85335 1.13053 7.79688 0.816577 9.88343C0.502623 11.97 0.824692 14.1027 1.74078 16.0035C2.65687 17.9043 4.12447 19.485 5.95219 20.5393C7.77992 21.5937 9.88294 22.0728 11.987 21.9143C12.345 21.8873 12.6133 21.5753 12.5863 21.2173C12.5594 20.8593 12.2473 20.591 11.8893 20.618C10.0458 20.7569 8.20319 20.3371 6.60179 19.4133C5.00039 18.4894 3.71452 17.1045 2.91187 15.4391C2.10922 13.7737 1.82703 11.905 2.10211 10.0769C2.37718 8.24868 3.19676 6.54581 4.45396 5.19032C5.71115 3.83483 7.34763 2.88962 9.14997 2.47796Z" fill="#454545"/>
</svg>
