<svg width="22" height="17" viewBox="0 0 22 17" fill="none" xmlns="http://www.w3.org/2000/svg">
<path opacity="0.4" fill-rule="evenodd" clip-rule="evenodd" d="M0.734863 1.4022C0.734863 1.04321 1.02588 0.752197 1.38486 0.752197H1.3917H1.39879H1.40613H1.41372H1.42156H1.42966H1.438H1.44659H1.45543H1.46452H1.47386H1.48344H1.49326H1.50334H1.51365H1.52421H1.53501H1.54605H1.55733H1.56885H1.58061H1.5926H1.60484H1.61731H1.63002H1.64296H1.65614H1.66955H1.68319H1.69706H1.71117H1.7255H1.74007H1.75486H1.76989H1.78514H1.80061H1.81631H1.83224H1.84839H1.86476H1.88136H1.89818H1.91522H1.93248H1.94996H1.96766H1.98557H2.0037H2.02205H2.04062H2.0594H2.07839H2.0976H2.11702H2.13665H2.15649H2.17654H2.1968H2.21727H2.23795H2.25884H2.27993H2.30123H2.32273H2.34443H2.36634H2.38845H2.41076H2.43328H2.45599H2.4789H2.50201H2.52532H2.54883H2.57253H2.59643H2.62052H2.6448H2.66928H2.69395H2.71881H2.74387H2.76911H2.79454H2.82016H2.84597H2.87197H2.89815H2.92451H2.95106H2.9778H3.00471H3.03181H3.05909H3.08656H3.1142H3.14202H3.17001H3.19819H3.22654H3.25507H3.28378H3.31265H3.34171H3.37093H3.40033H3.42989H3.45963H3.48954H3.51962H3.54986H3.58027H3.61085H3.6416H3.67251H3.70358H3.73482H3.76622H3.79778H3.82951H3.86139H3.89343H3.92564H3.958H3.99051H4.02319H4.05602H4.089H4.12214H4.15543H4.18888H4.22248H4.25622H4.29012H4.32417H4.35836H4.39271H4.4272H4.46184H4.49662H4.53155H4.56662H4.60184H4.6372H4.6727H4.70834H4.74412H4.78004H4.8161H4.85229H4.88863H4.9251H4.9617H4.99844H5.03532H5.07232H5.10946H5.14674H5.18414H5.22167H5.25933H5.29712H5.33504H5.37308H5.41126H5.44955H5.48797H5.52652H5.56519H5.60398H5.64289H5.68192H5.72107H5.76034H5.79973H5.83924H5.87887H5.91861H5.95846H5.99843H6.03852H6.07871H6.11902H6.15944H6.19997H6.24061H6.28136H6.32222H6.36319H6.40426H6.44544H6.48672H6.52811H6.5696H6.6112H6.6529H6.69469H6.73659H6.77859H6.82069H6.86288H6.90518H6.94757H6.99005H7.03263H7.07531H7.11807H7.16093H7.20389H7.24693H7.29007H7.33329H7.3766H7.42H7.46349H7.50707H7.55073H7.59447H7.6383H7.68222H7.72621H7.77029H7.81445H7.85869H7.90301H7.9474H7.99188H8.03643H8.08106H8.12577H8.17055H8.2154H8.26033H8.30533H8.3504H8.39554H8.44075H8.48603H8.53138H8.5768H8.62229H8.66784H8.71346H8.75914H8.80488H8.85069H8.89656H8.9425H8.98849H9.03455H9.08066H9.12683H9.17306H9.21935H9.26569H9.31209H9.35854H9.40505H9.45161H9.49822H9.54489H9.5916H9.63836H9.68518H9.73204H9.77895H9.82591H9.87291H9.91996H9.96705H10.0142H10.0614H10.1086H10.1559H10.2032H10.2505H10.2979H10.3453H10.3928H10.4403H10.4878H10.5354H10.583H10.6306H10.6783H10.726H10.7737H10.8215H10.8692H10.9171H10.9649H11.0128H11.0607H11.1086H11.1566H11.2045H11.2526H11.3006H11.3486H11.3967H11.4448H11.4929H11.541H11.5892H11.6373H11.6855H11.7337H11.7819H11.8301H11.8784H11.9266H11.9749H12.0231H12.0714H12.1197H12.168H12.2163H12.2646H12.313H12.3613H12.4096H12.458H12.5063H12.5547H12.603H12.6513H12.6997H12.748H12.7964H12.8447H12.8931H12.9414H12.9897H13.0381H13.0864H13.1347H13.183H13.2313H13.2796H13.3279H13.3761H13.4244H13.4726H13.5209H13.5691H13.6173H13.6655H13.7136H13.7618H13.8099H13.8581H13.9062H13.9542H14.0023H14.0503H14.0983H14.1463H14.1943H14.2422H14.2902H14.3381H14.3859H14.4338H14.4816H14.5293H14.5771H14.6248H14.6725H14.7202H14.7678H14.8154H14.8629H14.9104H14.9579H15.0054H15.0528H15.1001H15.1475H15.1947H15.242H15.2892H15.3364H15.3835H15.4305H15.4776H15.5246H15.5715H15.6184H15.6652H15.712H15.7588H15.8055H15.8521H15.8987H15.9452H15.9917H16.0381H16.0845H16.1308H16.1771H16.2233H16.2695H16.3156H16.3616H16.4076H16.4535H16.4993H16.5451H16.5908H16.6365H16.6821H16.7276H16.773H16.8184H16.8637H16.909H16.9542H16.9993H17.0443H17.0893H17.1342H17.179H17.2238H17.2685H17.313H17.3576H17.402H17.4464H17.4907H17.5349H17.579H17.623H17.667H17.7109H17.7547H17.7984H17.842H17.8855H17.929H17.9724H18.0156H18.0588H18.1019H18.1449H18.1879H18.2307H18.2734H18.316H18.3586H18.401H18.4434H18.4856H18.5278H18.5698H18.6118H18.6537H18.6954H18.7371H18.7786H18.8201H18.8614H18.9027H18.9438H18.9848H19.0257H19.0666H19.1073H19.1479H19.1883H19.2287H19.269H19.3091H19.3492H19.3891H19.4289H19.4686H19.5082H19.5476H19.587H19.6262H19.6653H19.7043H19.7431H19.7819H19.8205H19.859H19.8974H19.9356H19.9737H20.0117H20.0496H20.0873H20.1249H20.1624H20.1997H20.237H20.274H20.311H20.3478H20.3845H20.4211H20.4575H20.4937H20.5299H20.5659H20.6018H20.6375H20.6731H20.7085H20.7438H20.779C21.1379 0.752197 21.429 1.04321 21.429 1.4022C21.429 1.76118 21.1379 2.0522 20.779 2.0522H20.7438H20.7085H20.6731H20.6375H20.6018H20.5659H20.5299H20.4937H20.4575H20.4211H20.3845H20.3478H20.311H20.274H20.237H20.1997H20.1624H20.1249H20.0873H20.0496H20.0117H19.9737H19.9356H19.8974H19.859H19.8205H19.7819H19.7431H19.7043H19.6653H19.6262H19.587H19.5476H19.5082H19.4686H19.4289H19.3891H19.3492H19.3091H19.269H19.2287H19.1883H19.1479H19.1073H19.0666H19.0257H18.9848H18.9438H18.9027H18.8614H18.8201H18.7786H18.7371H18.6954H18.6537H18.6118H18.5698H18.5278H18.4856H18.4434H18.401H18.3586H18.316H18.2734H18.2307H18.1879H18.1449H18.1019H18.0588H18.0156H17.9724H17.929H17.8855H17.842H17.7984H17.7547H17.7109H17.667H17.623H17.579H17.5349H17.4907H17.4464H17.402H17.3576H17.313H17.2685H17.2238H17.179H17.1342H17.0893H17.0443H16.9993H16.9542H16.909H16.8637H16.8184H16.773H16.7276H16.6821H16.6365H16.5908H16.5451H16.4993H16.4535H16.4076H16.3616H16.3156H16.2695H16.2233H16.1771H16.1308H16.0845H16.0381H15.9917H15.9452H15.8987H15.8521H15.8055H15.7588H15.712H15.6652H15.6184H15.5715H15.5246H15.4776H15.4305H15.3835H15.3364H15.2892H15.242H15.1947H15.1475H15.1001H15.0528H15.0054H14.9579H14.9104H14.8629H14.8154H14.7678H14.7202H14.6725H14.6248H14.5771H14.5293H14.4816H14.4338H14.3859H14.3381H14.2902H14.2422H14.1943H14.1463H14.0983H14.0503H14.0023H13.9542H13.9062H13.8581H13.8099H13.7618H13.7136H13.6655H13.6173H13.5691H13.5209H13.4726H13.4244H13.3761H13.3279H13.2796H13.2313H13.183H13.1347H13.0864H13.0381H12.9897H12.9414H12.8931H12.8447H12.7964H12.748H12.6997H12.6513H12.603H12.5547H12.5063H12.458H12.4096H12.3613H12.313H12.2646H12.2163H12.168H12.1197H12.0714H12.0231H11.9749H11.9266H11.8784H11.8301H11.7819H11.7337H11.6855H11.6373H11.5892H11.541H11.4929H11.4448H11.3967H11.3486H11.3006H11.2526H11.2045H11.1566H11.1086H11.0607H11.0128H10.9649H10.9171H10.8692H10.8215H10.7737H10.726H10.6783H10.6306H10.583H10.5354H10.4878H10.4403H10.3928H10.3453H10.2979H10.2505H10.2032H10.1559H10.1086H10.0614H10.0142H9.96705H9.91996H9.87291H9.82591H9.77895H9.73204H9.68518H9.63836H9.5916H9.54489H9.49822H9.45161H9.40505H9.35854H9.31209H9.26569H9.21935H9.17306H9.12683H9.08066H9.03455H8.98849H8.9425H8.89656H8.85069H8.80488H8.75914H8.71346H8.66784H8.62229H8.5768H8.53138H8.48603H8.44075H8.39554H8.3504H8.30533H8.26033H8.2154H8.17055H8.12577H8.08106H8.03643H7.99188H7.9474H7.90301H7.85869H7.81445H7.77029H7.72621H7.68222H7.6383H7.59447H7.55073H7.50707H7.46349H7.42H7.3766H7.33329H7.29007H7.24693H7.20389H7.16093H7.11807H7.07531H7.03263H6.99005H6.94757H6.90518H6.86288H6.82069H6.77859H6.73659H6.69469H6.6529H6.6112H6.5696H6.52811H6.48672H6.44544H6.40426H6.36319H6.32222H6.28136H6.24061H6.19997H6.15944H6.11902H6.07871H6.03852H5.99843H5.95846H5.91861H5.87887H5.83924H5.79973H5.76034H5.72107H5.68192H5.64289H5.60398H5.56519H5.52652H5.48797H5.44955H5.41126H5.37308H5.33504H5.29712H5.25933H5.22167H5.18414H5.14674H5.10946H5.07232H5.03532H4.99844H4.9617H4.9251H4.88863H4.85229H4.8161H4.78004H4.74412H4.70834H4.6727H4.6372H4.60184H4.56662H4.53155H4.49662H4.46184H4.4272H4.39271H4.35836H4.32417H4.29012H4.25622H4.22248H4.18888H4.15543H4.12214H4.089H4.05602H4.02319H3.99051H3.958H3.92564H3.89343H3.86139H3.82951H3.79778H3.76622H3.73482H3.70358H3.67251H3.6416H3.61085H3.58027H3.54986H3.51962H3.48954H3.45963H3.42989H3.40033H3.37093H3.34171H3.31265H3.28378H3.25507H3.22654H3.19819H3.17001H3.14202H3.1142H3.08656H3.05909H3.03181H3.00471H2.9778H2.95106H2.92451H2.89815H2.87197H2.84597H2.82016H2.79454H2.76911H2.74387H2.71881H2.69395H2.66928H2.6448H2.62052H2.59643H2.57253H2.54883H2.52532H2.50201H2.4789H2.45599H2.43328H2.41076H2.38845H2.36634H2.34443H2.32273H2.30123H2.27993H2.25884H2.23795H2.21727H2.1968H2.17654H2.15649H2.13665H2.11702H2.0976H2.07839H2.0594H2.04062H2.02205H2.0037H1.98557H1.96766H1.94996H1.93248H1.91522H1.89818H1.88136H1.86476H1.84839H1.83224H1.81631H1.80061H1.78514H1.76989H1.75486H1.74007H1.7255H1.71117H1.69706H1.68319H1.66955H1.65614H1.64296H1.63002H1.61731H1.60484H1.5926H1.58061H1.56885H1.55733H1.54605H1.53501H1.52421H1.51365H1.50334H1.49326H1.48344H1.47386H1.46452H1.45543H1.44659H1.438H1.42966H1.42156H1.41372H1.40613H1.39879H1.3917H1.38486C1.02588 2.0522 0.734863 1.76118 0.734863 1.4022ZM4.86817 8.84457C4.86817 8.48559 5.15919 8.19457 5.51818 8.19457H5.52355H5.52913H5.53491H5.54088H5.54705H5.55342H5.55999H5.56675H5.5737H5.58086H5.5882H5.59574H5.60347H5.6114H5.61951H5.62782H5.63632H5.64501H5.65388H5.66295H5.6722H5.68164H5.69127H5.70108H5.71108H5.72126H5.73163H5.74218H5.75292H5.76384H5.77494H5.78622H5.79768H5.80932H5.82114H5.83314H5.84532H5.85767H5.8702H5.88291H5.8958H5.90886H5.92209H5.9355H5.94908H5.96283H5.97676H5.99086H6.00513H6.01957H6.03417H6.04895H6.0639H6.07901H6.09429H6.10974H6.12535H6.14113H6.15707H6.17318H6.18945H6.20589H6.22248H6.23924H6.25616H6.27324H6.29048H6.30788H6.32543H6.34315H6.36102H6.37905H6.39723H6.41558H6.43407H6.45272H6.47153H6.49048H6.50959H6.52885H6.54827H6.56783H6.58754H6.60741H6.62742H6.64758H6.66789H6.68834H6.70894H6.72969H6.75058H6.77162H6.7928L6.81412 8.19458H6.83559H6.8572H6.87895H6.90084H6.92287H6.94504H6.96735H6.9898H7.01239H7.03511H7.05797H7.08097H7.1041H7.12736H7.15076H7.1743H7.19796H7.22176H7.2457H7.26976H7.29395H7.31827H7.34272H7.3673H7.39201H7.41685H7.44181H7.4669H7.49211H7.51745H7.54292H7.5685H7.59421H7.62005H7.646H7.67208H7.69827H7.72459H7.75103H7.77758H7.80426H7.83105H7.85796H7.88498H7.91212H7.93938H7.96675H7.99423H8.02183H8.04954H8.07736H8.1053H8.13334H8.1615H8.18976H8.21814H8.24662H8.27521H8.30391H8.33271H8.36162H8.39064H8.41976H8.44898H8.47831H8.50774H8.53727H8.56691H8.59664H8.62648H8.65642H8.68645H8.71659H8.74682H8.77715H8.80758H8.8381H8.86872H8.89943H8.93024H8.96114H8.99214H9.02322H9.0544H9.08568H9.11704H9.14849H9.18003H9.21166H9.24338H9.27518H9.30708H9.33906H9.37112H9.40327H9.43551H9.46783H9.50023H9.53271H9.56528H9.59793H9.63066H9.66347H9.69636H9.72933H9.76238H9.7955H9.82871H9.86199H9.89534H9.92877H9.96228H9.99586H10.0295H10.0632H10.097H10.1309H10.1648H10.1989H10.2329H10.2671H10.3013H10.3356H10.37H10.4044H10.4389H10.4734H10.508H10.5427H10.5775H10.6123H10.6472H10.6821H10.7171H10.7521H10.7873H10.8224H10.8577H10.893H10.9283H10.9637H10.9992H11.0347H11.0703H11.1059H11.1416H11.1774H11.2131H11.249H11.2849H11.3208H11.3568H11.3929H11.429H11.4651H11.5013H11.5375H11.5738H11.6102H11.6465H11.683H11.7194H11.7559H11.7925H11.8291H11.8657H11.9024L11.9391 8.19458H11.9759H12.0127H12.0495H12.0864H12.1233H12.1602H12.1972H12.2343H12.2713H12.3084H12.3455H12.3827H12.4199H12.4571H12.4943H12.5316H12.5689H12.6063H12.6437H12.6811H12.7185H12.7559H12.7934H12.8309H12.8685H12.906H12.9436H12.9812H13.0189H13.0565H13.0942H13.1319H13.1696H13.2073H13.2451H13.2828H13.3206H13.3584H13.3963H13.4341H13.472H13.5098H13.5477H13.5856H13.6235H13.6614H13.6994H13.7373H13.7753H13.8132H13.8512H13.8892H13.9272H13.9652H14.0032H14.0412H14.0792H14.1173H14.1553H14.1933H14.2314H14.2694H14.3074H14.3455H14.3835H14.4216H14.4596H14.4976H14.5357H14.5737H14.6118H14.6498H14.6878H14.7258H14.7639H14.8019H14.8399H14.8779H14.9159H14.9538H14.9918H15.0298H15.0677H15.1057H15.1436H15.1815H15.2194H15.2573H15.2952H15.3331H15.3709H15.4087H15.4466H15.4844H15.5221H15.5599H15.5976H15.6354H15.6731H15.7108H15.7484H15.7861H15.8237H15.8613H15.8989H15.9364H15.9739H16.0114H16.0489H16.0863H16.1238H16.1611H16.1985H16.2358H16.2731H16.3104H16.3477H16.3849H16.422H16.4592H16.4963H16.5334H16.5704H16.6074H16.6444H16.6813H16.7182H16.7551H16.7919H16.8287H16.8654H16.9021H16.9388H16.9754H17.012H17.0485L17.085 8.19458H17.1215H17.1579H17.1942H17.2305H17.2668H17.303H17.3392H17.3753H17.4114H17.4474H17.4834H17.5193H17.5552H17.591H17.6268H17.6625H17.6982H17.7338H17.7693H17.8048H17.8403H17.8757H17.911H17.9463H17.9815H18.0166H18.0517H18.0867H18.1217H18.1566H18.1915H18.2263H18.261H18.2956H18.3302H18.3648H18.3992H18.4336H18.4679H18.5022H18.5364H18.5705H18.6046H18.6385H18.6725H18.7063H18.7401H18.7738H18.8074H18.8409H18.8744H18.9078H18.9411H18.9744H19.0076H19.0407H19.0737H19.1066H19.1395H19.1722H19.2049H19.2375H19.2701H19.3025H19.3349H19.3672H19.3994H19.4315H19.4635H19.4955H19.5273H19.5591H19.5908H19.6224H19.6539H19.6853H19.7166H19.7479H19.779H19.81H19.841H19.8719H19.9026H19.9333H19.9639H19.9944H20.0248H20.055H20.0852H20.1153H20.1453H20.1752H20.205H20.2347H20.2643H20.2938H20.3232H20.3525H20.3817H20.4107H20.4397H20.4686H20.4973H20.526H20.5545H20.583H20.6113H20.6395H20.6676H20.6956H20.7235H20.7513H20.779C21.1379 8.19458 21.429 8.48559 21.429 8.84458C21.429 9.20356 21.1379 9.49457 20.779 9.49457H20.7513H20.7235H20.6956H20.6676H20.6395H20.6113H20.583H20.5545H20.526H20.4973H20.4686H20.4397H20.4107H20.3817H20.3525H20.3232H20.2938H20.2643H20.2347H20.205H20.1752H20.1453H20.1153H20.0852H20.055H20.0248H19.9944H19.9639H19.9333H19.9026H19.8719H19.841H19.81H19.779H19.7479H19.7166H19.6853H19.6539H19.6224H19.5908H19.5591H19.5273H19.4955H19.4635H19.4315H19.3994H19.3672H19.3349H19.3025H19.2701H19.2375H19.2049H19.1722H19.1395H19.1066H19.0737H19.0406H19.0076H18.9744H18.9411H18.9078H18.8744H18.8409H18.8074H18.7738H18.7401H18.7063H18.6725H18.6385H18.6046H18.5705H18.5364H18.5022H18.4679H18.4336H18.3992H18.3648H18.3302H18.2956H18.261H18.2263H18.1915H18.1566H18.1217H18.0867H18.0517H18.0166H17.9815H17.9463H17.911H17.8757H17.8403H17.8048H17.7693H17.7338H17.6982H17.6625H17.6268H17.591H17.5552H17.5193H17.4834H17.4474H17.4114H17.3753H17.3392H17.303H17.2668H17.2305H17.1942H17.1579H17.1215H17.085L17.0485 9.49457H17.012H16.9754H16.9388H16.9021H16.8654H16.8287H16.7919H16.7551H16.7182H16.6813H16.6444H16.6074H16.5704H16.5334H16.4963H16.4592H16.422H16.3849H16.3477H16.3104H16.2731H16.2358H16.1985H16.1611H16.1238H16.0863H16.0489H16.0114H15.9739H15.9364H15.8989H15.8613H15.8237H15.7861H15.7484H15.7108H15.6731H15.6354H15.5976H15.5599H15.5221H15.4844H15.4466H15.4087H15.3709H15.3331H15.2952H15.2573H15.2194H15.1815H15.1436H15.1057H15.0677H15.0298H14.9918H14.9538H14.9159H14.8779H14.8399H14.8019H14.7639H14.7258H14.6878H14.6498H14.6118H14.5737H14.5357H14.4976H14.4596H14.4216H14.3835H14.3455H14.3074H14.2694H14.2314H14.1933H14.1553H14.1173H14.0792H14.0412H14.0032H13.9652H13.9272H13.8892H13.8512H13.8132H13.7753H13.7373H13.6994H13.6614H13.6235H13.5856H13.5477H13.5098H13.472H13.4341H13.3963H13.3584H13.3206H13.2828H13.2451H13.2073H13.1696H13.1319H13.0942H13.0565H13.0189H12.9812H12.9436H12.906H12.8685H12.8309H12.7934H12.7559H12.7185H12.6811H12.6437H12.6063H12.5689H12.5316H12.4943H12.4571H12.4199H12.3827H12.3455H12.3084H12.2713H12.2343H12.1972H12.1602H12.1233H12.0864H12.0495H12.0127H11.9759H11.9391H11.9024H11.8657H11.8291H11.7925H11.7559H11.7194H11.683H11.6465H11.6102H11.5738H11.5375H11.5013H11.4651H11.429H11.3929H11.3568H11.3208H11.2849H11.249H11.2131H11.1774H11.1416H11.1059H11.0703H11.0347H10.9992H10.9637H10.9283H10.893H10.8577H10.8224H10.7873H10.7521H10.7171H10.6821H10.6472H10.6123H10.5775H10.5427H10.508H10.4734H10.4389H10.4044H10.37H10.3356H10.3013H10.2671H10.2329H10.1989H10.1648H10.1309H10.097H10.0632H10.0295H9.99586H9.96228H9.92877H9.89534H9.86199H9.82871H9.7955H9.76238H9.72933H9.69636H9.66347H9.63066H9.59793H9.56528H9.53271H9.50023H9.46783H9.43551H9.40327H9.37112H9.33906H9.30708H9.27518H9.24338H9.21166H9.18003H9.14849H9.11704H9.08568H9.0544H9.02322H8.99214H8.96114H8.93024H8.89943H8.86872H8.8381H8.80758H8.77715H8.74682H8.71659H8.68645H8.65642H8.62648H8.59664H8.56691H8.53727H8.50774H8.47831H8.44898H8.41975H8.39064H8.36162H8.33271H8.30391H8.27521H8.24662H8.21813H8.18976H8.1615H8.13334H8.1053H8.07736H8.04954H8.02183H7.99423H7.96675H7.93938H7.91212H7.88498H7.85796H7.83105H7.80426H7.77758H7.75103H7.72459H7.69827H7.67208H7.646H7.62005H7.59421H7.5685H7.54292H7.51745H7.49211H7.4669H7.44181H7.41685H7.39201H7.3673H7.34272H7.31827H7.29395H7.26976H7.24569H7.22176H7.19796H7.1743H7.15076H7.12736H7.1041H7.08097H7.05797H7.03511H7.01239H6.9898H6.96735H6.94504H6.92287H6.90084H6.87895H6.8572H6.83559H6.81412L6.7928 9.49457H6.77162H6.75058H6.72969H6.70894H6.68834H6.66789H6.64758H6.62742H6.60741H6.58754H6.56783H6.54827H6.52885H6.50959H6.49048H6.47153H6.45272H6.43407H6.41558H6.39723H6.37905H6.36102H6.34315H6.32543H6.30788H6.29048H6.27324H6.25616H6.23924H6.22248H6.20588H6.18945H6.17318H6.15707H6.14113H6.12535H6.10974H6.09429H6.07901H6.0639H6.04895H6.03417H6.01957H6.00513H5.99086H5.97676H5.96283H5.94908H5.9355H5.92209H5.90886H5.8958H5.88291H5.8702H5.85767H5.84532H5.83314H5.82114H5.80932H5.79768H5.78622H5.77494H5.76384H5.75292H5.74218H5.73163H5.72126H5.71108H5.70108H5.69127H5.68164H5.6722H5.66295H5.65388H5.64501H5.63632H5.62782H5.61951H5.6114H5.60347H5.59574H5.5882H5.58086H5.5737H5.56675H5.55999H5.55342H5.54705H5.54088H5.5349H5.52913H5.52355H5.51818C5.15919 9.49457 4.86817 9.20356 4.86817 8.84457ZM11.8771 15.6365C11.5181 15.6365 11.2271 15.9275 11.2271 16.2865C11.2271 16.6454 11.5181 16.9365 11.8771 16.9365H11.8802H11.8835H11.8868H11.8903H11.8939H11.8976H11.9015H11.9054H11.9095H11.9136H11.9179H11.9223H11.9268H11.9315H11.9362H11.941H11.946H11.9511H11.9562H11.9615H11.9669H11.9724H11.978H11.9838H11.9896H11.9955H12.0016H12.0077H12.014H12.0204H12.0269H12.0334H12.0401H12.0469H12.0538H12.0608H12.0679H12.0751H12.0824H12.0898H12.0974H12.105H12.1127H12.1205H12.1284H12.1365H12.1446H12.1528H12.1611H12.1696H12.1781H12.1867H12.1954H12.2042H12.2131H12.2222H12.2313H12.2405H12.2498H12.2592H12.2687H12.2782H12.2879H12.2977H12.3076H12.3175H12.3276H12.3377H12.348H12.3583H12.3687H12.3793H12.3899H12.4006H12.4113H12.4222H12.4332H12.4443H12.4554H12.4666H12.478H12.4894H12.5009H12.5125H12.5241H12.5359H12.5477H12.5597H12.5717H12.5838H12.596H12.6083H12.6206H12.633H12.6456H12.6582H12.6709H12.6836H12.6965H12.7094H12.7224H12.7355H12.7487H12.762H12.7753H12.7887H12.8022H12.8158H12.8294H12.8431H12.857H12.8708H12.8848H12.8988H12.9129H12.9271H12.9414H12.9557H12.9701H12.9846H12.9992H13.0138H13.0285H13.0433H13.0582H13.0731H13.0881H13.1032H13.1183H13.1335H13.1488H13.1642H13.1796H13.1951H13.2106H13.2263H13.2419H13.2577H13.2735H13.2894H13.3054H13.3214H13.3375H13.3537H13.3699H13.3862H13.4026H13.419H13.4355H13.4521H13.4687H13.4853H13.5021H13.5189H13.5358H13.5527H13.5697H13.5867H13.6038H13.621H13.6382H13.6555H13.6728H13.6903H13.7077H13.7252H13.7428H13.7605H13.7781H13.7959H13.8137H13.8316H13.8495H13.8674H13.8855H13.9036H13.9217H13.9399H13.9581H13.9764H13.9948H14.0132H14.0316H14.0501H14.0687H14.0873H14.1059H14.1246H14.1434H14.1622H14.181H14.1999H14.2189H14.2379H14.2569H14.276H14.2952H14.3144H14.3336H14.3529H14.3722H14.3916H14.411H14.4304H14.4499H14.4695H14.4891H14.5087H14.5284H14.5481H14.5678H14.5876H14.6075H14.6274H14.6473H14.6672H14.6872H14.7073H14.7274H14.7475H14.7676H14.7878H14.8081H14.8283H14.8486H14.869H14.8894H14.9098H14.9302H14.9507H14.9712H14.9918H15.0124H15.033H15.0537H15.0743H15.0951H15.1158H15.1366H15.1574H15.1783H15.1991H15.22H15.241H15.262H15.283H15.304H15.325H15.3461H15.3672H15.3884H15.4095H15.4307H15.452H15.4732H15.4945H15.5158H15.5371H15.5584H15.5798H15.6012H15.6226H15.6441H15.6655H15.687H15.7085H15.7301H15.7516H15.7732H15.7948H15.8164H15.838H15.8597H15.8814H15.9031H15.9248H15.9465H15.9683H15.99H16.0118H16.0336H16.0554H16.0773H16.0991H16.121H16.1429H16.1648H16.1867H16.2086H16.2305H16.2525H16.2744H16.2964H16.3184H16.3404H16.3624H16.3844H16.4065H16.4285H16.4506H16.4726H16.4947H16.5168H16.5389H16.561H16.5831H16.6052H16.6273H16.6494H16.6716H16.6937H16.7159H16.738H16.7602H16.7823H16.8045H16.8267H16.8489H16.871H16.8932H16.9154H16.9376H16.9598H16.982H17.0041H17.0263H17.0485H17.0707H17.0929H17.1151H17.1373H17.1595H17.1817H17.2039H17.226H17.2482H17.2704H17.2926H17.3147H17.3369H17.3591H17.3812H17.4034H17.4255H17.4476H17.4698H17.4919H17.514H17.5361H17.5582H17.5803H17.6024H17.6245H17.6466H17.6686H17.6907H17.7127H17.7347H17.7568H17.7788H17.8008H17.8227H17.8447H17.8667H17.8886H17.9106H17.9325H17.9544H17.9763H17.9981H18.02H18.0418H18.0637H18.0855H18.1073H18.129H18.1508H18.1725H18.1943H18.216H18.2377H18.2593H18.281H18.3026H18.3242H18.3458H18.3674H18.3889H18.4104H18.4319H18.4534H18.4749H18.4963H18.5177H18.5391H18.5605H18.5818H18.6031H18.6244H18.6457H18.6669H18.6881H18.7093H18.7304H18.7516H18.7727H18.7937H18.8148H18.8358H18.8568H18.8777H18.8987H18.9196H18.9404H18.9613H18.9821H19.0028H19.0236H19.0443H19.065H19.0856H19.1062H19.1268H19.1473H19.1678H19.1883H19.2087H19.2291H19.2495H19.2698H19.2901H19.3104H19.3306H19.3508H19.3709H19.391H19.4111H19.4311H19.4511H19.471H19.4909H19.5108H19.5306H19.5504H19.5702H19.5899H19.6095H19.6291H19.6487H19.6682H19.6877H19.7071H19.7265H19.7459H19.7652H19.7844H19.8037H19.8228H19.8419H19.861H19.88H19.899H19.918H19.9368H19.9557H19.9745H19.9932H20.0119H20.0305H20.0491H20.0676H20.0861H20.1045H20.1229H20.1412H20.1595H20.1777H20.1959H20.214H20.2321H20.2501H20.268H20.2859H20.3037H20.3215H20.3393H20.3569H20.3745H20.3921H20.4096H20.427H20.4444H20.4617H20.479H20.4962H20.5133H20.5304H20.5474H20.5644H20.5813H20.5981H20.6149H20.6316H20.6483H20.6649H20.6814H20.6979H20.7143H20.7306H20.7469H20.7631H20.7792C21.1382 16.9365 21.4292 16.6454 21.4292 16.2865C21.4292 15.9275 21.1382 15.6365 20.7792 15.6365H20.7631H20.7469H20.7306H20.7143H20.6979H20.6814H20.6649H20.6483H20.6316H20.6149H20.5981H20.5813H20.5644H20.5474H20.5304H20.5133H20.4962H20.479H20.4617H20.4444H20.427H20.4096H20.3921H20.3745H20.3569H20.3393H20.3215H20.3037H20.2859H20.268H20.2501H20.2321H20.214H20.1959L20.1777 15.6365H20.1595H20.1412H20.1229H20.1045H20.0861H20.0676H20.0491H20.0305H20.0119H19.9932H19.9744H19.9557H19.9368H19.918H19.899H19.88H19.861H19.8419H19.8228H19.8037H19.7844H19.7652H19.7459H19.7265H19.7071H19.6877H19.6682H19.6487H19.6291H19.6095H19.5898H19.5702H19.5504H19.5306H19.5108H19.4909H19.471H19.4511H19.4311H19.4111H19.391H19.3709H19.3508H19.3306H19.3104H19.2901H19.2698H19.2495H19.2291H19.2087H19.1883H19.1678H19.1473H19.1268H19.1062H19.0856H19.065H19.0443H19.0236H19.0028H18.9821H18.9613H18.9404H18.9196H18.8987H18.8777H18.8568H18.8358H18.8148H18.7937H18.7727H18.7516H18.7304H18.7093H18.6881H18.6669H18.6457H18.6244H18.6031H18.5818H18.5605H18.5391H18.5177H18.4963H18.4749H18.4534H18.4319H18.4104H18.3889H18.3674H18.3458H18.3242H18.3026H18.281H18.2593H18.2377H18.216H18.1943H18.1725H18.1508H18.129H18.1073H18.0855H18.0637H18.0418H18.02H17.9981H17.9763H17.9544H17.9325H17.9106H17.8886H17.8667H17.8447H17.8227H17.8008H17.7788H17.7568H17.7347H17.7127H17.6907H17.6686H17.6466H17.6245H17.6024H17.5803H17.5582H17.5361H17.514H17.4919H17.4698H17.4476H17.4255H17.4034H17.3812H17.3591H17.3369H17.3147H17.2926H17.2704H17.2482H17.226H17.2039H17.1817H17.1595H17.1373H17.1151H17.0929H17.0707H17.0485H17.0263H17.0041H16.982H16.9598H16.9376H16.9154H16.8932H16.871H16.8489H16.8267H16.8045H16.7823H16.7602H16.738H16.7159H16.6937H16.6716H16.6494H16.6273H16.6052H16.5831H16.561H16.5389H16.5168H16.4947H16.4726H16.4506H16.4285H16.4065H16.3844H16.3624H16.3404H16.3184H16.2964H16.2744H16.2525H16.2305H16.2086H16.1867H16.1648H16.1429H16.121H16.0991H16.0773H16.0554H16.0336H16.0118H15.99H15.9683H15.9465H15.9248H15.9031H15.8814H15.8597H15.838H15.8164H15.7948H15.7732H15.7516H15.7301H15.7085H15.687H15.6655H15.6441H15.6226H15.6012H15.5798H15.5584H15.5371H15.5158H15.4945H15.4732H15.452H15.4307H15.4095H15.3884H15.3672H15.3461H15.325H15.304H15.283H15.262H15.241H15.22H15.1991H15.1783H15.1574H15.1366H15.1158H15.0951H15.0743H15.0537H15.033H15.0124H14.9918H14.9712H14.9507H14.9302H14.9098H14.8894H14.869H14.8486H14.8283H14.8081H14.7878H14.7676H14.7475H14.7274H14.7073H14.6872H14.6672H14.6473H14.6274H14.6075H14.5876H14.5678H14.5481H14.5284H14.5087H14.4891H14.4695H14.4499H14.4304H14.411H14.3916H14.3722H14.3529H14.3336H14.3144H14.2952H14.276H14.2569H14.2379H14.2189H14.1999H14.181H14.1622H14.1434H14.1246H14.1059H14.0873H14.0687H14.0501H14.0316H14.0132H13.9948H13.9764H13.9581H13.9399H13.9217H13.9036H13.8855H13.8674H13.8495H13.8316H13.8137H13.7959H13.7781H13.7605H13.7428H13.7252H13.7077H13.6903H13.6728H13.6555H13.6382H13.621H13.6038H13.5867H13.5697H13.5527H13.5358H13.5189H13.5021H13.4853H13.4687H13.4521H13.4355H13.419H13.4026H13.3862H13.3699H13.3537H13.3375H13.3214H13.3054H13.2894H13.2735H13.2577H13.2419H13.2263H13.2106H13.1951H13.1796H13.1642H13.1488H13.1335H13.1183H13.1032H13.0881H13.0731H13.0582H13.0433H13.0285H13.0138H12.9992H12.9846H12.9701H12.9557H12.9414H12.9271H12.9129H12.8988H12.8848H12.8708H12.857H12.8431H12.8294H12.8158H12.8022L12.7887 15.6365H12.7753H12.762H12.7487H12.7355H12.7224H12.7094H12.6965H12.6836H12.6709H12.6582H12.6456H12.633H12.6206H12.6083H12.596H12.5838H12.5717H12.5597H12.5477H12.5359H12.5241H12.5125H12.5009H12.4894H12.478H12.4666H12.4554H12.4443H12.4332H12.4222H12.4113H12.4006H12.3899H12.3793H12.3687H12.3583H12.348H12.3377H12.3276H12.3175H12.3076H12.2977H12.2879H12.2782H12.2687H12.2592H12.2498H12.2405H12.2313H12.2222H12.2131H12.2042H12.1954H12.1867H12.1781H12.1696H12.1611H12.1528H12.1446H12.1365H12.1284H12.1205H12.1127H12.105H12.0974H12.0898H12.0824H12.0751H12.0679H12.0608H12.0538H12.0469H12.0401H12.0334H12.0269H12.0204H12.014H12.0077H12.0016H11.9955H11.9896H11.9838H11.978H11.9724H11.9669H11.9615H11.9562H11.9511H11.946H11.941H11.9362H11.9315H11.9268H11.9223H11.9179H11.9136H11.9095H11.9054H11.9015H11.8976H11.8939H11.8903H11.8868H11.8835H11.8802H11.8771Z" fill="#454545"/>
</svg>
