<svg width="24" height="25" viewBox="0 0 24 25" fill="none" xmlns="http://www.w3.org/2000/svg">
<path fill-rule="evenodd" clip-rule="evenodd" d="M13.7491 7.18667V0.981915C13.7491 0.306861 12.933 -0.0312266 12.4556 0.446083L1.21366 11.6868C0.917711 11.9827 0.917711 12.4626 1.21366 12.7585L12.4556 23.9992C12.933 24.4765 13.7491 24.1385 13.7491 23.4634V17.4104H16.8911V7.18667H13.7491ZM15.5511 8.52664H12.4091V2.38744L2.57288 12.2227L12.4091 22.0579V16.0704H15.5511V8.52664ZM19.2343 6.18885C19.6044 6.18885 19.9043 6.48882 19.9043 6.85884V18.2041C19.9043 18.5741 19.6044 18.8741 19.2343 18.8741C18.8643 18.8741 18.5644 18.5741 18.5644 18.2041V6.85884C18.5644 6.48882 18.8643 6.18885 19.2343 6.18885ZM23.0952 4.75205C23.0952 4.38203 22.7953 4.08207 22.4252 4.08207C22.0552 4.08207 21.7552 4.38203 21.7552 4.75205V19.6933C21.7552 20.0634 22.0552 20.3633 22.4252 20.3633C22.7953 20.3633 23.0952 20.0634 23.0952 19.6933L23.0952 4.75205Z" fill="#454545"/>
</svg>
