<svg width="25" height="25" viewBox="0 0 25 25" fill="none" xmlns="http://www.w3.org/2000/svg">
<path fill-rule="evenodd" clip-rule="evenodd" d="M12.9122 1.5229H19.2622C21.3057 1.5229 22.9622 3.17945 22.9622 5.2229V19.2229C22.9622 21.2664 21.3057 22.9229 19.2622 22.9229H12.9122V22.056C12.9122 21.697 12.6212 21.406 12.2622 21.406C11.9032 21.406 11.6122 21.697 11.6122 22.056V22.9229H5.26221C3.21875 22.9229 1.56221 21.2664 1.56221 19.2229V5.2229C1.56221 3.17945 3.21875 1.5229 5.26221 1.5229H11.6122V2.26965C11.6122 2.62864 11.9032 2.91965 12.2622 2.91965C12.6212 2.91965 12.9122 2.62864 12.9122 2.26965V1.5229ZM0.262207 5.2229C0.262207 2.46148 2.50078 0.2229 5.26221 0.2229H19.2622C22.0236 0.2229 24.2622 2.46148 24.2622 5.2229V19.2229C24.2622 21.9843 22.0236 24.2229 19.2622 24.2229H5.26221C2.50078 24.2229 0.262207 21.9843 0.262207 19.2229V5.2229ZM17.3056 8.31431C17.0517 8.06047 16.6402 8.06047 16.3863 8.31431C16.1325 8.56815 16.1325 8.9797 16.3863 9.23355L19.3156 12.1628L16.3863 15.0921C16.1325 15.346 16.1325 15.7575 16.3863 16.0114C16.6402 16.2652 17.0517 16.2652 17.3056 16.0114L20.6945 12.6225C20.9483 12.3686 20.9483 11.9571 20.6945 11.7032L17.3056 8.31431ZM8.13784 8.37436C7.884 8.12052 7.47244 8.12052 7.2186 8.37436L3.82969 11.7633C3.57585 12.0171 3.57585 12.4287 3.82969 12.6825L7.2186 16.0714C7.47244 16.3253 7.884 16.3253 8.13784 16.0714C8.39168 15.8176 8.39168 15.406 8.13784 15.1522L5.20855 12.2229L8.13784 9.2936C8.39168 9.03976 8.39168 8.62821 8.13784 8.37436ZM12.9122 4.46814C12.9122 4.10915 12.6212 3.81814 12.2622 3.81814C11.9032 3.81814 11.6122 4.10915 11.6122 4.46814V6.66663C11.6122 7.02561 11.9032 7.31663 12.2622 7.31663C12.6212 7.31663 12.9122 7.02561 12.9122 6.66663V4.46814ZM12.9122 8.86511C12.9122 8.50613 12.6212 8.21511 12.2622 8.21511C11.9032 8.21511 11.6122 8.50613 11.6122 8.86511V11.0636C11.6122 11.4226 11.9032 11.7136 12.2622 11.7136C12.6212 11.7136 12.9122 11.4226 12.9122 11.0636V8.86511ZM12.9122 13.2621C12.9122 12.9031 12.6212 12.6121 12.2622 12.6121C11.9032 12.6121 11.6122 12.9031 11.6122 13.2621V15.4606C11.6122 15.8196 11.9032 16.1106 12.2622 16.1106C12.6212 16.1106 12.9122 15.8196 12.9122 15.4606V13.2621ZM12.9122 17.6591C12.9122 17.3001 12.6212 17.0091 12.2622 17.0091C11.9032 17.0091 11.6122 17.3001 11.6122 17.6591V19.8575C11.6122 20.2165 11.9032 20.5075 12.2622 20.5075C12.6212 20.5075 12.9122 20.2165 12.9122 19.8575V17.6591Z" fill="#454545"/>
</svg>
