<svg width="29" height="28" viewBox="0 0 29 28" fill="none" xmlns="http://www.w3.org/2000/svg">
<path d="M13.3905 1.11537C13.7845 0.261231 14.9984 0.261233 15.3924 1.11538L18.6786 8.23993C18.8392 8.58804 19.1691 8.82773 19.5498 8.87287L27.3412 9.79666C28.2753 9.90741 28.6504 11.0619 27.9598 11.7006L22.1994 17.0276C21.918 17.2879 21.792 17.6757 21.8667 18.0517L23.3958 25.7472C23.5791 26.6698 22.597 27.3833 21.7762 26.9239L14.9299 23.0916C14.5953 22.9044 14.1876 22.9044 13.853 23.0916L7.00671 26.9239C6.18593 27.3833 5.20382 26.6698 5.38714 25.7472L6.91622 18.0517C6.99094 17.6757 6.86493 17.2879 6.58347 17.0276L0.823118 11.7006C0.132526 11.0619 0.507659 9.90741 1.44174 9.79666L9.2331 8.87287C9.61379 8.82773 9.9437 8.58804 10.1043 8.23993L13.3905 1.11537Z" fill="#F36523"/>
</svg>
