<svg width="10" height="13" viewBox="0 0 10 13" fill="none" xmlns="http://www.w3.org/2000/svg">
<path d="M3.93311 0.598877L4.02979 0.273682H9.84814L9.73389 0.598877C9.20654 0.598877 8.80225 0.716064 8.521 0.950439C8.24561 1.18481 8.00244 1.67407 7.7915 2.41821L5.61182 10.0471C5.45361 10.5862 5.37451 10.9465 5.37451 11.1282C5.37451 11.3391 5.45654 11.5032 5.62061 11.6204C5.83154 11.7727 6.22998 11.8547 6.81592 11.8665L6.72803 12.1917H0.812988L0.909668 11.8665C1.50146 11.8665 1.93506 11.7551 2.21045 11.5325C2.48584 11.304 2.73486 10.8088 2.95752 10.0471L5.15479 2.41821C5.28955 1.94946 5.35693 1.59497 5.35693 1.35474C5.35693 1.13794 5.2749 0.968018 5.11084 0.844971C4.94678 0.721924 4.5542 0.639893 3.93311 0.598877Z" fill="#454545"/>
</svg>
