<svg width="25" height="25" viewBox="0 0 25 25" fill="none" xmlns="http://www.w3.org/2000/svg">
<path fill-rule="evenodd" clip-rule="evenodd" d="M20.4937 1.2229H4.49365C2.8368 1.2229 1.49365 2.56605 1.49365 4.2229V20.2229C1.49365 21.8798 2.8368 23.2229 4.49365 23.2229H20.4937C22.1505 23.2229 23.4937 21.8798 23.4937 20.2229V4.2229C23.4937 2.56605 22.1505 1.2229 20.4937 1.2229ZM4.49365 0.2229C2.28451 0.2229 0.493652 2.01376 0.493652 4.2229V20.2229C0.493652 22.432 2.28451 24.2229 4.49365 24.2229H20.4937C22.7028 24.2229 24.4937 22.432 24.4937 20.2229V4.2229C24.4937 2.01376 22.7028 0.2229 20.4937 0.2229H4.49365ZM9.89217 8.46655C9.41158 8.46655 8.99896 8.80842 8.90961 9.28063L8.76214 10.06C8.71079 10.3313 8.88913 10.5929 9.16046 10.6442C9.43178 10.6956 9.69336 10.5172 9.7447 10.2459L9.89217 9.46655H11.9937V14.9993H11.6353C11.3591 14.9993 11.1353 15.2231 11.1353 15.4993C11.1353 15.7754 11.3591 15.9993 11.6353 15.9993H13.3525C13.6287 15.9993 13.8525 15.7754 13.8525 15.4993C13.8525 15.2231 13.6287 14.9993 13.3525 14.9993H12.9937V9.46655H15.126L15.2394 10.2267C15.2801 10.4998 15.5345 10.6882 15.8076 10.6475C16.0807 10.6067 16.2691 10.3523 16.2284 10.0792L16.1151 9.31907C16.042 8.82916 15.6213 8.46655 15.126 8.46655H9.89217ZM6.4533 5.97056C6.62946 5.8975 6.82304 5.85693 7.02734 5.85693H8.39392C8.67006 5.85693 8.89392 5.63308 8.89392 5.35693C8.89392 5.08079 8.67006 4.85693 8.39392 4.85693H7.02734C6.68929 4.85693 6.3657 4.92431 6.07024 5.04683C5.81516 5.15261 5.69413 5.44514 5.7999 5.70022C5.90568 5.9553 6.19822 6.07634 6.4533 5.97056ZM11.1271 4.85693C10.8509 4.85693 10.6271 5.08079 10.6271 5.35693C10.6271 5.63308 10.8509 5.85693 11.1271 5.85693H13.8602C14.1364 5.85693 14.3602 5.63308 14.3602 5.35693C14.3602 5.08079 14.1364 4.85693 13.8602 4.85693H11.1271ZM16.5934 4.85693C16.3172 4.85693 16.0934 5.08079 16.0934 5.35693C16.0934 5.63308 16.3172 5.85693 16.5934 5.85693H17.96C18.1643 5.85693 18.3578 5.8975 18.534 5.97056C18.7891 6.07633 19.0816 5.9553 19.1874 5.70022C19.2932 5.44514 19.1721 5.15261 18.9171 5.04683C18.6216 4.92431 18.298 4.85693 17.96 4.85693H16.5934ZM20.2701 6.39983C20.1643 6.14475 19.8718 6.02372 19.6167 6.1295C19.3616 6.23527 19.2406 6.52781 19.3463 6.78289C19.4194 6.95905 19.46 7.15263 19.46 7.35693V8.5734C19.46 8.84955 19.6838 9.0734 19.96 9.0734C20.2361 9.0734 20.46 8.84955 20.46 8.5734V7.35693C20.46 7.01888 20.3926 6.69529 20.2701 6.39983ZM5.64097 6.78289C5.74675 6.52781 5.62571 6.23527 5.37063 6.1295C5.11555 6.02372 4.82302 6.14475 4.71724 6.39983C4.59472 6.6953 4.52734 7.01888 4.52734 7.35694V8.5734C4.52734 8.84955 4.7512 9.0734 5.02734 9.0734C5.30349 9.0734 5.52734 8.84955 5.52734 8.5734V7.35694C5.52734 7.15263 5.56791 6.95905 5.64097 6.78289ZM20.46 11.0063C20.46 10.7302 20.2361 10.5063 19.96 10.5063C19.6838 10.5063 19.46 10.7302 19.46 11.0063V13.4393C19.46 13.7154 19.6838 13.9393 19.96 13.9393C20.2361 13.9393 20.46 13.7154 20.46 13.4393V11.0063ZM5.52734 11.0063C5.52734 10.7302 5.30349 10.5063 5.02734 10.5063C4.7512 10.5063 4.52734 10.7302 4.52734 11.0063V13.4393C4.52734 13.7154 4.7512 13.9393 5.02734 13.9393C5.30349 13.9393 5.52734 13.7154 5.52734 13.4393V11.0063ZM20.46 15.8722C20.46 15.5961 20.2361 15.3722 19.96 15.3722C19.6838 15.3722 19.46 15.5961 19.46 15.8722V17.0887C19.46 17.293 19.4194 17.4866 19.3463 17.6627C19.2406 17.9178 19.3616 18.2104 19.6167 18.3161C19.8718 18.4219 20.1643 18.3009 20.2701 18.0458C20.3926 17.7503 20.46 17.4267 20.46 17.0887V15.8722ZM5.52734 15.8722C5.52734 15.5961 5.30349 15.3722 5.02734 15.3722C4.7512 15.3722 4.52734 15.5961 4.52734 15.8722V17.0887C4.52734 17.4268 4.59472 17.7503 4.71724 18.0458C4.82302 18.3009 5.11555 18.4219 5.37063 18.3161C5.62571 18.2104 5.74675 17.9178 5.64097 17.6627C5.56791 17.4866 5.52734 17.293 5.52734 17.0887V15.8722ZM6.45329 18.4751C6.19822 18.3693 5.90568 18.4903 5.7999 18.7454C5.69413 19.0005 5.81516 19.293 6.07024 19.3988C6.3657 19.5213 6.68929 19.5887 7.02734 19.5887H8.39392C8.67006 19.5887 8.89392 19.3648 8.89392 19.0887C8.89392 18.8125 8.67006 18.5887 8.39392 18.5887H7.02734C6.82303 18.5887 6.62946 18.5481 6.45329 18.4751ZM18.9171 19.3988C19.1721 19.293 19.2932 19.0005 19.1874 18.7454C19.0816 18.4903 18.7891 18.3693 18.534 18.4751C18.3578 18.5481 18.1643 18.5887 17.96 18.5887H16.5934C16.3172 18.5887 16.0934 18.8125 16.0934 19.0887C16.0934 19.3648 16.3172 19.5887 16.5934 19.5887H17.96C18.298 19.5887 18.6216 19.5213 18.9171 19.3988ZM11.1271 18.5887C10.8509 18.5887 10.6271 18.8125 10.6271 19.0887C10.6271 19.3648 10.8509 19.5887 11.1271 19.5887H13.8602C14.1364 19.5887 14.3602 19.3648 14.3602 19.0887C14.3602 18.8125 14.1364 18.5887 13.8602 18.5887H11.1271Z" fill="#CBCBCB"/>
</svg>
