<svg width="12" height="13" viewBox="0 0 12 13" fill="none" xmlns="http://www.w3.org/2000/svg">
<path d="M8.4624 5.87231C9.59326 6.13599 10.3872 6.45532 10.8442 6.83032C11.5005 7.36353 11.8286 8.05493 11.8286 8.90454C11.8286 9.80103 11.4683 10.5422 10.7476 11.1282C9.86279 11.8372 8.57666 12.1917 6.88916 12.1917H0.833496V11.8665C1.38428 11.8665 1.75635 11.8167 1.94971 11.717C2.14893 11.6116 2.28662 11.4768 2.36279 11.3127C2.44482 11.1487 2.48584 10.7444 2.48584 10.0999V2.36548C2.48584 1.72095 2.44482 1.31665 2.36279 1.15259C2.28662 0.982666 2.14893 0.8479 1.94971 0.748291C1.75049 0.648682 1.37842 0.598877 0.833496 0.598877V0.273682H6.54639C7.91162 0.273682 8.87842 0.396729 9.44678 0.642822C10.0151 0.883057 10.4634 1.24634 10.7915 1.73267C11.1196 2.21313 11.2837 2.72583 11.2837 3.27075C11.2837 3.84497 11.0757 4.35767 10.6597 4.80884C10.2437 5.25415 9.51123 5.60864 8.4624 5.87231ZM5.26318 5.63501C6.09521 5.63501 6.70752 5.54126 7.1001 5.35376C7.49854 5.16626 7.80322 4.90259 8.01416 4.56274C8.2251 4.2229 8.33057 3.78931 8.33057 3.26196C8.33057 2.73462 8.2251 2.30396 8.01416 1.96997C7.80908 1.63013 7.51318 1.37231 7.12646 1.19653C6.73975 1.02075 6.11865 0.935791 5.26318 0.94165V5.63501ZM5.26318 6.32056V10.1438L5.25439 10.5833C5.25439 10.8997 5.3335 11.1399 5.4917 11.304C5.65576 11.4622 5.896 11.5413 6.2124 11.5413C6.68115 11.5413 7.11182 11.4387 7.50439 11.2336C7.90283 11.0227 8.20752 10.7209 8.41846 10.3284C8.62939 9.92993 8.73486 9.48755 8.73486 9.00122C8.73486 8.44458 8.60596 7.94653 8.34814 7.50708C8.09033 7.06177 7.73584 6.75122 7.28467 6.57544C6.8335 6.39966 6.15967 6.3147 5.26318 6.32056Z" fill="#454545"/>
</svg>
