<svg width="14" height="17" viewBox="0 0 14 17" fill="none" xmlns="http://www.w3.org/2000/svg">
<path d="M1.25342 0.010498H7.40576V0.335693H7.09814C6.63525 0.335693 6.31592 0.385498 6.14014 0.485107C5.97021 0.578857 5.84717 0.710693 5.771 0.880615C5.70068 1.05054 5.66553 1.47534 5.66553 2.15503V7.99097C5.66553 9.05737 5.74463 9.76343 5.90283 10.1091C6.06689 10.4548 6.3335 10.7419 6.70264 10.9705C7.07178 11.199 7.5376 11.3132 8.1001 11.3132C8.74463 11.3132 9.29248 11.1697 9.74365 10.8826C10.2007 10.5896 10.5405 10.1882 10.7632 9.67847C10.9917 9.1687 11.106 8.28101 11.106 7.01538V2.15503C11.106 1.62183 11.0503 1.24097 10.939 1.01245C10.8276 0.783936 10.687 0.625732 10.5171 0.537842C10.2534 0.403076 9.88135 0.335693 9.40088 0.335693V0.010498H13.5229V0.335693H13.2769C12.9429 0.335693 12.6646 0.403076 12.4419 0.537842C12.2192 0.672607 12.0581 0.874756 11.9585 1.14429C11.8823 1.33179 11.8442 1.6687 11.8442 2.15503V6.6814C11.8442 8.08179 11.7505 9.09253 11.563 9.71362C11.3813 10.3347 10.9331 10.906 10.2183 11.4275C9.50342 11.949 8.52783 12.2097 7.2915 12.2097C6.26025 12.2097 5.46338 12.072 4.90088 11.7966C4.1333 11.4216 3.59131 10.9412 3.2749 10.3552C2.9585 9.76929 2.80029 8.9812 2.80029 7.99097V2.15503C2.80029 1.46948 2.76221 1.04468 2.68604 0.880615C2.60986 0.710693 2.47803 0.575928 2.29053 0.476318C2.10303 0.376709 1.75732 0.329834 1.25342 0.335693V0.010498Z" fill="#454545"/>
<path d="M0.831543 14.741H13.8306V16.4548H0.831543V14.741Z" fill="#454545"/>
</svg>
