<svg width="25" height="25" viewBox="0 0 25 25" fill="none" xmlns="http://www.w3.org/2000/svg">
<path fill-rule="evenodd" clip-rule="evenodd" d="M17.0021 6.43269C17.0021 9.12848 14.8407 11.316 12.172 11.316C9.50326 11.316 7.34188 9.12848 7.34188 6.43269C7.34188 3.73689 9.50326 1.54942 12.172 1.54942C14.8407 1.54942 17.0021 3.73689 17.0021 6.43269ZM18.2391 6.43269C18.2391 9.8212 15.5228 12.5681 12.172 12.5681C8.82121 12.5681 6.10486 9.8212 6.10486 6.43269C6.10486 3.04417 8.82121 0.297241 12.172 0.297241C15.5228 0.297241 18.2391 3.04417 18.2391 6.43269ZM18.0883 13.5299C18.0463 13.5138 18.0036 13.5026 17.9609 13.496C17.8027 13.4154 17.6123 13.3995 17.4334 13.4679L13.5298 14.9607C13.4933 14.9543 13.4558 14.951 13.4175 14.951H10.8128L7.2766 13.4752C7.07639 13.3916 6.85815 13.4157 6.68628 13.521C6.67796 13.5238 6.66966 13.5268 6.66139 13.5299C5.18883 14.0964 4.41602 14.578 3.28496 15.6283C2.15323 16.6793 1.25236 17.93 0.636621 19.3105C0.0511137 20.6231 0.366867 21.9071 1.16284 22.8299C1.94327 23.7346 3.17995 24.2972 4.50038 24.2972L12.172 24.2972H20.1696C21.49 24.2972 22.7267 23.7346 23.5071 22.8299C24.3031 21.9071 24.6189 20.6231 24.0333 19.3105C23.4176 17.93 22.5167 16.6793 21.385 15.6283C20.2661 14.5892 19.5751 14.1019 18.0883 13.5299ZM17.7486 14.7392C18.9927 15.2267 19.5498 15.6233 20.5487 16.551C21.5612 17.4913 22.3612 18.6045 22.9059 19.8257C23.2701 20.6423 23.0898 21.4098 22.5753 22.0063C22.0453 22.6208 21.1571 23.0451 20.1696 23.0451H12.172L4.50038 23.0451C3.51286 23.0451 2.62467 22.6208 2.09464 22.0063C1.58014 21.4098 1.39984 20.6423 1.76405 19.8257C2.30874 18.6045 3.10875 17.4913 4.12122 16.551C5.09905 15.643 5.72695 15.2401 6.96434 14.7535C8.60048 15.4363 9.52498 16.0138 10.5979 16.3094C10.5979 16.3094 13.9739 16.2982 13.9296 16.3094C13.9296 16.3094 16.1491 15.5546 17.7486 14.7392Z" fill="#F36523"/>
</svg>
