<svg width="21" height="25" viewBox="0 0 21 25" fill="none" xmlns="http://www.w3.org/2000/svg">
<path d="M18.0327 2.90203H13.4672C13.0199 1.63658 11.8199 0.720215 10.3963 0.720215C8.97267 0.720215 7.77267 1.63658 7.3254 2.90203H2.75994C1.55449 2.90203 0.578125 3.8784 0.578125 5.08385V22.5384C0.578125 23.7439 1.55449 24.7202 2.75994 24.7202H18.0327C19.2381 24.7202 20.2145 23.7439 20.2145 22.5384V5.08385C20.2145 3.8784 19.2381 2.90203 18.0327 2.90203ZM10.3963 2.90203C10.9963 2.90203 11.4872 3.38749 11.4872 3.99294C11.4872 4.5984 10.9963 5.08385 10.3963 5.08385C9.79631 5.08385 9.3054 4.5984 9.3054 3.99294C9.3054 3.38749 9.79631 2.90203 10.3963 2.90203ZM18.0327 22.5384H2.75994V5.08385H4.94176V8.35658H15.8509V5.08385H18.0327V22.5384Z" fill="white"/>
</svg>
