<svg width="20" height="25" viewBox="0 0 20 25" fill="none" xmlns="http://www.w3.org/2000/svg">
<path d="M2.12955 9.07938L2.51464 20.7351C2.54745 21.7333 2.96796 22.6795 3.68694 23.3727C4.40592 24.066 5.36676 24.4518 6.36553 24.4483H13.6822C14.6803 24.4519 15.6406 24.0666 16.3595 23.3741C17.0784 22.6817 17.4993 21.7365 17.5331 20.7389L17.9182 9.07938C17.9266 8.82405 17.8333 8.57583 17.6587 8.38933C17.4841 8.20283 17.2426 8.09331 16.9872 8.08489C16.7319 8.07646 16.4837 8.16981 16.2972 8.3444C16.1107 8.51899 16.0012 8.76051 15.9928 9.01584L15.6077 20.6744C15.5885 21.1721 15.3772 21.643 15.0182 21.9882C14.6591 22.3334 14.1803 22.5261 13.6822 22.5257H6.36553C5.86682 22.5261 5.38743 22.3329 5.02829 21.9868C4.66916 21.6408 4.45829 21.1689 4.44009 20.6706L4.055 9.01584C4.04657 8.76051 3.93706 8.51899 3.75056 8.3444C3.56406 8.16981 3.31584 8.07646 3.06051 8.08489C2.80518 8.09331 2.56365 8.20283 2.38906 8.38933C2.21448 8.57583 2.12113 8.82405 2.12955 9.07938ZM0.855873 5.20057C0.855873 5.4559 0.957302 5.70078 1.13785 5.88132C1.31839 6.06187 1.56327 6.16329 1.8186 6.16329H18.2282C18.4835 6.16329 18.7284 6.06187 18.9089 5.88132C19.0895 5.70078 19.1909 5.4559 19.1909 5.20057C19.1909 4.94524 19.0895 4.70037 18.9089 4.51983C18.7284 4.33928 18.4835 4.23785 18.2282 4.23785H15.2438C14.9387 4.23867 14.6443 4.12597 14.4178 3.92169C14.1912 3.7174 14.0488 3.43614 14.0182 3.13265C13.9472 2.4207 13.6136 1.7607 13.0825 1.28124C12.5515 0.801784 11.8609 0.537211 11.1454 0.539072H8.9023C8.18682 0.537211 7.49628 0.801784 6.96521 1.28124C6.43414 1.7607 6.10059 2.4207 6.02954 3.13265C5.99894 3.43614 5.85652 3.7174 5.62999 3.92169C5.40346 4.12597 5.10903 4.23867 4.804 4.23785H1.81956C1.56423 4.23785 1.31936 4.33928 1.13881 4.51983C0.958265 4.70037 0.855873 4.94524 0.855873 5.20057ZM12.3469 4.23785H7.6989C7.82541 3.94879 7.90815 3.64249 7.9444 3.32904C7.96825 3.09174 8.07933 2.87174 8.25613 2.71166C8.43292 2.55158 8.66284 2.46283 8.90134 2.46259H11.1445C11.383 2.46283 11.6129 2.55158 11.7897 2.71166C11.9665 2.87174 12.0776 3.09174 12.1014 3.32904C12.138 3.64254 12.2201 3.94884 12.3469 4.23785ZM11.3775 18.8241V10.6265C11.3775 10.3711 11.4789 10.1263 11.6594 9.94573C11.84 9.76518 12.0849 9.66375 12.3402 9.66375C12.5955 9.66375 12.8404 9.76518 13.0209 9.94573C13.2015 10.1263 13.3029 10.3711 13.3029 10.6265V18.8279C13.3029 19.0832 13.2015 19.3281 13.0209 19.5087C12.8404 19.6892 12.5955 19.7906 12.3402 19.7906C12.0849 19.7906 11.84 19.6892 11.6594 19.5087C11.4789 19.3281 11.3775 19.0832 11.3775 18.8279V18.8241ZM6.74292 18.8241V10.6265C6.74292 10.3711 6.84435 10.1263 7.02489 9.94573C7.20544 9.76518 7.45031 9.66375 7.70564 9.66375C7.96097 9.66375 8.20584 9.76518 8.38639 9.94573C8.56694 10.1263 8.66836 10.3711 8.66836 10.6265V18.8279C8.66836 19.0832 8.56694 19.3281 8.38639 19.5087C8.20584 19.6892 7.96097 19.7906 7.70564 19.7906C7.45031 19.7906 7.20544 19.6892 7.02489 19.5087C6.84435 19.3281 6.74292 19.0832 6.74292 18.8279V18.8241Z" fill="#FA452D"/>
</svg>
