<svg width="25" height="26" viewBox="0 0 25 26" fill="none" xmlns="http://www.w3.org/2000/svg">
<path fill-rule="evenodd" clip-rule="evenodd" d="M2.86621 24.3704H22.8699C23.2565 24.3704 23.5699 24.057 23.5699 23.6704V7.63889C23.5699 7.44162 23.4867 7.2535 23.3407 7.12083L17.203 1.54347C17.0742 1.42639 16.9064 1.36152 16.7323 1.36152H2.86621C2.47961 1.36152 2.16621 1.67492 2.16621 2.06152V23.6704C2.16621 24.057 2.47961 24.3704 2.86621 24.3704ZM2.86621 0.0615234C1.76164 0.0615234 0.866211 0.956955 0.866211 2.06152V23.6704C0.866211 24.775 1.76164 25.6704 2.86621 25.6704H22.8699C23.9745 25.6704 24.8699 24.775 24.8699 23.6704V7.63889C24.8699 7.07526 24.6321 6.53779 24.2149 6.15873L18.0773 0.581368C17.7092 0.246862 17.2297 0.0615234 16.7323 0.0615234H2.86621ZM12.8682 21.0175C15.2482 21.0175 17.1776 19.0881 17.1776 16.708C17.1776 14.328 15.2482 12.3986 12.8682 12.3986C10.4882 12.3986 8.55879 14.328 8.55879 16.708C8.55879 19.0881 10.4882 21.0175 12.8682 21.0175ZM12.8682 22.3175C15.9662 22.3175 18.4776 19.806 18.4776 16.708C18.4776 13.6101 15.9662 11.0986 12.8682 11.0986C9.77021 11.0986 7.25879 13.6101 7.25879 16.708C7.25879 19.806 9.77021 22.3175 12.8682 22.3175ZM8.72871 7.73158V6.32148H17.0078V7.73158H8.72871ZM7.42871 6.02148C7.42871 5.4692 7.87642 5.02148 8.42871 5.02148H17.3078C17.8601 5.02148 18.3078 5.4692 18.3078 6.02148V8.03158C18.3078 8.58387 17.8601 9.03158 17.3078 9.03158H8.42871C7.87643 9.03158 7.42871 8.58387 7.42871 8.03158V6.02148Z" fill="white"/>
</svg>
