<svg width="25" height="25" viewBox="0 0 25 25" fill="none" xmlns="http://www.w3.org/2000/svg">
<path d="M3.72805 19.2406H8.81457C8.97245 19.2415 9.12896 19.2112 9.27513 19.1515C9.42129 19.0918 9.55423 19.0039 9.66632 18.8927L17.9679 10.5791L21.3749 7.24405C21.4874 7.13253 21.5766 6.99985 21.6375 6.85366C21.6984 6.70747 21.7298 6.55067 21.7298 6.3923C21.7298 6.23393 21.6984 6.07713 21.6375 5.93094C21.5766 5.78475 21.4874 5.65207 21.3749 5.54055L16.2884 0.39404C16.1769 0.281598 16.0442 0.192351 15.898 0.131446C15.7518 0.0705414 15.595 0.0391846 15.4367 0.0391846C15.2783 0.0391846 15.1215 0.0705414 14.9753 0.131446C14.8291 0.192351 14.6964 0.281598 14.5849 0.39404L11.2019 3.78906L2.87629 12.1026C2.76511 12.2147 2.67714 12.3477 2.61744 12.4938C2.55774 12.64 2.52748 12.7965 2.52839 12.9544V18.0409C2.52839 18.3591 2.65479 18.6642 2.87976 18.8892C3.10474 19.1142 3.40988 19.2406 3.72805 19.2406ZM15.4367 2.9373L18.8317 6.33232L17.1282 8.03582L13.7331 4.64081L15.4367 2.9373ZM4.9277 13.4463L12.0416 6.33232L15.4367 9.72733L8.32271 16.8413H4.9277V13.4463ZM22.9225 21.6399H1.32874C1.01057 21.6399 0.705438 21.7663 0.480459 21.9912C0.255481 22.2162 0.129089 22.5214 0.129089 22.8395C0.129089 23.1577 0.255481 23.4628 0.480459 23.6878C0.705438 23.9128 1.01057 24.0392 1.32874 24.0392H22.9225C23.2406 24.0392 23.5458 23.9128 23.7708 23.6878C23.9957 23.4628 24.1221 23.1577 24.1221 22.8395C24.1221 22.5214 23.9957 22.2162 23.7708 21.9912C23.5458 21.7663 23.2406 21.6399 22.9225 21.6399Z" fill="#F36523"/>
</svg>
