<svg width="32" height="34" viewBox="0 0 32 34" fill="none" xmlns="http://www.w3.org/2000/svg">
<path fill-rule="evenodd" clip-rule="evenodd" d="M7.85918 9.65883H24.1408V5.23165L20.8645 1.84153H7.85918V9.65883ZM7.57388 0.605225C7.04866 0.605225 6.62288 1.031 6.62288 1.55623V9.65883V9.73926H3.21848C1.64281 9.73926 0.365479 11.0166 0.365479 12.5923V24.2526C0.365479 25.8283 1.64281 27.1056 3.21848 27.1056H5.24981V27.1345V30.2736C5.24981 31.8493 6.52715 33.1266 8.10282 33.1266H23.8973C25.473 33.1266 26.7503 31.8493 26.7503 30.2736V27.1345V27.1056H28.7814C30.3571 27.1056 31.6344 25.8283 31.6344 24.2526V12.5923C31.6344 11.0166 30.3571 9.73926 28.7814 9.73926H25.3771V9.65883V5.11631C25.3771 4.86971 25.2813 4.63276 25.11 4.45543L21.6694 0.895343C21.4902 0.709929 21.2434 0.605225 20.9855 0.605225H7.57388ZM28.7814 10.9756H3.21848C2.3256 10.9756 1.60178 11.6994 1.60178 12.5923V24.2526C1.60178 25.1455 2.3256 25.8693 3.21848 25.8693H28.7814C29.6743 25.8693 30.3981 25.1455 30.3981 24.2526V12.5923C30.3981 11.6994 29.6743 10.9756 28.7814 10.9756ZM4.63166 21.4389C4.63166 21.0975 4.90841 20.8208 5.24981 20.8208H10.3622C10.7036 20.8208 10.9804 21.0975 10.9804 21.4389C10.9804 21.7803 10.7036 22.0571 10.3622 22.0571H5.24981C4.90841 22.0571 4.63166 21.7803 4.63166 21.4389ZM5.24981 17.8044C4.90841 17.8044 4.63166 18.0811 4.63166 18.4225C4.63166 18.7639 4.90841 19.0407 5.24981 19.0407H10.3622C10.7036 19.0407 10.9804 18.7639 10.9804 18.4225C10.9804 18.0811 10.7036 17.8044 10.3622 17.8044H5.24981ZM11.121 5.71963C10.7796 5.71963 10.5029 5.99638 10.5029 6.33778C10.5029 6.67917 10.7796 6.95593 11.121 6.95593H20.8787C21.2201 6.95593 21.4968 6.67917 21.4968 6.33778C21.4968 5.99638 21.2201 5.71963 20.8787 5.71963H11.121ZM25.514 27.1345H6.48611V30.2736C6.48611 31.1665 7.20994 31.8903 8.10282 31.8903H23.8973C24.7902 31.8903 25.514 31.1665 25.514 30.2736V27.1345ZM26.3092 16.4467C26.824 16.4467 27.2413 16.0294 27.2413 15.5145C27.2413 14.9997 26.824 14.5824 26.3092 14.5824C25.7944 14.5824 25.377 14.9997 25.377 15.5145C25.377 16.0294 25.7944 16.4467 26.3092 16.4467Z" fill="white"/>
</svg>
