<svg width="13" height="13" viewBox="0 0 13 13" fill="none" xmlns="http://www.w3.org/2000/svg">
<path fill-rule="evenodd" clip-rule="evenodd" d="M6.97217 1.12402C6.97217 0.709809 6.63638 0.374023 6.22217 0.374023C5.80795 0.374023 5.47217 0.709809 5.47217 1.12402V5.44042H1.15576C0.741548 5.44042 0.405762 5.77621 0.405762 6.19042C0.405762 6.60464 0.741548 6.94042 1.15576 6.94042H5.47217V11.2565C5.47217 11.6707 5.80795 12.0065 6.22217 12.0065C6.63638 12.0065 6.97217 11.6707 6.97217 11.2565V6.94042H11.2881C11.7023 6.94042 12.0381 6.60464 12.0381 6.19042C12.0381 5.77621 11.7023 5.44042 11.2881 5.44042H6.97217V1.12402Z" fill="white"/>
</svg>
