<svg width="27" height="27" viewBox="0 0 27 27" fill="none" xmlns="http://www.w3.org/2000/svg">
<path fill-rule="evenodd" clip-rule="evenodd" d="M17.0924 5.82034C17.0924 3.0411 14.8394 0.788086 12.0602 0.788086H5.74344C2.96421 0.788086 0.711182 3.0411 0.711182 5.82034V21.7558C0.711182 24.5351 2.9642 26.7881 5.74344 26.7881H12.0602C14.8394 26.7881 17.0924 24.5351 17.0924 21.7558V18.7861C17.0924 18.2302 16.6418 17.7796 16.086 17.7796C15.5302 17.7796 15.0795 18.2302 15.0795 18.7861V21.7558C15.0795 23.4234 13.7277 24.7752 12.0602 24.7752H5.74344C4.0759 24.7752 2.72408 23.4234 2.72408 21.7558V5.82034C2.72408 4.1528 4.0759 2.80099 5.74344 2.80099H12.0602C13.7277 2.80099 15.0795 4.1528 15.0795 5.82034V8.87397C15.0795 9.42982 15.5302 9.88043 16.086 9.88043C16.6418 9.88043 17.0924 9.42982 17.0924 8.87397V5.82034ZM8.70015 13.7879C8.70015 13.2321 9.15076 12.7815 9.7066 12.7815H23.6835L20.366 8.38788C20.031 7.94428 20.1191 7.31315 20.5627 6.9782C21.0063 6.64325 21.6374 6.73133 21.9724 7.17492L26.4961 13.166C26.6308 13.3372 26.7112 13.5532 26.7112 13.7879C26.7112 14.0215 26.6316 14.2366 26.4981 14.4073L21.9724 20.4011C21.6374 20.8447 21.0063 20.9328 20.5627 20.5978C20.1191 20.2629 20.031 19.6317 20.366 19.1881L23.6836 14.7944H9.7066C9.15076 14.7944 8.70015 14.3438 8.70015 13.7879Z" fill="#FA452D"/>
</svg>
