<svg width="23" height="22" viewBox="0 0 23 22" fill="none" xmlns="http://www.w3.org/2000/svg">
<path d="M10.5995 0.90688C10.9935 0.0527372 12.2075 0.052737 12.6014 0.90688L15.0163 6.14239C15.1769 6.4905 15.5068 6.73019 15.8875 6.77533L21.613 7.45418C22.5471 7.56493 22.9222 8.71946 22.2316 9.3581L17.9986 13.2727C17.7172 13.533 17.5912 13.9208 17.6659 14.2968L18.7895 19.9519C18.9728 20.8744 17.9907 21.588 17.17 21.1285L12.1389 18.3124C11.8044 18.1251 11.3966 18.1251 11.0621 18.3124L6.03102 21.1285C5.21024 21.588 4.22813 20.8744 4.41145 19.9519L5.5351 14.2968C5.60981 13.9208 5.4838 13.533 5.20235 13.2727L0.969331 9.3581C0.278738 8.71946 0.653869 7.56493 1.58795 7.45418L7.31346 6.77533C7.69416 6.73019 8.02406 6.4905 8.18463 6.14239L10.5995 0.90688Z" fill="#D9D9D9"/>
</svg>
