<svg width="25" height="25" viewBox="0 0 25 25" fill="none" xmlns="http://www.w3.org/2000/svg">
<path fill-rule="evenodd" clip-rule="evenodd" d="M2.05008 1.59697C1.86672 1.59697 1.71807 1.74562 1.71807 1.92899V4.7378C1.71807 5.07834 1.44201 5.3544 1.10147 5.3544C0.760926 5.3544 0.484863 5.07834 0.484863 4.7378V1.92899C0.484863 1.06454 1.18564 0.36377 2.05008 0.36377H23.3442C24.2087 0.36377 24.9094 1.06454 24.9094 1.92899V4.7378C24.9094 5.07834 24.6334 5.3544 24.2928 5.3544C23.9523 5.3544 23.6762 5.07834 23.6762 4.7378V1.92899C23.6762 1.74562 23.5276 1.59697 23.3442 1.59697H13.1904V23.1306H15.9663C16.3069 23.1306 16.5829 23.4066 16.5829 23.7472C16.5829 24.0877 16.3069 24.3638 15.9663 24.3638H9.18163C8.84109 24.3638 8.56503 24.0877 8.56503 23.7472C8.56503 23.4066 8.84109 23.1306 9.18163 23.1306H11.9572V1.59697H2.05008Z" fill="#F36523"/>
</svg>
