<svg width="23" height="18" viewBox="0 0 23 18" fill="none" xmlns="http://www.w3.org/2000/svg">
<path fill-rule="evenodd" clip-rule="evenodd" d="M13.1432 1.75228C12.5963 1.82885 12.215 2.33432 12.2915 2.88127C12.3681 3.42821 12.8736 3.80953 13.4205 3.73296L18.1713 3.06785L12.6383 10.3684L9.07736 6.68883C8.87413 6.47882 8.58919 6.36823 8.29749 6.38614C8.00579 6.40404 7.73652 6.54866 7.5605 6.78194L0.932266 15.5664C0.599616 16.0073 0.687345 16.6343 1.12822 16.967C1.56909 17.2996 2.19615 17.2119 2.5288 16.771L8.45301 8.91961L12.0122 12.5974C12.2152 12.8071 12.4997 12.9177 12.791 12.9001C13.0824 12.8825 13.3515 12.7386 13.5278 12.5059L19.5458 4.56546L20.1428 8.82964C20.2194 9.37659 20.7249 9.7579 21.2718 9.68133C21.8188 9.60476 22.2001 9.09929 22.1235 8.55234L21.1558 1.64028C21.0793 1.09333 20.5738 0.712018 20.0268 0.788591L13.1432 1.75228Z" fill="#F36523"/>
</svg>
