<svg width="25" height="25" viewBox="0 0 25 25" fill="none" xmlns="http://www.w3.org/2000/svg">
<path fill-rule="evenodd" clip-rule="evenodd" d="M23.698 12.2618C23.698 18.1713 18.9075 22.9618 12.998 22.9618C7.0886 22.9618 2.29805 18.1713 2.29805 12.2618C2.29805 6.35239 7.0886 1.56184 12.998 1.56184C18.9075 1.56184 23.698 6.35239 23.698 12.2618ZM24.998 12.2618C24.998 18.8893 19.6255 24.2618 12.998 24.2618C6.37063 24.2618 0.998047 18.8893 0.998047 12.2618C0.998047 5.63442 6.37063 0.261841 12.998 0.261841C19.6255 0.261841 24.998 5.63442 24.998 12.2618ZM13.5627 18.4875C13.3369 18.7134 13.0545 18.8263 12.7157 18.8263C12.3769 18.8263 12.0945 18.7134 11.8687 18.4875C11.6428 18.2553 11.5299 17.973 11.5299 17.6405C11.5299 17.3079 11.6428 17.0318 11.8687 16.8122C12.0945 16.5926 12.3769 16.4828 12.7157 16.4828C13.0545 16.4828 13.3369 16.5926 13.5627 16.8122C13.7886 17.0318 13.9016 17.3079 13.9016 17.6405C13.9016 17.973 13.7886 18.2553 13.5627 18.4875ZM10.7986 9.4115C10.81 9.86207 10.475 10.2929 10.0249 10.3165C9.68856 10.3341 9.37994 10.1166 9.33597 9.78266C9.30527 9.54948 9.28992 9.29824 9.28992 9.02894C9.28992 8.03759 9.61304 7.23448 10.2593 6.61959C10.9056 6.00471 11.7808 5.69727 12.8851 5.69727C13.4812 5.69727 14.027 5.79452 14.5227 5.98902C15.0121 6.18353 15.4137 6.44391 15.7274 6.77018C16.0411 7.09644 16.2827 7.46349 16.4521 7.87132C16.6215 8.27288 16.7062 8.69012 16.7062 9.12305C16.7062 9.43677 16.6717 9.73166 16.6027 10.0077C16.5336 10.2838 16.4521 10.5191 16.358 10.7136C16.2576 10.9081 16.1227 11.1089 15.9533 11.3159C15.7838 11.523 15.6333 11.6893 15.5015 11.8147C15.3635 11.934 15.1847 12.0845 14.965 12.2665C14.7078 12.4735 14.5102 12.6461 14.3721 12.7841C14.2278 12.9159 14.0741 13.0853 13.911 13.2923C13.7478 13.4994 13.6318 13.719 13.5627 13.9511C13.4276 14.3567 13.1033 14.7135 12.6758 14.7135H12.6263C12.1715 14.7135 11.7863 14.3371 11.9115 13.8999L11.9157 13.8853C11.9847 13.6217 12.0694 13.399 12.1698 13.2171C12.2702 13.0351 12.4177 12.8406 12.6122 12.6335C12.8004 12.4265 12.9667 12.2634 13.111 12.1441C13.249 12.0187 13.4467 11.8524 13.7039 11.6453C14.1745 11.2751 14.5164 10.9144 14.7298 10.563C14.9431 10.2116 15.0498 9.7944 15.0498 9.31128C15.0498 8.65875 14.8521 8.12857 14.4568 7.72074C14.0615 7.31291 13.5251 7.10899 12.8475 7.10899C12.2075 7.10899 11.7055 7.30036 11.3416 7.68309C10.9777 8.06583 10.7958 8.56464 10.7958 9.17952C10.7958 9.25985 10.7967 9.33718 10.7986 9.4115Z" fill="#F36523"/>
</svg>
