<svg width="44" height="43" viewBox="0 0 44 43" fill="none" xmlns="http://www.w3.org/2000/svg">
<path fill-rule="evenodd" clip-rule="evenodd" d="M21.5336 0.701435C21.9487 0.340842 22.5659 0.340842 22.981 0.701435V0.701435L37.348 13.1818C37.8081 13.5815 37.8571 14.2785 37.4574 14.7386C37.0577 15.1987 36.3607 15.2477 35.9006 14.848L23.3609 3.955V25.4312C23.3609 26.0407 22.8668 26.5348 22.2573 26.5348C21.6478 26.5348 21.1538 26.0407 21.1538 25.4312V3.955L8.61407 14.848C8.15395 15.2477 7.45693 15.1987 7.05723 14.7386C6.65754 14.2785 6.70652 13.5815 7.16663 13.1818L21.5336 0.701435V0.701435ZM2.9874 23.8835C2.9874 23.274 2.49332 22.7799 1.88384 22.7799C1.27436 22.7799 0.780273 23.274 0.780273 23.8835V30.7428C0.780273 36.9783 5.83512 42.0331 12.0706 42.0331H32.4441C38.6795 42.0331 43.7344 36.9783 43.7344 30.7428V23.8835C43.7344 23.274 43.2403 22.7799 42.6308 22.7799C42.0213 22.7799 41.5272 23.274 41.5272 23.8835V30.7428C41.5272 35.7593 37.4606 39.826 32.4441 39.826H12.0706C7.05408 39.826 2.9874 35.7593 2.9874 30.7428V23.8835Z" fill="#404042"/>
</svg>
