<svg width="23" height="10" viewBox="0 0 23 10" fill="none" xmlns="http://www.w3.org/2000/svg">
<path fill-rule="evenodd" clip-rule="evenodd" d="M17.2806 0.781132C17.5857 0.500939 18.0601 0.5211 18.3403 0.826164L21.8721 4.67138L22.338 5.17868L21.8721 5.68601L18.3404 9.53172C18.0602 9.8368 17.5857 9.85699 17.2807 9.57681C16.9756 9.29664 16.9554 8.8222 17.2356 8.51712L19.6126 5.92871H3.96628L6.68646 8.47708C6.98874 8.76027 7.00422 9.23489 6.72103 9.53718C6.43783 9.83946 5.96321 9.85494 5.66093 9.57175L1.55595 5.72605L0.97168 5.17868L1.55599 4.63135L5.66096 0.786135C5.96327 0.502962 6.43789 0.51847 6.72106 0.820771C7.00423 1.12307 6.98872 1.59769 6.68642 1.88087L3.96645 4.42871H19.6125L17.2356 1.84084C16.9554 1.53577 16.9756 1.06133 17.2806 0.781132Z" fill="#CBCBCB"/>
</svg>
