<svg width="54" height="52" viewBox="0 0 54 52" fill="none" xmlns="http://www.w3.org/2000/svg">
<path fill-rule="evenodd" clip-rule="evenodd" d="M26.1194 1.22587C26.6245 0.787129 27.3755 0.787129 27.8806 1.22587L45.3613 16.4111C45.9212 16.8975 45.9808 17.7455 45.4944 18.3054C45.0081 18.8652 44.16 18.9248 43.6002 18.4385L28.3427 5.18459V31.3154C28.3427 32.057 27.7416 32.6582 27 32.6582C26.2584 32.6582 25.6573 32.057 25.6573 31.3154V5.18459L10.3998 18.4385C9.83996 18.9248 8.99187 18.8652 8.50555 18.3054C8.01922 17.7455 8.07882 16.8975 8.63866 16.4111L26.1194 1.22587ZM3.55365 29.4323C3.55365 28.6907 2.95248 28.0895 2.21091 28.0895C1.46933 28.0895 0.868164 28.6907 0.868164 29.4323V37.7782C0.868164 45.3651 7.01856 51.5155 14.6055 51.5155H39.3945C46.9814 51.5155 53.1318 45.3651 53.1318 37.7782V29.4323C53.1318 28.6907 52.5307 28.0895 51.7891 28.0895C51.0475 28.0895 50.4464 28.6907 50.4464 29.4323V37.7782C50.4464 43.8819 45.4983 48.83 39.3945 48.83H14.6055C8.50171 48.83 3.55365 43.8819 3.55365 37.7782V29.4323Z" fill="#CBCBCB"/>
</svg>
