<svg width="25" height="27" viewBox="0 0 25 27" fill="none" xmlns="http://www.w3.org/2000/svg">
<path fill-rule="evenodd" clip-rule="evenodd" d="M3.9766 0.445312C1.93653 0.445312 0.282715 2.09912 0.282715 4.1392V14.5233C0.282715 16.5634 1.93653 18.2172 3.9766 18.2172H7.77876V22.7514C7.77876 24.7915 9.43256 26.4453 11.4726 26.4453H20.3926C22.4327 26.4453 24.0865 24.7915 24.0865 22.7514V12.3673C24.0865 10.3272 22.4327 8.67344 20.3926 8.67344H16.5904V4.1392C16.5904 2.09912 14.9366 0.445312 12.8965 0.445312H3.9766ZM15.2748 8.67344V4.1392C15.2748 2.82573 14.21 1.76094 12.8965 1.76094H3.9766C2.66313 1.76094 1.59835 2.82572 1.59835 4.1392V14.5233C1.59835 15.8368 2.66313 16.9016 3.9766 16.9016H7.77876V12.3673C7.77876 10.3272 9.43256 8.67344 11.4726 8.67344H15.2748ZM9.09439 12.3673C9.09439 11.0538 10.1592 9.98907 11.4726 9.98907H20.3926C21.7061 9.98907 22.7708 11.0538 22.7708 12.3673V22.7514C22.7708 24.0649 21.7061 25.1297 20.3926 25.1297H11.4726C10.1592 25.1297 9.09439 24.0649 9.09439 22.7514V12.3673Z" fill="#454545"/>
</svg>
