<svg width="17" height="17" viewBox="0 0 17 17" fill="none" xmlns="http://www.w3.org/2000/svg">
<path fill-rule="evenodd" clip-rule="evenodd" d="M9.31311 0.940186C9.31311 0.525972 8.97732 0.190186 8.56311 0.190186C8.1489 0.190186 7.81311 0.525972 7.81311 0.940185V7.50806H1.24512C0.830904 7.50806 0.495117 7.84384 0.495117 8.25806C0.495117 8.67227 0.830904 9.00806 1.24512 9.00806H7.81311V15.576C7.81311 15.9902 8.1489 16.326 8.56311 16.326C8.97732 16.326 9.31311 15.9902 9.31311 15.576V9.00806H15.8809C16.2951 9.00806 16.6309 8.67227 16.6309 8.25806C16.6309 7.84384 16.2951 7.50806 15.8809 7.50806H9.31311V0.940186Z" fill="white"/>
</svg>
