<svg width="21" height="26" viewBox="0 0 21 26" fill="none" xmlns="http://www.w3.org/2000/svg">
<path fill-rule="evenodd" clip-rule="evenodd" d="M1.17197 0.572754C1.53096 0.572754 1.82197 0.863769 1.82197 1.22275V6.59436C1.82197 6.95334 1.53096 7.24436 1.17197 7.24436C0.812987 7.24436 0.521973 6.95334 0.521973 6.59436V1.22275C0.521973 0.863769 0.812987 0.572754 1.17197 0.572754ZM1.17197 18.395C1.53096 18.395 1.82197 18.686 1.82197 19.045V25.2227C1.82197 25.5817 1.53096 25.8727 1.17197 25.8727C0.812987 25.8727 0.521973 25.5817 0.521973 25.2227V19.045C0.521973 18.686 0.812987 18.395 1.17197 18.395ZM7.19038 1.22275C7.19038 0.863769 6.89936 0.572754 6.54038 0.572754C6.18139 0.572754 5.89038 0.863769 5.89038 1.22275V6.59436C5.89038 6.95334 6.18139 7.24436 6.54038 7.24436C6.89936 7.24436 7.19038 6.95334 7.19038 6.59436V1.22275ZM6.54038 18.395C6.89936 18.395 7.19038 18.686 7.19038 19.045V25.2227C7.19038 25.5817 6.89936 25.8727 6.54038 25.8727C6.18139 25.8727 5.89038 25.5817 5.89038 25.2227V19.045C5.89038 18.686 6.18139 18.395 6.54038 18.395ZM15.0254 1.22275C15.0254 0.863769 14.7344 0.572754 14.3754 0.572754C14.0164 0.572754 13.7254 0.863769 13.7254 1.22275V6.59436C13.7254 6.95334 14.0164 7.24436 14.3754 7.24436C14.7344 7.24436 15.0254 6.95334 15.0254 6.59436V1.22275ZM14.3754 18.395C14.7344 18.395 15.0254 18.686 15.0254 19.045V25.2227C15.0254 25.5817 14.7344 25.8727 14.3754 25.8727C14.0164 25.8727 13.7254 25.5817 13.7254 25.2227V19.045C13.7254 18.686 14.0164 18.395 14.3754 18.395ZM20.6841 1.22275C20.6841 0.863769 20.3931 0.572754 20.0341 0.572754C19.6751 0.572754 19.3841 0.863769 19.3841 1.22275V6.59436C19.3841 6.95334 19.6751 7.24436 20.0341 7.24436C20.3931 7.24436 20.6841 6.95334 20.6841 6.59436V1.22275ZM20.0341 18.395C20.3931 18.395 20.6841 18.686 20.6841 19.045V25.2227C20.6841 25.5817 20.3931 25.8727 20.0341 25.8727C19.6751 25.8727 19.3841 25.5817 19.3841 25.2227V19.045C19.3841 18.686 19.6751 18.395 20.0341 18.395ZM19.873 16.9523H14.7879V16.2433L17.4744 13.2584C17.8724 12.8071 18.146 12.4411 18.2952 12.1604C18.448 11.8761 18.5244 11.5829 18.5244 11.2809C18.5244 10.8758 18.4018 10.5435 18.1567 10.2841C17.9115 10.0247 17.5845 9.89501 17.1759 9.89501C16.6855 9.89501 16.3035 10.0354 16.0299 10.3161C15.7598 10.5933 15.6248 10.9806 15.6248 11.4781H14.6387C14.6387 10.7638 14.8679 10.1864 15.3263 9.74576C15.7882 9.30513 16.4048 9.08481 17.1759 9.08481C17.8972 9.08481 18.4676 9.27492 18.8869 9.65515C19.3062 10.0318 19.5159 10.5346 19.5159 11.1636C19.5159 11.9276 19.029 12.8373 18.0554 13.8927L15.9766 16.1474H19.873V16.9523ZM4.48645 16.9523H3.49502V10.3801L1.50684 11.1103V10.2148L4.33187 9.1541H4.48645V16.9523Z" fill="black"/>
</svg>
