<svg width="25" height="25" viewBox="0 0 25 25" fill="none" xmlns="http://www.w3.org/2000/svg">
<path fill-rule="evenodd" clip-rule="evenodd" d="M22.9622 13.0956V19.4456C22.9622 21.489 21.3057 23.1456 19.2622 23.1456H5.26221C3.21875 23.1456 1.56221 21.489 1.56221 19.4456L1.56221 13.0956H2.42908C2.78806 13.0956 3.07908 12.8045 3.07908 12.4456C3.07908 12.0866 2.78806 11.7956 2.42908 11.7956H1.56221L1.56221 5.44556C1.56221 3.4021 3.21875 1.74556 5.26221 1.74556L19.2622 1.74556C21.3057 1.74556 22.9622 3.4021 22.9622 5.44556V11.7956H22.2155C21.8565 11.7956 21.5655 12.0866 21.5655 12.4456C21.5655 12.8045 21.8565 13.0956 22.2155 13.0956H22.9622ZM19.2622 0.445557C22.0236 0.445557 24.2622 2.68413 24.2622 5.44556V19.4456C24.2622 22.207 22.0236 24.4456 19.2622 24.4456H5.26221C2.50078 24.4456 0.262207 22.207 0.262207 19.4456V5.44556C0.262207 2.68413 2.50078 0.445557 5.26221 0.445557H19.2622ZM16.1708 17.4889C16.4246 17.2351 16.4246 16.8235 16.1708 16.5697C15.917 16.3158 15.5054 16.3158 15.2516 16.5697L12.3223 19.499L9.39297 16.5697C9.13913 16.3158 8.72757 16.3158 8.47373 16.5697C8.21989 16.8235 8.21989 17.2351 8.47373 17.4889L11.8626 20.8778C12.1165 21.1317 12.528 21.1317 12.7819 20.8778L16.1708 17.4889ZM16.1107 8.32119C16.3646 8.06735 16.3646 7.65579 16.1107 7.40195L12.7218 4.01304C12.468 3.7592 12.0564 3.7592 11.8026 4.01304L8.41367 7.40195C8.15983 7.65579 8.15983 8.06735 8.41367 8.32119C8.66751 8.57503 9.07907 8.57503 9.33291 8.32119L12.2622 5.39189L15.1915 8.32119C15.4453 8.57503 15.8569 8.57503 16.1107 8.32119ZM20.017 13.0956C20.376 13.0956 20.667 12.8045 20.667 12.4456C20.667 12.0866 20.376 11.7956 20.017 11.7956H17.8185C17.4595 11.7956 17.1685 12.0866 17.1685 12.4456C17.1685 12.8045 17.4595 13.0956 17.8185 13.0956H20.017ZM15.62 13.0956C15.979 13.0956 16.27 12.8045 16.27 12.4456C16.27 12.0866 15.979 11.7956 15.62 11.7956H13.4215C13.0625 11.7956 12.7715 12.0866 12.7715 12.4456C12.7715 12.8045 13.0625 13.0956 13.4215 13.0956H15.62ZM11.223 13.0956C11.582 13.0956 11.873 12.8045 11.873 12.4456C11.873 12.0866 11.582 11.7956 11.223 11.7956H9.02454C8.66555 11.7956 8.37454 12.0866 8.37454 12.4456C8.37454 12.8045 8.66555 13.0956 9.02454 13.0956H11.223ZM6.82605 13.0956C7.18504 13.0956 7.47605 12.8045 7.47605 12.4456C7.47605 12.0866 7.18504 11.7956 6.82605 11.7956H4.62757C4.26858 11.7956 3.97757 12.0866 3.97757 12.4456C3.97757 12.8045 4.26858 13.0956 4.62757 13.0956H6.82605Z" fill="#454545"/>
</svg>
