
<svg xmlns="http://www.w3.org/2000/svg" xmlns:xlink="http://www.w3.org/1999/xlink" width="21px" height="18px" viewBox="0 0 4 4" version="1.1">
<g id="surface1">
<path style=" stroke:none;fill-rule:evenodd;fill:rgb(79.607843%,79.607843%,79.607843%);fill-opacity:1;" d="M 0.742188 0 C 0.6875 0 0.644531 0.0546875 0.644531 0.117188 L 0.644531 0.742188 C 0.644531 0.808594 0.6875 0.859375 0.742188 0.859375 C 0.796875 0.859375 0.839844 0.808594 0.839844 0.742188 L 0.839844 0.234375 L 2.125 0.234375 L 2.125 3.832031 L 1.863281 3.832031 C 1.808594 3.832031 1.765625 3.882812 1.765625 3.949219 C 1.765625 4.015625 1.808594 4.066406 1.863281 4.066406 L 2.582031 4.066406 C 2.636719 4.066406 2.679688 4.015625 2.679688 3.949219 C 2.679688 3.882812 2.636719 3.832031 2.582031 3.832031 L 2.320312 3.832031 L 2.320312 0.234375 L 3.710938 0.234375 L 3.710938 0.742188 C 3.710938 0.808594 3.753906 0.859375 3.804688 0.859375 C 3.859375 0.859375 3.90625 0.808594 3.90625 0.742188 L 3.90625 0.117188 C 3.90625 0.0546875 3.859375 0 3.804688 0 Z M 0.195312 1.953125 C 0.140625 1.953125 0.09375 2.003906 0.09375 2.070312 L 0.09375 2.375 C 0.09375 2.441406 0.140625 2.492188 0.195312 2.492188 C 0.246094 2.492188 0.289062 2.441406 0.289062 2.375 L 0.289062 2.1875 L 0.820312 2.1875 L 0.820312 3.832031 L 0.742188 3.832031 C 0.6875 3.832031 0.644531 3.882812 0.644531 3.949219 C 0.644531 4.015625 0.6875 4.066406 0.742188 4.066406 L 0.917969 4.066406 C 0.917969 4.066406 0.921875 4.066406 0.921875 4.066406 L 1.097656 4.066406 C 1.148438 4.066406 1.195312 4.015625 1.195312 3.949219 C 1.195312 3.882812 1.148438 3.832031 1.097656 3.832031 L 1.015625 3.832031 L 1.015625 2.1875 L 1.597656 2.1875 L 1.597656 2.375 C 1.597656 2.441406 1.640625 2.492188 1.695312 2.492188 C 1.75 2.492188 1.792969 2.441406 1.792969 2.375 L 1.792969 2.070312 C 1.792969 2.003906 1.75 1.953125 1.695312 1.953125 Z M 0.195312 1.953125 "/>
</g>
</svg>
