<svg width="25" height="22" viewBox="0 0 25 22" fill="none" xmlns="http://www.w3.org/2000/svg">
<path fill-rule="evenodd" clip-rule="evenodd" d="M16.2358 2.47796C14.4334 2.0663 12.5489 2.20729 10.8278 2.88254C9.10682 3.55779 7.6292 4.73597 6.58768 6.26343C5.81102 7.40245 5.30374 8.69628 5.09596 10.0473L8.06728 7.72263C8.35002 7.50143 8.75854 7.55132 8.97974 7.83406C9.20094 8.11679 9.15106 8.52532 8.86832 8.74652L4.60505 12.0819C4.46149 12.1942 4.27737 12.2411 4.09758 12.2111C3.91779 12.1811 3.75885 12.077 3.65952 11.9242L0.709797 7.38552C0.514174 7.08452 0.599598 6.68192 0.9006 6.4863C1.2016 6.29068 1.60419 6.3761 1.79982 6.6771L3.82091 9.7869C4.06398 8.26768 4.63922 6.81341 5.51361 5.53106C6.70232 3.78772 8.38877 2.44304 10.353 1.67235C12.3173 0.901672 14.4682 0.740759 16.5252 1.2106C18.5823 1.68044 20.4501 2.75923 21.8849 4.30629C23.3198 5.85335 24.2552 7.79688 24.5692 9.88343C24.8831 11.97 24.561 14.1027 23.645 16.0035C22.7289 17.9043 21.2613 19.485 19.4335 20.5393C17.6058 21.5937 15.5028 22.0728 13.3987 21.9143C13.0408 21.8873 12.7724 21.5753 12.7994 21.2173C12.8264 20.8593 13.1384 20.591 13.4964 20.618C15.3399 20.7569 17.1826 20.3371 18.7839 19.4133C20.3853 18.4894 21.6712 17.1045 22.4739 15.4391C23.2765 13.7737 23.5587 11.905 23.2836 10.0769C23.0086 8.24868 22.189 6.54581 20.9318 5.19032C19.6746 3.83483 18.0381 2.88962 16.2358 2.47796Z" fill="#454545"/>
</svg>
