<svg width="37" height="37" viewBox="0 0 37 37" fill="none" xmlns="http://www.w3.org/2000/svg">
<circle cx="18.3352" cy="18.0059" r="17.5" fill="white" stroke="#CBCBCB"/>
<path fill-rule="evenodd" clip-rule="evenodd" d="M18.9357 9.65277C18.9357 9.32111 18.6668 9.05225 18.3352 9.05225C18.0035 9.05225 17.7347 9.32111 17.7347 9.65277V17.4054H9.98212C9.65045 17.4054 9.38159 17.6742 9.38159 18.0059C9.38159 18.3375 9.65045 18.6064 9.98212 18.6064H17.7347V26.3589C17.7347 26.6906 18.0035 26.9595 18.3352 26.9595C18.6668 26.9595 18.9357 26.6906 18.9357 26.3589V18.6064H26.6883C27.0199 18.6064 27.2888 18.3375 27.2888 18.0059C27.2888 17.6742 27.0199 17.4054 26.6883 17.4054H18.9357V9.65277Z" fill="#CBCBCB"/>
</svg>
